<svg viewBox="0 0 50 55" preserveAspectRatio="xMidYMin meet" fill="none" xmlns="http://www.w3.org/2000/svg"><g class="svg_flag_new"><path class="svg_color" d="M0 55l25-12 25 12V0H0v55z" fill="#4dd433"/><path d="M9.278 16.097l5.329 6.888c.508.652.858 1.015 1.56 1.015.683 0 1.068-.344 1.068-.979v-9.68c0-.416 0-.725-.175-.96-.175-.236-.473-.381-.964-.381-.49 0-.789.145-.964.38-.175.236-.175.544-.175.961v6.435l-5.118-6.725C9.366 12.417 9.016 12 8.174 12 7.386 12 7 12.344 7 12.96v9.644c0 .435 0 .743.175.98.176.235.473.38.964.38s.789-.145.964-.38c.175-.237.175-.563.175-.98v-6.507zM22.223 14.248h2.822c.368 0 .648 0 .876-.163.228-.164.35-.436.35-.889 0-.47-.122-.725-.35-.888-.228-.163-.508-.181-.876-.181h-3.996c-.806 0-1.122.308-1.122 1.16v9.408c0 .834.28 1.16 1.122 1.16h4.399c.368 0 .648 0 .876-.163.228-.163.368-.435.368-.888 0-.472-.14-.725-.368-.889-.228-.163-.508-.18-.876-.18h-3.225v-3.028h2.156c.385 0 .666-.018.894-.181.227-.163.35-.435.35-.889 0-.453-.123-.707-.35-.87-.228-.163-.509-.18-.894-.18h-2.156v-2.34zM35.288 16.097l2.104 6.507c.262.816.56 1.396 1.577 1.396.946 0 1.174-.526 1.437-1.505l2.471-9.063c.053-.2.123-.435.123-.652 0-.472-.333-.78-1.174-.78-.912 0-1.087.344-1.28 1.16l-1.7 7.233-2.12-6.762c-.246-.779-.439-1.196-1.35-1.196-.929 0-1.104.453-1.35 1.214l-2.12 6.744-1.683-7.233c-.193-.797-.438-1.16-1.35-1.16-.876 0-1.174.344-1.174.798 0 .217.07.47.123.688l2.366 9.01c.245.96.49 1.504 1.455 1.504.964 0 1.244-.544 1.525-1.396l2.12-6.507z" fill="#fff"/></g></svg>