<svg viewBox="0 0 46 62" preserveAspectRatio="xMidYMin meet" fill="none" xmlns="http://www.w3.org/2000/svg"><path fill-rule="evenodd" clip-rule="evenodd" d="M23 54l22 7V1H1v60l22-7z" fill="#FF9C28" stroke="#FFB303" stroke-width="2" stroke-linejoin="round"/><path d="M42.935 17.426c-.146-.43-.513-.743-.953-.782l-12.386-1.798-5.534-11.181A1.208 1.208 0 0023 3c-.44 0-.842.235-1.062.665l-5.534 11.18-12.386 1.799c-.44.078-.807.391-.953.782-.147.39-.037.9.293 1.212l8.978 8.718-2.125 12.276c-.074.43.11.899.476 1.133.22.157.44.235.697.235.183 0 .366-.04.55-.117L23 35.058l11.103 5.786c.404.195.88.156 1.246-.079.367-.234.55-.703.477-1.133L33.7 27.356l8.979-8.718a1.21 1.21 0 00.256-1.212z" fill="url(#paint0_linear)"/><path d="M12.968 17c3.016 0 4.508 1.108 4.508 3.355 0 2.248-1.492 3.355-4.508 3.355h-1.714V27H9V17h3.968zm2.222 3.355c0-.977-.698-1.466-2.127-1.466h-1.81v2.932h1.81c1.429 0 2.127-.489 2.127-1.466zM19 27V17h4.317c.54 0 1.047.065 1.523.163.477.098.89.26 1.302.521.413.26.73.586.984 1.01.254.423.35.977.35 1.563 0 1.531-.763 2.508-2.286 2.964L28.3 27h-2.602l-2.826-3.518h-1.65V27h-2.223zm2.222-5.277h2.158c.508 0 .92-.13 1.27-.358.35-.228.508-.586.508-1.075s-.159-.847-.508-1.075c-.317-.228-.762-.358-1.27-.358h-2.158v2.866zM36.905 17v1.89h-5.111v2.116h4.666v1.89h-4.666v2.215H37V27h-7.46V17h7.365z" fill="#fff"/><path fill-rule="evenodd" clip-rule="evenodd" d="M1 56.031V61l22-7 22 7v-5l-22-7-22 7.031z" fill="#FFB400"/><defs><linearGradient id="paint0_linear" x1="23" y1="3.013" x2="23" y2="41" gradientUnits="userSpaceOnUse"><stop stop-color="#FFB400"/><stop offset=".594" stop-color="#FFC135" stop-opacity=".7"/><stop offset="1" stop-color="#FF9C28" stop-opacity="0"/></linearGradient></defs></svg>