<svg xmlns="http://www.w3.org/2000/svg" viewBox="0 0 37 49" preserveAspectRatio="xMidYMin meet"><path d="M18.5 42.5l18 6V.5H.5v48l18-6z" fill-rule="evenodd" clip-rule="evenodd" fill="#ca1f3d" stroke="#f92c51" stroke-linejoin="round"/><linearGradient id="a" gradientUnits="userSpaceOnUse" x1="18.5" y1="46.577" x2="18.5" y2="6.514" gradientTransform="matrix(1 0 0 -1 0 51)"><stop offset="0" stop-color="#ff2d53"/><stop offset=".229" stop-color="#f72b50" stop-opacity=".771"/><stop offset=".579" stop-color="#e22648" stop-opacity=".421"/><stop offset="1" stop-color="#c01d3a" stop-opacity="0"/></linearGradient><path d="M36.5 27.2V15.9c-.4-1.2-1.6-2.5-1.6-2.5s.3 1.8-.2 2.3c-.5.5-1.2.7-1.2.7 0-.3-.1-.7-.2-1.1-.1-.6-.3-1.2-.9-1.8-1.1-.9-2.8-1.2-3.8-2.3-1.2-1.4-1.2-2.5-1.2-2.5s-.8.3-1.4 1.1c-.6.7-.9 1.8-.9 1.8-.1-.3-.6-1-1.6-1.7-.9-.6-2.2-1.2-2.8-2-1.2-1.5-1-3.4-1-3.4C18 4.6 16 6.1 15 8c-.7 1.2-.8 2.8-1 3.8-.2.9-.5 1.5-.5 1.5s.1-2-1-3.5c-1.3-1.8-2.4-1.7-2.4-1.7s.2 1.3-.3 2.3c-.3.6-1.1 1.6-1.4 2.2-.4.9-.5 1.8-.5 1.8s-.1.3-.9-.8c-.5-.6-.3-1.6-.3-1.6s-2.6 2-3.6 3.5C2.3 16.9 2 18.6 2 18.6s-.2.1-.6-.6c-.3-.5-.5-1.1-.5-1.1-.2.2-.3.5-.4.7v18.7c3.1 5.8 9.1 7.5 13.3 7.9l4.7-1.7 5.6 2c4.4-.2 10-1.4 12.4-5.8V27.2z" fill-rule="evenodd" clip-rule="evenodd" fill="url(#a)"/><path d="M5.5 25.5v-8h1.6l3.6 5.2V17.4h1.7v8h-1.6l-3.6-5.2V25.4H5.5zM19.4 17.5V19h-3.8v1.7h3.5v1.5h-3.5V24h3.8v1.5H14v-7.9h5.4zM31.5 17.5l-2.4 8h-1.8L25.7 20l-1.6 5.5h-1.8l-2.4-8h1.8l1.5 6 1.7-6h1.5l1.7 6 1.5-6h1.9z" fill="#fff"/></svg>