<svg viewBox="0 0 50 55" preserveAspectRatio="xMidYMin meet" fill="none" xmlns="http://www.w3.org/2000/svg"><g class="svg_flag_hit"><path class="svg_color" d="M0 55l25-12 25 12V0H0v55z" fill="#a91fff"/><path d="M21.824 13.345c0-.418 0-.727-.192-.963-.192-.255-.558-.382-1.115-.382-.635 0-.923.164-1.096.382-.192.236-.192.545-.192.963v3.237h-5.633v-3.237c0-.418 0-.727-.193-.963-.192-.255-.538-.382-1.096-.382-.576 0-.923.127-1.115.382-.192.236-.192.545-.192.963v9.291c0 .437 0 .746.192.982.192.255.539.382 1.115.382.558 0 .904-.127 1.096-.382.192-.236.192-.545.192-.982v-3.89h5.634v3.89c0 .437 0 .746.192.982.173.218.461.382 1.096.382.557 0 .923-.127 1.115-.382.192-.236.192-.545.192-.982v-9.29zM27.19 13.345c0-.4 0-.727-.193-.963-.192-.255-.538-.382-1.096-.382-.576 0-.923.127-1.115.382-.192.236-.192.563-.192.963v9.291c0 .437 0 .746.192.982.192.255.538.382 1.115.382.558 0 .904-.127 1.096-.382.192-.236.192-.545.192-.982v-9.29zM35.116 14.327h2.538c.404 0 .711 0 .961-.181.25-.164.385-.437.385-.928 0-.473-.135-.727-.385-.89-.25-.182-.557-.2-.96-.2h-7.653c-.423 0-.73.018-.98.2-.25.163-.385.418-.385.89 0 .491.135.764.385.928.25.181.557.181.98.181h2.519v8.31c0 .436 0 .745.192.981.192.255.577.382 1.115.382.52 0 .904-.127 1.096-.382.192-.236.192-.545.192-.982v-8.309z" fill="#fff"/></g></svg>