<svg width="20" height="20" fill="none" xmlns="http://www.w3.org/2000/svg"><g clip-path="url(#clip0_3053_2427)"><path d="M8.2 13.549h3.6v3.8H8.2v-3.8z" fill="url(#paint0_radial_3053_2427)"/><path d="M11.9 17.349H8.1a.6.6 0 00-.6.6h5a.6.6 0 00-.6-.6z" fill="url(#paint1_linear_3053_2427)"/><path d="M7.749 17.463a.596.596 0 01.351-.115h3.8a.6.6 0 01.35.115H7.75z" fill="url(#paint2_linear_3053_2427)"/><path d="M5.5 17.949h9a1 1 0 110 2h-9a1 1 0 110-2z" fill="url(#paint3_linear_3053_2427)"/><path d="M4.796 18.239a.996.996 0 01.704-.29h9c.264 0 .518.104.706.29H4.796z" fill="url(#paint4_linear_3053_2427)"/><path d="M2.82 2.552v.93l.078.974.256 3.228.24 3.022a.787.787 0 00.238.51c.482.47 1.822 1.55 4.568 2.332h3.6c2.746-.782 4.086-1.862 4.568-2.332a.788.788 0 00.238-.51l.24-3.022.256-3.228.078-.974v-.93A2 2 0 0015.636.604a9.138 9.138 0 00-.696-.136c-.08-.014-.164-.026-.246-.038a15.29 15.29 0 00-.996-.114L13.4.292c-.076-.006-.15-.012-.226-.016-.196-.014-.39-.024-.584-.034A54.384 54.384 0 0010 .192a35.795 35.795 0 00-4.614.226c-.362.05-.706.112-1.022.186a1.857 1.857 0 00-.47.178.041.041 0 00-.02.012c-.038.018-.075.04-.11.062L3.74.87v.002c-.034.02-.067.042-.098.066-.034.024-.066.05-.098.076l-.036.03a.88.88 0 00-.064.058c-.02.02-.038.036-.054.054a1.627 1.627 0 00-.08.086l-.052.062c-.02.026-.04.05-.06.078 0 .002 0 .003-.002.004a1.91 1.91 0 00-.244.452c-.008.022-.016.044-.022.066a.708.708 0 00-.03.092 1.198 1.198 0 00-.03.114 1.885 1.885 0 00-.05.442z" fill="url(#paint5_radial_3053_2427)"/><path d="M2.82 2.552v.618c.219-.215.469-.395.742-.534a7.351 7.351 0 01.43-.214h.002c.098-.046.196-.088.296-.126l.148-.058a11.346 11.346 0 011.83-.49A21.102 21.102 0 0110 1.43a21.934 21.934 0 013.734.302c.624.11 1.237.273 1.834.486.112.044.224.084.334.132.036.016.074.032.11.05a6.18 6.18 0 01.436.212c.267.138.513.311.732.516v-.576A2 2 0 0015.636.604a9.138 9.138 0 00-.696-.136c-.08-.014-.164-.026-.246-.038a15.29 15.29 0 00-.996-.114L13.4.292c-.076-.006-.15-.012-.226-.016-.196-.014-.39-.024-.584-.034A54.384 54.384 0 0010 .192a35.795 35.795 0 00-4.614.226c-.362.05-.706.112-1.022.186a1.857 1.857 0 00-.47.178.041.041 0 00-.02.012c-.038.018-.075.04-.11.062L3.74.87v.002c-.034.02-.067.042-.098.066-.034.024-.066.05-.098.076l-.036.03a.88.88 0 00-.064.058c-.02.02-.038.036-.054.054a1.627 1.627 0 00-.08.086l-.052.062c-.02.026-.04.05-.06.078 0 .002 0 .003-.002.004a1.91 1.91 0 00-.244.452c-.008.022-.016.044-.022.066a.708.708 0 00-.03.092 1.198 1.198 0 00-.03.114 1.885 1.885 0 00-.05.442z" fill="url(#paint6_linear_3053_2427)"/><path d="M10.482 13.548H11.8c2.746-.782 4.086-1.862 4.568-2.332a.788.788 0 00.238-.51l.24-3.022.256-3.228.078-.974v-.93A2 2 0 0016.102.778c-.044-.024-.09-.044-.136-.064a2.06 2.06 0 00-.33-.11 9.138 9.138 0 00-.696-.136c-.08-.014-.164-.026-.246-.038a15.29 15.29 0 00-.996-.114L13.4.292c.008.204.028.708.048 1.392.076 2.506.154 7.424-.326 8.81-.616 1.338-2.64 3.054-2.64 3.054z" fill="url(#paint7_linear_3053_2427)"/><path d="M10.482 13.548H11.8c2.746-.782 4.086-1.862 4.568-2.332a.788.788 0 00.238-.51l.24-3.022.256-3.228.078-.974v-.93A2 2 0 0016.102.778c-.044-.024-.09-.044-.136-.064a2.06 2.06 0 00-.33-.11 9.138 9.138 0 00-.696-.136c-.08-.014-.164-.026-.246-.038a15.29 15.29 0 00-.996-.114L13.4.292c.008.204.028.708.048 1.392.076 2.506.154 7.424-.326 8.81-.616 1.338-2.64 3.054-2.64 3.054z" fill="url(#paint8_linear_3053_2427)"/><path d="M0 6.25c0 1.68.75 4.82.842 5.226.17.743-.024 2.072 2.232 2.072.438 0 .944-.208.944-.53 0-.898-1.45-1.774-1.864-2.602-.414-.828-.598-2.072-.598-3.706 0-.506-.024-1.15.344-1.15s.346.598.346 1.058c0 .46.02 1.152.574 1.152.326 0 .334-.078.334-.086l-.256-3.228s-.492-.83-1.366-.83C.658 3.626 0 4.57 0 6.25z" fill="url(#paint9_linear_3053_2427)"/><path d="M11.634 13.1h.216a16.517 16.517 0 001.784-.616 6.628 6.628 0 001.978-1.584c.247-.306.391-.681.412-1.074l.35-6.776-.824-.262S15.512 8.32 14.962 10c-.432 1.322-2.476 2.61-3.328 3.1z" fill="url(#paint10_linear_3053_2427)"/><path opacity=".82" d="M7.147 11.741a.386.386 0 01.472-.268 5.904 5.904 0 004.673-.065.396.396 0 01.525.138.387.387 0 01-.138.525 6.645 6.645 0 01-5.264.142.396.396 0 01-.268-.472z" fill="url(#paint11_radial_3053_2427)"/><path d="M9.696 13.548h.756s2.302-1.778 2.664-2.92c.362-1.142.544-8.046.544-8.046V.312C13.5.3 13.336.286 13.174.276c-.196-.014-.39-.024-.584-.034A54.382 54.382 0 0010 .192s.32 6.168.32 8.174c0 .988-.624 5.182-.624 5.182z" fill="url(#paint12_radial_3053_2427)"/><path d="M12.276 9.732l.146.044c.223-.773.373-1.565.45-2.366.09-.796.156-1.596.196-2.394.086-1.58.118-3.154.106-4.74-.196-.014-.39-.024-.584-.034l-.225-.01c.118 1.576.209 3.188.231 4.774.012.792 0 1.585-.036 2.378a12.46 12.46 0 01-.284 2.348z" fill="url(#paint13_linear_3053_2427)"/><path d="M2.82 2.552v.93l.078.974.256 3.228.234 2.944a.654.654 0 00.07.078c.438.426 1.56 1.338 3.752 2.098-1.778-1.492-2.292-2.984-2.818-5.4v-.016c-.076-1.24-.288-3.326-.4-4.966A24.754 24.754 0 013.92.77V.768a.165.165 0 00-.026.014.041.041 0 00-.02.012c-.038.018-.075.04-.11.062L3.74.87v.002a1.825 1.825 0 00-.196.142l-.036.03a.88.88 0 00-.064.058c-.02.02-.038.036-.054.054a1.627 1.627 0 00-.08.086l-.052.062c-.02.026-.04.05-.06.078 0 .002 0 .003-.002.004a1.906 1.906 0 00-.296.61 1.199 1.199 0 00-.03.114 1.885 1.885 0 00-.05.442z" fill="url(#paint14_linear_3053_2427)"/><path d="M2.82 2.552v.93l.078.974.256 3.228.24 3.022a.787.787 0 00.238.51c.482.47 1.822 1.55 4.568 2.332-2.598-1.768-3.196-3.33-3.808-6.144v-.016c-.076-1.24-.288-3.326-.4-4.966A24.753 24.753 0 013.92.77V.768a.165.165 0 00-.026.014.041.041 0 00-.02.012c-.038.018-.075.04-.11.062L3.74.87v.002a1.825 1.825 0 00-.196.142l-.036.03a.88.88 0 00-.064.058c-.02.02-.038.036-.054.054a1.627 1.627 0 00-.08.086l-.052.062c-.02.026-.04.05-.06.078 0 .002 0 .003-.002.004a1.908 1.908 0 00-.244.452c-.008.022-.016.044-.022.066a.708.708 0 00-.03.092 1.198 1.198 0 00-.03.114 1.885 1.885 0 00-.05.442z" fill="url(#paint15_linear_3053_2427)"/><path d="M3.388 10.628l.006.078a.787.787 0 00.238.51c.482.47 1.822 1.55 4.568 2.332h3.6c2.746-.782 4.086-1.862 4.568-2.332a.787.787 0 00.238-.51l.006-.078a.655.655 0 01-.07.078c-.496.482-1.872 1.592-4.692 2.394h-3.7c-2.82-.802-4.196-1.912-4.692-2.394a.654.654 0 01-.07-.078z" fill="url(#paint16_radial_3053_2427)"/><path d="M14.962 10c.102-.254.1-.486.186-.772.064-.292.106-.588.124-.886.038-.298.062-.6.072-.902.01-.302.076-.636.086-.936l.148-3.538.464-.2.06-.026V.778a1.685 1.685 0 00-.136-.064h-.064V2.61l-.462.198-.06.026V2.9l-.05 3.606c0 .3-.058.634-.062.934-.004.3-.016.598-.046.896-.01.297-.043.592-.098.884-.078.288-.104.52-.162.78z" fill="url(#paint17_linear_3053_2427)"/><path d="M7.908 3.032c-1.293-.13-2.804-.04-3.89.462a.238.238 0 00-.144.266c.143 1.454.184 2.54.308 3.418a.246.246 0 00.298.227c.876-.132 2.591-.372 3.732-.36a.291.291 0 00.293-.343c-.149-.81-.255-2.633-.292-3.341a.36.36 0 00-.305-.33z" fill="url(#paint18_radial_3053_2427)"/><path d="M3.74.87v.002a220.46 220.46 0 00.132 2.86c.058 1.002.216 2.626.316 3.514a.385.385 0 00.294.158c-.06-.99-.182-2.686-.19-3.686-.002-.474-.003-.948-.002-1.422.002-.526.006-1.052.012-1.578l-.284.004A.889.889 0 003.92.77V.768a.166.166 0 00-.026.014.041.041 0 00-.02.012c-.038.018-.075.04-.11.062L3.74.87z" fill="url(#paint19_radial_3053_2427)"/><path d="M4.188 7.246s.148 2.612.56 3.382c.412.77.766 1.38 2.736 2.256l-.028-.018c-.97-.444-2.036-1.178-2.512-2.046-.314-.572-.53-1.948-.674-3.574h-.082z" fill="url(#paint20_linear_3053_2427)"/><path d="M4.018.722c0 3.062.194 8.76.926 10.098.504.92 1.672 1.69 2.684 2.122a19.867 19.867 0 00.522.158h.14c-1.076-.496-1.592-1.36-2.422-2.822-.946-1.674-.492-9.702-.482-9.86-.362.05-.706.112-1.022.186a1.857 1.857 0 00-.346.118z" fill="url(#paint21_linear_3053_2427)"/><path opacity=".47" d="M2.82 3.17v.206c.138-.101.284-.192.436-.27a4.805 4.805 0 01.844-.352c.144-.052.292-.088.44-.128a13.703 13.703 0 011.798-.342c.302-.038.606-.066.91-.098.306-.018.61-.048.916-.058.306-.01.61-.03.916-.034l.92-.008.918.012c.308.004.612.028.918.038.306.01.61.042.914.062.304.032.608.062.91.1.605.077 1.204.194 1.794.35.148.04.296.078.438.128a5.205 5.205 0 01.84.354c.155.071.304.153.448.244v-.246a3.278 3.278 0 00-.732-.516 5.466 5.466 0 00-.436-.212c-.146-.07-.294-.124-.444-.182a11.378 11.378 0 00-1.834-.486A21.312 21.312 0 0010 1.43c-1.25-.005-2.5.102-3.732.318-.623.112-1.235.276-1.83.49-.15.058-.298.114-.444.184-.146.064-.29.136-.432.214a2.992 2.992 0 00-.742.534z" fill="url(#paint22_linear_3053_2427)"/><path opacity=".47" d="M2.82 3.472v.01l.004.062.008.082c.135-.079.277-.146.424-.2A6.195 6.195 0 014.1 3.16c.144-.038.292-.066.44-.096a17.85 17.85 0 011.798-.26c.302-.028.606-.048.91-.072.306-.014.61-.036.916-.044.306-.008.61-.022.916-.026l.92-.006.918.008c.308.004.612.022.918.03.306.008.61.032.914.046.304.026.608.048.91.076.606.062 1.206.144 1.794.264.148.03.296.058.438.098a5.85 5.85 0 011.276.464l.006-.082.006-.078v-.04a3.3 3.3 0 00-.732-.388 5.689 5.689 0 00-.436-.16 5.7 5.7 0 00-.444-.138 14.174 14.174 0 00-1.834-.366A27.772 27.772 0 0010 2.162a27.73 27.73 0 00-3.732.238c-.617.084-1.229.208-1.83.372-.15.044-.298.086-.444.138-.146.048-.29.104-.432.162-.264.1-.514.234-.742.4z" fill="url(#paint23_linear_3053_2427)"/><path opacity=".44" d="M10.825 1.621c0-.064-.003-.127-.007-.191.978.022 1.953.118 2.916.287.088.016.175.034.263.052-.004.177-.01.353-.02.53l-.005.03c-.104-.016-.208-.032-.313-.046-.302-.038-.606-.068-.91-.1-.304-.02-.607-.05-.914-.062-.306-.012-.61-.034-.918-.038l-.097-.002c.008-.151.011-.304.005-.46z" fill="url(#paint24_linear_3053_2427)"/><path opacity=".44" d="M10.816 2.162c.976.015 1.95.088 2.918.217.076.01.15.022.226.034-.022.139-.044.278-.064.418l-.236-.026c-.302-.028-.606-.05-.91-.076-.304-.014-.608-.038-.914-.046-.306-.008-.61-.026-.918-.03l-.155-.002c.026-.16.043-.324.053-.489z" fill="url(#paint25_linear_3053_2427)"/><path d="M2.82 3.372v.11l.004.062c.138-.087.282-.164.432-.228a5.406 5.406 0 01.844-.32c.144-.046.292-.08.44-.116a15.49 15.49 0 011.798-.31c.302-.034.606-.06.91-.088.306-.018.61-.044.916-.054.306-.006.61-.026.916-.03L10 2.39l.918.01c.308.006.612.026.918.036.306.01.61.038.914.056.304.03.608.056.91.09.604.07 1.203.176 1.794.318.148.036.296.07.438.116a5.107 5.107 0 01.84.32c.154.062.302.137.442.224l.006-.078v-.148a3.186 3.186 0 00-.732-.466 5.247 5.247 0 00-.436-.192c-.146-.064-.294-.114-.444-.166-.6-.193-1.212-.34-1.834-.44A23.396 23.396 0 0010 1.796a23.139 23.139 0 00-3.732.288c-.62.102-1.232.25-1.83.444-.15.054-.298.104-.444.168a5.19 5.19 0 00-.432.194c-.27.123-.52.286-.742.482z" fill="#AA670F"/><path opacity=".35" d="M10.763 13.549h.347v3.8h-.347v-3.8z" fill="url(#paint26_linear_3053_2427)"/><path d="M.984 6.92c0 1.486.558 4.158 1.556 5.168.411.41.774.864 1.082 1.356.228-.092.396-.24.396-.426 0-.898-1.45-1.774-1.864-2.602-.414-.828-.598-2.072-.598-3.706 0-.506-.024-1.15.344-1.15s.346.598.346 1.058c0 .46.02 1.152.574 1.152.326 0 .334-.078.334-.086l-.198-2.49s-.364-.808-.948-.808S.984 5.434.984 6.92z" fill="url(#paint27_linear_3053_2427)"/><path d="M2.564 11l-.01-.028c.585.66 1.464 1.347 1.464 2.047a.331.331 0 01-.075.204c-.29-1.063-.947-1.465-1.38-2.223z" fill="url(#paint28_linear_3053_2427)"/><path d="M0 6.25c.022.762.102 1.522.24 2.272a.177.177 0 00.02.012.896.896 0 00.864-.086 9.811 9.811 0 01-.14-1.528c0-1.486.44-2.534 1.024-2.534.584 0 .948.808.948.808l-.058-.738s-.492-.83-1.366-.83C.658 3.626 0 4.57 0 6.25z" fill="url(#paint29_linear_3053_2427)"/><path d="M1.676 4.443l-.02.016a.946.946 0 00-.196.237 2.38 2.38 0 00-.196.442c-.1.33-.17.671-.207 1.015-.037.355-.056.71-.057 1.067-.005.358.013.718.029 1.081a.1.1 0 01-.2.019C.778 7.96.724 7.598.693 7.233a10.946 10.946 0 01-.05-1.105C.645 5.75.683 5.372.758 5c.043-.196.106-.388.188-.571.091-.235.256-.435.47-.569a.317.317 0 01.444.277.303.303 0 01-.02.117.497.497 0 01-.164.189z" fill="url(#paint30_linear_3053_2427)"/><path d="M20 6.25c0 1.68-.75 4.82-.842 5.226-.17.743.024 2.072-2.232 2.072-.438 0-.944-.208-.944-.53 0-.898 1.45-1.774 1.864-2.602.414-.828.598-2.072.598-3.706 0-.506.024-1.15-.344-1.15s-.346.598-.346 1.058c0 .46-.02 1.152-.574 1.152-.326 0-.334-.078-.334-.086l.256-3.228s.492-.83 1.366-.83c.874 0 1.532.944 1.532 2.624z" fill="url(#paint31_linear_3053_2427)"/><path d="M19.016 6.92c0 1.486-.558 4.158-1.556 5.168-.411.41-.774.864-1.082 1.356-.228-.092-.396-.24-.396-.426 0-.898 1.45-1.774 1.864-2.602.414-.828.598-2.072.598-3.706 0-.506.024-1.15-.344-1.15s-.346.598-.346 1.058c0 .46-.02 1.152-.574 1.152-.326 0-.334-.078-.334-.086l.198-2.49s.364-.808.948-.808 1.024 1.048 1.024 2.534z" fill="url(#paint32_linear_3053_2427)"/><path d="M20 6.25a15.015 15.015 0 01-.24 2.272.18.18 0 01-.02.012.896.896 0 01-.864-.086 9.809 9.809 0 00.14-1.528c0-1.486-.44-2.534-1.024-2.534-.584 0-.948.808-.948.808l.058-.738s.492-.83 1.366-.83c.874 0 1.532.944 1.532 2.624z" fill="url(#paint33_linear_3053_2427)"/><path d="M18.327 4.439c-.022-.011-.016-.01-.015-.008.004 0 .007.002.01.004a.426.426 0 01.093.084c.047.054.089.113.124.176.08.14.146.288.196.442.101.331.17.671.207 1.016.038.354.057.71.058 1.067.005.358-.013.718-.028 1.078V8.3a.1.1 0 00.2.019c.052-.36.106-.722.137-1.087.036-.367.052-.736.05-1.105A5.969 5.969 0 0019.242 5a2.943 2.943 0 00-.188-.571 1.586 1.586 0 00-.277-.422.754.754 0 00-.193-.147.317.317 0 10-.257.58v-.001z" fill="url(#paint34_linear_3053_2427)"/></g><defs><linearGradient id="paint1_linear_3053_2427" x1="12.5" y1="17.649" x2="7.5" y2="17.649" gradientUnits="userSpaceOnUse"><stop stop-color="#C05300"/><stop offset="1" stop-color="#BE5100"/></linearGradient><linearGradient id="paint2_linear_3053_2427" x1="12.42" y1="17.406" x2="7.58" y2="17.406" gradientUnits="userSpaceOnUse"><stop stop-color="#FED19E"/><stop offset=".23" stop-color="#FDCF9A"/><stop offset=".47" stop-color="#FBC78D"/><stop offset=".715" stop-color="#F8BB78"/><stop offset=".961" stop-color="#F4AA5B"/><stop offset="1" stop-color="#F3A756"/></linearGradient><linearGradient id="paint3_linear_3053_2427" x1="10" y1="17.978" x2="10" y2="19.912" gradientUnits="userSpaceOnUse"><stop stop-color="#F28718"/><stop offset=".319" stop-color="#F08517"/><stop offset=".434" stop-color="#E97E15"/><stop offset=".515" stop-color="#DE7310"/><stop offset=".528" stop-color="#DB700F"/><stop offset="1" stop-color="#B35006"/></linearGradient><linearGradient id="paint4_linear_3053_2427" x1="14.822" y1="18.094" x2="5.023" y2="18.094" gradientUnits="userSpaceOnUse"><stop stop-color="#FED19E" stop-opacity=".2"/><stop offset=".054" stop-color="#FED09D" stop-opacity=".247"/><stop offset=".151" stop-color="#FDCF9A" stop-opacity=".372"/><stop offset=".28" stop-color="#FCCC96" stop-opacity=".575"/><stop offset=".435" stop-color="#FBC98F" stop-opacity=".852"/><stop offset=".511" stop-color="#FAC78C"/><stop offset=".564" stop-color="#FAC589" stop-opacity=".95"/><stop offset=".66" stop-color="#F8C080" stop-opacity=".817"/><stop offset=".79" stop-color="#F7B771" stop-opacity=".602"/><stop offset=".946" stop-color="#F4AB5D" stop-opacity=".309"/><stop offset="1" stop-color="#F3A756" stop-opacity=".2"/></linearGradient><linearGradient id="paint6_linear_3053_2427" x1="17.18" y1="1.681" x2="2.82" y2="1.681" gradientUnits="userSpaceOnUse"><stop stop-color="#F6961E"/><stop offset=".012" stop-color="#F6971F"/><stop offset=".246" stop-color="#F8A229"/><stop offset=".511" stop-color="#F9A52C"/><stop offset=".844" stop-color="#F79D24"/><stop offset="1" stop-color="#F6971F"/></linearGradient><linearGradient id="paint7_linear_3053_2427" x1="11.676" y1="11.259" x2="13.531" y2="8.092" gradientUnits="userSpaceOnUse"><stop stop-color="#EA5F00" stop-opacity=".7"/><stop offset=".191" stop-color="#EA6000" stop-opacity=".686"/><stop offset=".347" stop-color="#EB6302" stop-opacity=".643"/><stop offset=".492" stop-color="#EC6804" stop-opacity=".569"/><stop offset=".629" stop-color="#ED6E07" stop-opacity=".466"/><stop offset=".761" stop-color="#EF770B" stop-opacity=".332"/><stop offset=".888" stop-color="#F28210" stop-opacity=".171"/><stop offset="1" stop-color="#F48D15" stop-opacity="0"/></linearGradient><linearGradient id="paint8_linear_3053_2427" x1="16.296" y1="7.069" x2="7.279" y2="6.76" gradientUnits="userSpaceOnUse"><stop stop-color="#F38B14"/><stop offset=".039" stop-color="#F38B14" stop-opacity=".911"/><stop offset=".14" stop-color="#F38A13" stop-opacity=".7"/><stop offset=".247" stop-color="#F38A13" stop-opacity=".512"/><stop offset=".355" stop-color="#F38913" stop-opacity=".354"/><stop offset=".467" stop-color="#F38912" stop-opacity=".226"/><stop offset=".584" stop-color="#F38812" stop-opacity=".126"/><stop offset=".706" stop-color="#F38812" stop-opacity=".055"/><stop offset=".839" stop-color="#F38812" stop-opacity=".013"/><stop offset="1" stop-color="#F38812" stop-opacity="0"/></linearGradient><linearGradient id="paint9_linear_3053_2427" x1="1.327" y1="3.349" x2="2.413" y2="13.646" gradientUnits="userSpaceOnUse"><stop stop-color="#FAAD3E"/><stop offset=".259" stop-color="#F9AA3A"/><stop offset=".53" stop-color="#F7A02D"/><stop offset=".806" stop-color="#F39118"/><stop offset="1" stop-color="#F08205"/></linearGradient><linearGradient id="paint10_linear_3053_2427" x1="13.895" y1="10.241" x2="14.146" y2="5.638" gradientUnits="userSpaceOnUse"><stop stop-color="#C15600"/><stop offset=".126" stop-color="#CC6104"/><stop offset=".383" stop-color="#DE710A"/><stop offset=".661" stop-color="#E87B0E"/><stop offset="1" stop-color="#EB7E0F"/></linearGradient><linearGradient id="paint13_linear_3053_2427" x1="12.819" y1=".731" x2="12.329" y2="9.785" gradientUnits="userSpaceOnUse"><stop stop-color="#FFF3CD"/><stop offset=".132" stop-color="#FFF2CA" stop-opacity=".984"/><stop offset=".27" stop-color="#FEEDC2" stop-opacity=".936"/><stop offset=".412" stop-color="#FEE6B5" stop-opacity=".856"/><stop offset=".555" stop-color="#FCDCA2" stop-opacity=".743"/><stop offset=".699" stop-color="#FBCE89" stop-opacity=".599"/><stop offset=".845" stop-color="#F9BE6B" stop-opacity=".421"/><stop offset=".99" stop-color="#F7AB49" stop-opacity=".216"/><stop offset="1" stop-color="#F7AA46" stop-opacity=".2"/></linearGradient><linearGradient id="paint14_linear_3053_2427" x1="4.051" y1="3.343" x2="5.047" y2="10.024" gradientUnits="userSpaceOnUse"><stop stop-color="#F6971F"/><stop offset=".406" stop-color="#F5931C"/><stop offset=".829" stop-color="#F38612"/><stop offset="1" stop-color="#F17F0C"/></linearGradient><linearGradient id="paint15_linear_3053_2427" x1="-408.638" y1="221.862" x2="-261.598" y2="637.248" gradientUnits="userSpaceOnUse"><stop stop-color="#F6971F"/><stop offset=".406" stop-color="#F5931C"/><stop offset=".829" stop-color="#F38612"/><stop offset="1" stop-color="#F17F0C"/></linearGradient><linearGradient id="paint17_linear_3053_2427" x1="15.879" y1=".982" x2="15.299" y2="8.573" gradientUnits="userSpaceOnUse"><stop stop-color="#FAC864"/><stop offset=".12" stop-color="#FAC763" stop-opacity=".983"/><stop offset=".247" stop-color="#F9C460" stop-opacity=".933"/><stop offset=".375" stop-color="#F9BF5A" stop-opacity=".849"/><stop offset=".506" stop-color="#F8B853" stop-opacity=".731"/><stop offset=".638" stop-color="#F6B049" stop-opacity=".58"/><stop offset=".771" stop-color="#F5A53D" stop-opacity=".395"/><stop offset=".902" stop-color="#F3982F" stop-opacity=".18"/><stop offset="1" stop-color="#F18E23" stop-opacity="0"/></linearGradient><linearGradient id="paint20_linear_3053_2427" x1="4.157" y1="7.521" x2="6.627" y2="12.863" gradientUnits="userSpaceOnUse"><stop stop-color="#C05300"/><stop offset="1" stop-color="#EA8621"/></linearGradient><linearGradient id="paint21_linear_3053_2427" x1="4.506" y1="1.19" x2="6.677" y2="12.636" gradientUnits="userSpaceOnUse"><stop stop-color="#FEE080"/><stop offset=".056" stop-color="#FDD777"/><stop offset=".191" stop-color="#FBC865"/><stop offset=".338" stop-color="#FABF5B"/><stop offset=".517" stop-color="#FABC58"/><stop offset=".603" stop-color="#FABC58" stop-opacity=".987"/><stop offset=".673" stop-color="#FABB57" stop-opacity=".947"/><stop offset=".737" stop-color="#F9B956" stop-opacity=".88"/><stop offset=".797" stop-color="#F9B754" stop-opacity=".785"/><stop offset=".854" stop-color="#F8B452" stop-opacity=".663"/><stop offset=".91" stop-color="#F7B04F" stop-opacity=".512"/><stop offset=".964" stop-color="#F6AB4C" stop-opacity=".337"/><stop offset="1" stop-color="#F5A84A" stop-opacity=".2"/></linearGradient><linearGradient id="paint22_linear_3053_2427" x1="17.18" y1="2.403" x2="2.82" y2="2.403" gradientUnits="userSpaceOnUse"><stop stop-color="#FBC864"/><stop offset=".246" stop-color="#FCCC68"/><stop offset=".503" stop-color="#FED775"/><stop offset=".522" stop-color="#FED876"/><stop offset=".83" stop-color="#FEE181"/><stop offset="1" stop-color="#FEE78A"/></linearGradient><linearGradient id="paint23_linear_3053_2427" x1="17.18" y1="2.902" x2="2.82" y2="2.902" gradientUnits="userSpaceOnUse"><stop stop-color="#F6AB3C"/><stop offset=".044" stop-color="#F6AD40"/><stop offset=".09" stop-color="#F7B34D"/><stop offset=".137" stop-color="#F8BC62"/><stop offset=".185" stop-color="#FACA7F"/><stop offset=".232" stop-color="#FCDBA4"/><stop offset=".267" stop-color="#FEE9C4"/><stop offset=".333" stop-color="#FEE4B8"/><stop offset=".452" stop-color="#FDD69A"/><stop offset=".609" stop-color="#FBC168"/><stop offset=".723" stop-color="#FAAF40"/><stop offset="1" stop-color="#FAAF40"/></linearGradient><linearGradient id="paint24_linear_3053_2427" x1="-30.827" y1="9.874" x2="-259.079" y2="9.874" gradientUnits="userSpaceOnUse"><stop stop-color="#FFF3CD"/><stop offset=".132" stop-color="#FFF2CA" stop-opacity=".984"/><stop offset=".27" stop-color="#FEEDC2" stop-opacity=".936"/><stop offset=".412" stop-color="#FEE6B5" stop-opacity=".856"/><stop offset=".555" stop-color="#FCDCA2" stop-opacity=".743"/><stop offset=".699" stop-color="#FBCE89" stop-opacity=".599"/><stop offset=".845" stop-color="#F9BE6B" stop-opacity=".421"/><stop offset=".99" stop-color="#F7AB49" stop-opacity=".216"/><stop offset="1" stop-color="#F7AA46" stop-opacity=".2"/></linearGradient><linearGradient id="paint25_linear_3053_2427" x1="-31.115" y1="10.512" x2="-260.645" y2="10.512" gradientUnits="userSpaceOnUse"><stop stop-color="#FFF3CD"/><stop offset=".132" stop-color="#FFF2CA" stop-opacity=".984"/><stop offset=".27" stop-color="#FEEDC2" stop-opacity=".936"/><stop offset=".412" stop-color="#FEE6B5" stop-opacity=".856"/><stop offset=".555" stop-color="#FCDCA2" stop-opacity=".743"/><stop offset=".699" stop-color="#FBCE89" stop-opacity=".599"/><stop offset=".845" stop-color="#F9BE6B" stop-opacity=".421"/><stop offset=".99" stop-color="#F7AB49" stop-opacity=".216"/><stop offset="1" stop-color="#F7AA46" stop-opacity=".2"/></linearGradient><linearGradient id="paint26_linear_3053_2427" x1="10.936" y1="13.497" x2="10.936" y2="17.155" gradientUnits="userSpaceOnUse"><stop stop-color="#F7AA46" stop-opacity=".2"/><stop offset=".503" stop-color="#FFF3CD"/><stop offset=".568" stop-color="#FFF2CA" stop-opacity=".984"/><stop offset=".637" stop-color="#FEEDC2" stop-opacity=".936"/><stop offset=".707" stop-color="#FEE6B5" stop-opacity=".856"/><stop offset=".779" stop-color="#FCDCA2" stop-opacity=".743"/><stop offset=".851" stop-color="#FBCE89" stop-opacity=".599"/><stop offset=".923" stop-color="#F9BE6B" stop-opacity=".421"/><stop offset=".995" stop-color="#F7AB49" stop-opacity=".216"/><stop offset="1" stop-color="#F7AA46" stop-opacity=".2"/></linearGradient><linearGradient id="paint27_linear_3053_2427" x1="-276.284" y1="222.177" x2="-90.633" y2="474.574" gradientUnits="userSpaceOnUse"><stop stop-color="#C05300"/><stop offset="1" stop-color="#BE5100"/></linearGradient><linearGradient id="paint28_linear_3053_2427" x1="1.529" y1="4.807" x2="3.523" y2="12.904" gradientUnits="userSpaceOnUse"><stop stop-color="#C05300"/><stop offset=".557" stop-color="#C45501"/><stop offset="1" stop-color="#CD5903"/></linearGradient><linearGradient id="paint29_linear_3053_2427" x1="1.526" y1="4.234" x2="1.379" y2="8.605" gradientUnits="userSpaceOnUse"><stop stop-color="#FEBD19"/><stop offset=".093" stop-color="#FDBB18" stop-opacity=".959"/><stop offset=".253" stop-color="#FCB516" stop-opacity=".849"/><stop offset=".463" stop-color="#FAAB12" stop-opacity=".669"/><stop offset=".712" stop-color="#F79D0D" stop-opacity=".421"/><stop offset=".993" stop-color="#F38B06" stop-opacity=".108"/><stop offset="1" stop-color="#F38B06" stop-opacity=".1"/></linearGradient><linearGradient id="paint30_linear_3053_2427" x1="1.661" y1="3.717" x2=".925" y2="6.533" gradientUnits="userSpaceOnUse"><stop stop-color="#FFEBA8"/><stop offset=".164" stop-color="#FFE9A4"/><stop offset=".335" stop-color="#FEE397"/><stop offset=".51" stop-color="#FDD882"/><stop offset=".688" stop-color="#FCCA65"/><stop offset=".865" stop-color="#FAB840"/><stop offset="1" stop-color="#F9A71E"/></linearGradient><linearGradient id="paint31_linear_3053_2427" x1="-71.558" y1="169.79" x2="-197.472" y2="653.514" gradientUnits="userSpaceOnUse"><stop stop-color="#FAAD3E"/><stop offset=".259" stop-color="#F9AA3A"/><stop offset=".53" stop-color="#F7A02D"/><stop offset=".806" stop-color="#F39118"/><stop offset="1" stop-color="#F08205"/></linearGradient><linearGradient id="paint32_linear_3053_2427" x1="-50.283" y1="222.177" x2="-235.935" y2="474.574" gradientUnits="userSpaceOnUse"><stop stop-color="#C05300"/><stop offset="1" stop-color="#BE5100"/></linearGradient><linearGradient id="paint33_linear_3053_2427" x1="18.474" y1="4.234" x2="18.621" y2="8.605" gradientUnits="userSpaceOnUse"><stop stop-color="#FEBD19"/><stop offset=".159" stop-color="#FDB616" stop-opacity=".88"/><stop offset=".507" stop-color="#F9A510" stop-opacity=".572"/><stop offset="1" stop-color="#F38B06" stop-opacity=".1"/></linearGradient><linearGradient id="paint34_linear_3053_2427" x1="-231.129" y1="88.915" x2="-196.719" y2="124.03" gradientUnits="userSpaceOnUse"><stop stop-color="#FFEBA8"/><stop offset=".164" stop-color="#FFE9A4"/><stop offset=".335" stop-color="#FEE397"/><stop offset=".51" stop-color="#FDD882"/><stop offset=".688" stop-color="#FCCA65"/><stop offset=".865" stop-color="#FAB840"/><stop offset="1" stop-color="#F9A71E"/></linearGradient><radialGradient id="paint0_radial_3053_2427" cx="0" cy="0" r="1" gradientUnits="userSpaceOnUse" gradientTransform="rotate(-180 4.974 9.373) scale(5.3394)"><stop offset=".324" stop-color="#F79F28"/><stop offset=".483" stop-color="#F5951F"/><stop offset=".681" stop-color="#F1820F"/><stop offset=".797" stop-color="#F07D0D"/><stop offset=".936" stop-color="#EC6E08"/><stop offset="1" stop-color="#E96504"/></radialGradient><radialGradient id="paint5_radial_3053_2427" cx="0" cy="0" r="1" gradientUnits="userSpaceOnUse" gradientTransform="rotate(179.028 4.872 2.83) scale(6.23 7.22057)"><stop stop-color="#F8A129"/><stop offset=".317" stop-color="#F79E27"/><stop offset=".571" stop-color="#F59421"/><stop offset=".803" stop-color="#F18317"/><stop offset="1" stop-color="#EC6E0A"/></radialGradient><radialGradient id="paint11_radial_3053_2427" cx="0" cy="0" r="1" gradientUnits="userSpaceOnUse" gradientTransform="rotate(-180 5.033 6.096) scale(2.6622)"><stop stop-color="#CB5E04"/><stop offset=".184" stop-color="#CF6105" stop-opacity=".861"/><stop offset=".583" stop-color="#D96A08" stop-opacity=".504"/><stop offset="1" stop-color="#E4740C" stop-opacity=".1"/></radialGradient><radialGradient id="paint12_radial_3053_2427" cx="0" cy="0" r="1" gradientUnits="userSpaceOnUse" gradientTransform="rotate(-180 6.42 .306) scale(9.716)"><stop stop-color="#FCC864"/><stop offset=".165" stop-color="#FABF5A" stop-opacity=".89"/><stop offset=".522" stop-color="#F7A941" stop-opacity=".61"/><stop offset="1" stop-color="#F1891C" stop-opacity=".2"/></radialGradient><radialGradient id="paint16_radial_3053_2427" cx="0" cy="0" r="1" gradientUnits="userSpaceOnUse" gradientTransform="rotate(-180 4.976 6.734) scale(5.8862)"><stop stop-color="#FE9A0B"/><stop offset=".119" stop-color="#FE9A0B" stop-opacity=".983"/><stop offset=".244" stop-color="#FE9A0B" stop-opacity=".934"/><stop offset=".372" stop-color="#FE9A0B" stop-opacity=".851"/><stop offset=".502" stop-color="#FE9A0B" stop-opacity=".736"/><stop offset=".632" stop-color="#FE9A0B" stop-opacity=".587"/><stop offset=".764" stop-color="#FD990A" stop-opacity=".404"/><stop offset=".895" stop-color="#FD990A" stop-opacity=".193"/><stop offset="1" stop-color="#FD990A" stop-opacity="0"/></radialGradient><radialGradient id="paint18_radial_3053_2427" cx="0" cy="0" r="1" gradientUnits="userSpaceOnUse" gradientTransform="rotate(-180 1.634 2.58) scale(4.47)"><stop stop-color="#fff" stop-opacity=".4"/><stop offset="1" stop-color="#F9A632" stop-opacity=".5"/></radialGradient><radialGradient id="paint19_radial_3053_2427" cx="0" cy="0" r="1" gradientUnits="userSpaceOnUse" gradientTransform="matrix(-6.51902 0 0 -6.519 3.988 .565)"><stop stop-color="#fff" stop-opacity=".4"/><stop offset="1" stop-color="#FBD493"/></radialGradient><clipPath id="clip0_3053_2427"><path fill="#fff" transform="matrix(-1 0 0 1 20 0)" d="M0 0h20v20H0z"/></clipPath></defs></svg>