<svg xmlns="http://www.w3.org/2000/svg" viewBox="0 0 94 109.56"><g fill="none" stroke="#ffe240" stroke-width="3"><circle cx="45.77" cy="69.87" r="7.38" stroke-miterlimit="10"/><path d="M38.39 45.28c0-6.59 10.06-13.53 14-17.52a7.78 7.78 0 00-1.1-12 7.69 7.69 0 00-8.29-.15 7.79 7.79 0 00-3.66 5.82c0 2.86-.25 4.17-3.11 4.17h-7.38c-2.86 0-2.49-1.31-2.48-4.17a20.71 20.71 0 1135.24 15.5c-2.89 2.77-10.92 7.41-10.92 10.81v4.92a2.23 2.23 0 01-2.17 2.46h-7.38a2.73 2.73 0 01-2.75-2.46z" stroke-miterlimit="10"/><path d="M75.28 35.44h7.38a9.84 9.84 0 019.84 9.84v34.43a9.84 9.84 0 01-9.84 9.84H45l-17.14 17.76a2.46 2.46 0 01-4.23-1.71V89.55H11.34a9.84 9.84 0 01-9.84-9.84V45.28a9.84 9.84 0 019.84-9.84h7.38" stroke-linejoin="round"/></g></svg>