<svg xmlns="http://www.w3.org/2000/svg" viewBox="0 0 40 40"><circle cx="20" cy="20" r="20" fill="#fe2a4a"/><circle cx="20" cy="20" r="15.6" fill="#fff"/><path d="M10.5 17.68a.66.66 0 01-.41.14.71.71 0 01-.58-.3L9 16.86a.7.7 0 01-.14-.41.69.69 0 01.3-.58l2-1.46a1.21 1.21 0 01.77-.3h.58a.71.71 0 01.7.7V24a.71.71 0 01-.7.7h-.88A.71.71 0 0111 24v-6.7zM22.31 16.74a2.83 2.83 0 01-1.52 2.52 2.54 2.54 0 011.78 2.54c0 2-1.61 3.13-3.83 3.13S14.89 23.8 14.89 22a2.86 2.86 0 011.63-2.72 2.79 2.79 0 01-1.37-2.54c0-1.67 1.58-2.81 3.57-2.81s3.59 1.13 3.59 2.81zm-5 4.8c0 .59.4 1.11 1.4 1.11s1.41-.5 1.41-1.06a1.13 1.13 0 00-1.29-1.12h-.18a1.19 1.19 0 00-1.33 1.07zm2.55-4.39c0-.59-.4-.94-1.17-.94s-1.12.44-1.12.94a1 1 0 001.06 1h.2a1 1 0 001.05-1zM26.74 22.89a.74.74 0 01-.73-.73v-1.9h-1.79a.74.74 0 01-.73-.73V19a.74.74 0 01.73-.73H26v-1.85a.74.74 0 01.73-.73h.67a.74.74 0 01.73.73v1.87H30a.74.74 0 01.73.73v.52a.74.74 0 01-.73.73h-1.86v1.9a.74.74 0 01-.73.73z"/></svg>