<svg xmlns="http://www.w3.org/2000/svg" viewBox="0 0 14 14"><g data-name="Слой 2"><g fill="#4a5372" data-name="Слой 1"><circle cx="10.55" cy="5.74" r=".55"/><path d="M11.81 1.09h-.71V.55a.55.55 0 00-1.1 0v.55H7.52V.55a.55.55 0 00-1.09 0v.55H4V.55a.55.55 0 00-1.09 0v.55h-.72A2.19 2.19 0 000 3.28v8.53A2.19 2.19 0 002.19 14h4.18a.55.55 0 000-1.09H2.19a1.09 1.09 0 01-1.09-1.09V3.28a1.09 1.09 0 011.09-1.09h.68v.55A.55.55 0 004 2.73v-.54h2.43v.55a.55.55 0 001.09 0v-.55H10v.55a.55.55 0 001.09 0v-.55h.71a1.09 1.09 0 011.09 1.09V6.4a.55.55 0 001.11 0V3.28a2.19 2.19 0 00-2.19-2.19z"/><path d="M10.69 7.38A3.31 3.31 0 1014 10.69a3.31 3.31 0 00-3.31-3.31zm0 5.52a2.21 2.21 0 112.21-2.21 2.22 2.22 0 01-2.21 2.22z"/><path d="M11.48 10.14h-.25v-.57a.55.55 0 00-1.09 0v1.12a.55.55 0 00.55.55h.79a.55.55 0 000-1.09z"/><circle cx="8.18" cy="5.74" r=".55"/><circle cx="5.8" cy="8.12" r=".55"/><circle cx="3.42" cy="5.74" r=".55"/><circle cx="3.42" cy="8.12" r=".55"/><circle cx="3.42" cy="10.5" r=".55"/><circle cx="5.8" cy="10.5" r=".55"/><circle cx="5.8" cy="5.74" r=".55"/></g></g></svg>