<svg xmlns="http://www.w3.org/2000/svg" width="150" height="150.025"><path d="M76.7 14.525a1.752 1.752 0 01-1.8 1.4c-33 0-53.5 16.8-57.8 46.6a1.728 1.728 0 01-1.7 1.5 1.736 1.736 0 01-1.7-1.9c4.4-31.7 26.2-49.6 61.3-49.6a1.824 1.824 0 011.7 2zM134.7 86.325a1.736 1.736 0 011.7 1.9c-1.6 12.7-5.9 23.1-12.6 31-10.4 12.1-26.8 18.3-48.8 18.3a1.771 1.771 0 01-1.7-2 1.752 1.752 0 011.8-1.4c34.5 0 54-15.6 57.9-46.3a1.649 1.649 0 011.7-1.5zM34.9 141.725a34.9 34.9 0 1134.9-34.9 35 35 0 01-34.9 34.9zm0-66.4a31.5 31.5 0 1031.5 31.5 31.5 31.5 0 00-31.5-31.5z" fill="#ffe240"/><path d="M34.9 133.125a26.3 26.3 0 1117-46.4 1.703 1.703 0 11-2.2 2.6 22.917 22.917 0 108.1 17.5 21.139 21.139 0 00-1-6.6 1.676 1.676 0 013.2-1 27.38 27.38 0 011.1 7.6 26.183 26.183 0 01-26.2 26.3z" fill="#ffe240"/><path d="M34.9 99.871c2.1 0 3.7 1.269 3.7 2.762 0 .746.8 1.418 1.9 1.418s1.9-.6 1.9-1.418c0-2.612-2.4-4.926-5.9-5.449V95.84c0-.746-.8-1.418-1.9-1.418-1 0-1.9.6-1.9 1.418v1.418c-3.6.821-5.9 3.433-5.3 6.195.5 2.762 3.7 4.777 7.4 4.777 2 0 3.7 1.194 3.7 2.687.1 1.493-1.5 2.762-3.5 2.911h-.5c-2-.075-3.5-1.343-3.5-2.762 0-.746-.8-1.418-1.9-1.418-1 0-1.9.6-1.9 1.418 0 2.538 2.3 4.777 5.6 5.449v1.194c0 .746.8 1.418 1.9 1.418s1.9-.6 1.9-1.418v-1.194c3.7-.746 6-3.359 5.6-6.12-.5-2.836-3.7-4.926-7.5-4.926-2.1 0-3.7-1.269-3.7-2.762.2-1.568 1.8-2.836 3.9-2.836zM87.6 150.025a1.845 1.845 0 01-1.2-.5l-12.6-12.5a1.634 1.634 0 010-2.4l12.5-12.5a1.7 1.7 0 012.4 2.4l-11.3 11.3 11.4 11.4a1.634 1.634 0 010 2.4 2.843 2.843 0 01-1.2.4zM62.4 28.525a1.845 1.845 0 01-1.2-.5 1.634 1.634 0 010-2.4l11.4-11.4-11.3-11.3a1.634 1.634 0 010-2.4 1.634 1.634 0 012.4 0l12.5 12.5a1.656 1.656 0 01.5 1.2 1.845 1.845 0 01-.5 1.2l-12.6 12.6a1.656 1.656 0 01-1.2.5z" fill="#ffe240"/><g fill="#ffe240"><path d="M126.7 33.825a3 3 0 00-4.1.7l-3.9 5.6-.4.6-.5.7-2.6 3.8-2.6-3.8-.5-.8-.4-.6-3.9-5.6a2.908 2.908 0 00-4.1-.7 2.56 2.56 0 00-1 1.3 2.819 2.819 0 00.3 2.8l1.5 2.2 3.9 5.6.5.7 3.1 4.5v.2l.7 1a3.127 3.127 0 002.5 1.3 3.09 3.09 0 002.4-1.3l.7-1v-.1l3.2-4.5.5-.7 3.9-5.6 1.5-2.2a2.819 2.819 0 00.3-2.8 2.56 2.56 0 00-1-1.3z"/><path d="M149.7 38.625a35.246 35.246 0 00-13.5-23.1 34.3 34.3 0 00-21.1-7.2 35.1 35.1 0 00-27.7 13.8 35.74 35.74 0 00-6.9 16.5 35.929 35.929 0 00-.3 4.7 34.91 34.91 0 0030.3 34.5 35.53 35.53 0 004.6.3 34.748 34.748 0 0027.7-13.7 35.74 35.74 0 006.9-16.5 35.53 35.53 0 00.3-4.6 34.829 34.829 0 00-.3-4.7zm-8.8 6.3v-3.3h5.7v3.3zm-4.7 21.7l-4-4a24.963 24.963 0 002.3-2.3l4 4a24.963 24.963 0 01-2.3 2.3zm-3.3-9.1a2.652 2.652 0 00-.5.6 24.963 24.963 0 01-2.3 2.3 2.651 2.651 0 01-.6.5 22.636 22.636 0 01-11.8 4.9c-.3 0-.6.1-.9.1-.5 0-1.1.1-1.6.1a8.083 8.083 0 01-1.6-.1 2.2 2.2 0 01-.8-.1 23.458 23.458 0 01-11.9-4.9 2.651 2.651 0 01-.6-.5 24.964 24.964 0 01-2.3-2.3 2.651 2.651 0 01-.5-.6 22.312 22.312 0 01-4.9-11.7c0-.3-.1-.6-.1-.9 0-.5-.1-1.1-.1-1.6a9.7 9.7 0 01.1-1.7 2.769 2.769 0 01.1-.9 22.312 22.312 0 014.9-11.7c.2-.2.3-.4.5-.6a24.963 24.963 0 012.3-2.3 2.651 2.651 0 01.6-.5 22.636 22.636 0 0111.8-4.9c.3 0 .6-.1.8-.1.5 0 1.1-.1 1.6-.1a8.6 8.6 0 011.6.1 1.949 1.949 0 01.8.1 23.12 23.12 0 0111.8 4.9c.2.2.4.3.6.5a23.4 23.4 0 017.8 14.8c0 .3.1.6.1.8 0 .5.1 1.1.1 1.7a8.6 8.6 0 01-.1 1.6 1.949 1.949 0 01-.1.8 22.527 22.527 0 01-4.8 11.7zm-38.9 9.1a24.963 24.963 0 01-2.3-2.3l4-4a24.963 24.963 0 002.3 2.3zm-10.4-21.7v-3.3h5.7v3.3zm10.4-25.1l4 4a24.964 24.964 0 00-2.3 2.3l-4-4c.7-.8 1.5-1.5 2.3-2.3zm42.2 0a24.963 24.963 0 012.3 2.3l-.1.1-4 4a24.963 24.963 0 00-2.3-2.3zm10.1 18.8h-5.8a24.8 24.8 0 00-4.2-10l4.1-4.1a31.7 31.7 0 015.9 14.1zm-12.5-20.7l-4.1 4.1a27.672 27.672 0 00-10-4.2v-5.8a31.23 31.23 0 0114.1 5.9zm-18.7-6.2h1.6v5.7h-3.2v-5.7zm-4.6.4v5.8a24.8 24.8 0 00-10 4.2l-4.1-4.1a29.178 29.178 0 0114.1-5.9zm-20.7 12.4l4.1 4.1a26.955 26.955 0 00-4.2 10h-5.8a32.19 32.19 0 015.9-14.1zm-5.9 23.4h5.8a24.8 24.8 0 004.2 10l-4.1 4.1a32.19 32.19 0 01-5.9-14.1zm12.5 20.6l4.1-4.1a27.672 27.672 0 0010 4.2v5.8a31.23 31.23 0 01-14.1-5.9zm18.7 6.2h-1.6v-5.7c.5 0 1.1.1 1.6.1a8.6 8.6 0 001.6-.1v5.7zm4.7-.3v-5.8a24.8 24.8 0 0010-4.2l4.1 4.1a32.19 32.19 0 01-14.1 5.9zm20.6-12.4l-4.1-4.1a26.031 26.031 0 004.2-10h5.8a32.19 32.19 0 01-5.9 14.1z"/></g></svg>