<svg xmlns="http://www.w3.org/2000/svg" viewBox="0 0 108.91 102"><g fill="none" stroke="#ffe240" stroke-linecap="round" stroke-linejoin="round" stroke-width="3"><circle cx="54.45" cy="72.87" r="27.63"/><path d="M26.83 15.31v11.52l9.2-4.61M17.62 22.22l9.21 4.61M33.73 33.73l-6.9-6.9-6.91 6.9M54.45 15.31v11.52l9.21-4.61M45.24 22.22l9.21 4.61M61.36 33.73l-6.91-6.9-6.9 6.9M82.08 15.31v11.52l9.21-4.61M72.87 22.22l9.21 4.61M88.99 33.73l-6.91-6.9-6.91 6.9"/><path d="M24.52 54.45H6.1a4.6 4.6 0 01-4.6-4.6V6.1a4.6 4.6 0 014.6-4.6h96.7a4.6 4.6 0 014.6 4.6v43.75a4.6 4.6 0 01-4.6 4.6H84.38M40.64 75.17l9.35 9.21 18.28-23.02"/></g></svg>