<svg xmlns="http://www.w3.org/2000/svg" viewBox="0 0 105.62 106.93"><g fill="none" stroke="#ffe240" stroke-linecap="round" stroke-linejoin="round" stroke-width="3"><path d="M48.18 63.21a16.61 16.61 0 0011-15.76v-6.21c0-1.06 1.48-3 1.48-7.77s-.79-6.56-2.83-9.2-5.74-2.17-5.74.4v2.07c0 5.75-3.3 8.42-7.12 12.72 0 0-5.11 4.61-7.07 4.61h-9.49v28.4h7.06c4.66 0 2.95 4.7 9.5 4.7H71c2.29 0 4.46-2.61 4.46-4.9l3.29-19.69c.74-4.41-3.28-8.53-7.75-8.53h-7.1"/><path d="M60.61 6.8l.3.75.53-.6a8.39 8.39 0 0114.66 5.33v.8l.71-.38a8.39 8.39 0 0112 10l-.25.76.79-.12a8.39 8.39 0 017.8 13.51l-.5.63.79.16A8.39 8.39 0 01100.12 53l-.68.42.68.42a8.39 8.39 0 01-2.71 15.37l-.79.16.5.63a8.39 8.39 0 01-7.8 13.51l-.79-.12.25.76a8.39 8.39 0 01-12 10l-.71-.38v.8A8.39 8.39 0 0161.44 100l-.53-.6-.3.75a8.39 8.39 0 01-15.6 0l-.3-.75-.53.6a8.39 8.39 0 01-14.66-5.34v-.8l-.71.38a8.39 8.39 0 01-12-10l.25-.76-.79.12A8.39 8.39 0 018.49 70l.5-.63-.79-.16a8.39 8.39 0 01-2.71-15.32l.68-.42-.68-.47A8.39 8.39 0 018.2 37.68l.8-.16-.5-.63a8.39 8.39 0 017.8-13.51l.79.12-.25-.76a8.39 8.39 0 0112-10l.71.38v-.8a8.39 8.39 0 0114.63-5.38l.53.6.29-.74a8.39 8.39 0 0115.61 0z"/></g></svg>