<svg xmlns="http://www.w3.org/2000/svg" viewBox="0 0 80 80" enable-background="new 0 0 80 80"><defs><filter id="a"><feGaussianBlur stdDeviation="1.2" result="coloredBlur"/><feMerge><feMergeNode in="coloredBlur"/><feMergeNode in="SourceGraphic"/></feMerge></filter></defs><g fill="none" stroke="#ff3447" stroke-width="1.456" stroke-linecap="round" stroke-linejoin="round" stroke-miterlimit="10"><path d="M77.153 39.44c0 20.58-16.634 37.267-37.153 37.267S2.847 60.021 2.847 39.44 19.48 2.172 40 2.172c20.52 0 37.153 16.685 37.153 37.267z"/><path d="M40 69.05c-16.277 0-29.519-13.284-29.519-29.61C10.481 23.112 23.723 9.83 40 9.83s29.519 13.283 29.519 29.61c0 16.326-13.243 29.61-29.52 29.61zM26.708 26.107l26.584 26.665M53.292 26.107L26.708 52.772"/></g><g opacity=".7" fill="none" stroke="#ff3447" stroke-width="1.456" stroke-linecap="round" stroke-linejoin="round" stroke-miterlimit="10"><path filter="url(#a)" d="M77.153 39.44c0 20.58-16.634 37.267-37.153 37.267S2.847 60.021 2.847 39.44 19.48 2.172 40 2.172c20.52 0 37.153 16.685 37.153 37.267z"/><path filter="url(#a)" d="M40 69.05c-16.277 0-29.519-13.284-29.519-29.61C10.481 23.112 23.723 9.83 40 9.83s29.519 13.283 29.519 29.61c0 16.326-13.243 29.61-29.52 29.61zM26.708 26.107l26.584 26.665M53.292 26.107L26.708 52.772"/></g></svg>