<svg xmlns="http://www.w3.org/2000/svg" viewBox="0 0 80 80" enable-background="new 0 0 80 80"><defs><filter id="a"><feGaussianBlur stdDeviation="1.2" result="coloredBlur"/><feMerge><feMergeNode in="coloredBlur"/><feMergeNode in="SourceGraphic"/></feMerge></filter></defs><g fill="none" stroke="#62c23c" stroke-width="1.471" stroke-miterlimit="10"><path d="M77.405 40.492c0 20.828-16.785 37.715-37.49 37.715-20.705 0-37.49-16.887-37.49-37.715 0-20.828 16.785-37.713 37.49-37.713 20.705 0 37.49 16.885 37.49 37.713z"/><path d="M39.915 70.458c-16.425 0-29.787-13.443-29.787-29.966 0-16.522 13.362-29.964 29.787-29.964S69.7 23.97 69.7 40.492c0 16.523-13.362 29.966-29.786 29.966z"/><path d="M59.798 30.967l-7.33-7.376L33.61 42.56l-5.659-5.694-7.33 7.377 12.903 13.15z"/></g><g opacity=".7" fill="none" stroke="#62c23c" stroke-width="1.471" stroke-miterlimit="10"><path filter="url(#a)" d="M77.405 40.492c0 20.828-16.785 37.715-37.49 37.715-20.705 0-37.49-16.887-37.49-37.715 0-20.828 16.785-37.713 37.49-37.713 20.705 0 37.49 16.885 37.49 37.713z"/><path filter="url(#a)" d="M39.915 70.458c-16.425 0-29.787-13.443-29.787-29.966 0-16.522 13.362-29.964 29.787-29.964S69.7 23.97 69.7 40.492c0 16.523-13.362 29.966-29.786 29.966z"/><path filter="url(#a)" d="M59.798 30.967l-7.33-7.376L33.61 42.56l-5.659-5.694-7.33 7.377 12.903 13.15z"/></g></svg>