<svg xmlns="http://www.w3.org/2000/svg" viewBox="0 0 80 80" enable-background="new 0 0 80 80"><defs><filter id="a"><feGaussianBlur stdDeviation="1.2" result="coloredBlur"/><feMerge><feMergeNode in="coloredBlur"/><feMergeNode in="SourceGraphic"/></feMerge></filter></defs><g fill="#e7c23c"><path d="M14.223 13.555a2.507 2.507 0 012.507 2.507v6.115a1.446 1.446 0 01-2.467 1.022l-1.126-1.126a1.474 1.474 0 00-1.049-.435c-.503 0-1.003.253-1.29.73C2.816 35.585 4.764 53 15.88 64.114c6.562 6.562 15.222 10.025 24.065 10.025 4.568 0 9.186-.924 13.587-2.824a1.445 1.445 0 011.146 2.653A36.902 36.902 0 0140.031 77c-2.231 0-4.473-.202-6.7-.608-7.409-1.35-14.15-4.889-19.495-10.233a37 37 0 01-4.883-46.294c.45-.693.376-1.599-.208-2.183l-1.661-1.66a1.445 1.445 0 011.022-2.467h6.116m0-1.609H8.107c-1.24 0-2.347.74-2.821 1.885a3.045 3.045 0 00.661 3.327L7.61 18.82c.044.044.029.118-.004.169C3.091 25.937.917 34.334 1.481 42.634a38.578 38.578 0 0011.22 24.662c5.576 5.577 12.61 9.269 20.343 10.678 2.307.42 4.658.634 6.988.634 5.28 0 10.422-1.064 15.284-3.162a3.033 3.033 0 001.628-1.677 3.052 3.052 0 00-4.048-3.93 32.499 32.499 0 01-12.95 2.693c-8.623 0-16.766-3.393-22.928-9.554C6.622 52.584 4.565 35.924 12.104 23.314l1.022 1.022a3.034 3.034 0 002.16.894c.402 0 .795-.078 1.167-.232a3.045 3.045 0 001.885-2.82v-6.116a4.12 4.12 0 00-4.115-4.116zM39.97 3c2.245 0 4.5.204 6.74.615 7.393 1.357 14.12 4.893 19.453 10.226a36.968 36.968 0 0110.751 23.634 36.997 36.997 0 01-6.169 23.116c-.283.422-.237.98.122 1.34l2.048 2.047a1.445 1.445 0 01-1.022 2.467h-6.116a2.507 2.507 0 01-2.508-2.507v-6.115a1.445 1.445 0 012.468-1.022l1.509 1.509c.21.21.486.313.759.313.344 0 .685-.164.885-.483 8.342-13.278 6.488-30.999-4.771-42.256-6.56-6.558-15.223-10.022-24.07-10.022-4.54 0-9.13.913-13.507 2.79a1.446 1.446 0 01-1.14-2.656A36.91 36.91 0 0139.97 3m0-1.608a38.36 38.36 0 00-15.201 3.126c-.75.321-1.33.915-1.632 1.673a3.033 3.033 0 00.03 2.336 3.051 3.051 0 004.009 1.603A32.493 32.493 0 0140.05 7.47c8.627 0 16.772 3.392 22.932 9.551 10.454 10.453 12.47 27.024 4.914 39.664l-1.022-1.021a3.034 3.034 0 00-2.16-.895c-.402 0-.795.078-1.167.232a3.044 3.044 0 00-1.886 2.822v6.115a4.12 4.12 0 004.116 4.115h6.116c1.24 0 2.347-.74 2.821-1.884a3.045 3.045 0 00-.662-3.328l-1.726-1.725c4.564-6.978 6.761-15.393 6.193-23.75a38.576 38.576 0 00-11.22-24.663C61.736 7.14 54.716 3.45 47.002 2.033a39.067 39.067 0 00-7.031-.641z"/></g><g opacity=".7" fill="#e7c23c"><path filter="url(#a)" d="M14.223 13.555a2.507 2.507 0 012.507 2.507v6.115a1.446 1.446 0 01-2.467 1.022l-1.126-1.126a1.474 1.474 0 00-1.049-.435c-.503 0-1.003.253-1.29.73C2.816 35.585 4.764 53 15.88 64.114c6.562 6.562 15.222 10.025 24.065 10.025 4.568 0 9.186-.924 13.587-2.824a1.445 1.445 0 011.146 2.653A36.902 36.902 0 0140.031 77c-2.231 0-4.473-.202-6.7-.608-7.409-1.35-14.15-4.889-19.495-10.233a37 37 0 01-4.883-46.294c.45-.693.376-1.599-.208-2.183l-1.661-1.66a1.445 1.445 0 011.022-2.467h6.116m0-1.609H8.107c-1.24 0-2.347.74-2.821 1.885a3.045 3.045 0 00.661 3.327L7.61 18.82c.044.044.029.118-.004.169C3.091 25.937.917 34.334 1.481 42.634a38.578 38.578 0 0011.22 24.662c5.576 5.577 12.61 9.269 20.343 10.678 2.307.42 4.658.634 6.988.634 5.28 0 10.422-1.064 15.284-3.162a3.033 3.033 0 001.628-1.677 3.052 3.052 0 00-4.048-3.93 32.499 32.499 0 01-12.95 2.693c-8.623 0-16.766-3.393-22.928-9.554C6.622 52.584 4.565 35.924 12.104 23.314l1.022 1.022a3.034 3.034 0 002.16.894c.402 0 .795-.078 1.167-.232a3.045 3.045 0 001.885-2.82v-6.116a4.12 4.12 0 00-4.115-4.116zM39.97 3c2.245 0 4.5.204 6.74.615 7.393 1.357 14.12 4.893 19.453 10.226a36.968 36.968 0 0110.751 23.634 36.997 36.997 0 01-6.169 23.116c-.283.422-.237.98.122 1.34l2.048 2.047a1.445 1.445 0 01-1.022 2.467h-6.116a2.507 2.507 0 01-2.508-2.507v-6.115a1.445 1.445 0 012.468-1.022l1.509 1.509c.21.21.486.313.759.313.344 0 .685-.164.885-.483 8.342-13.278 6.488-30.999-4.771-42.256-6.56-6.558-15.223-10.022-24.07-10.022-4.54 0-9.13.913-13.507 2.79a1.446 1.446 0 01-1.14-2.656A36.91 36.91 0 0139.97 3m0-1.608a38.36 38.36 0 00-15.201 3.126c-.75.321-1.33.915-1.632 1.673a3.033 3.033 0 00.03 2.336 3.051 3.051 0 004.009 1.603A32.493 32.493 0 0140.05 7.47c8.627 0 16.772 3.392 22.932 9.551 10.454 10.453 12.47 27.024 4.914 39.664l-1.022-1.021a3.034 3.034 0 00-2.16-.895c-.402 0-.795.078-1.167.232a3.044 3.044 0 00-1.886 2.822v6.115a4.12 4.12 0 004.116 4.115h6.116c1.24 0 2.347-.74 2.821-1.884a3.045 3.045 0 00-.662-3.328l-1.726-1.725c4.564-6.978 6.761-15.393 6.193-23.75a38.576 38.576 0 00-11.22-24.663C61.736 7.14 54.716 3.45 47.002 2.033a39.067 39.067 0 00-7.031-.641z"/></g></svg>