<svg xmlns="http://www.w3.org/2000/svg" viewBox="0 0 60 60"><path d="M0 0h60v60H0V0z" fill="#ce1126"/><path d="M0 0h40v60H0V0z" fill="#fff"/><path d="M0 0h20v60H0V0z" fill="#006847"/><g fill="#0c8489"><path d="M30 33.5c-.2 0-.4-.2-.4-.4v-1.7c0-.2.2-.4.4-.4s.4.2.4.4V33c0 .3-.1.5-.4.5z"/><path d="M30 31.8c-1.6 0-3.2-.6-4.5-1.8-.2-.2-.2-.4 0-.6.2-.2.4-.2.6 0 1.1 1 2.5 1.6 3.9 1.6s2.8-.6 3.9-1.6c.2-.2.4-.1.6 0 .2.2.1.4 0 .6-1.3 1.2-2.8 1.8-4.5 1.8z"/></g><path d="M30 33.5c-1.1 0-2.1-.3-3-.9l.5-.7c1.5 1 3.6 1 5.1 0l.5.7c-1 .5-2 .9-3.1.9z" fill="#0c8489"/><path d="M30 35.1c-3.9 0-7.1-3.2-7.1-7.1h.8c0 3.5 2.8 6.3 6.3 6.3s6.3-2.8 6.3-6.3h.8c0 3.9-3.2 7.1-7.1 7.1z" fill="#9ca168"/><g fill="#ffe15a"><circle cx="23.8" cy="30.5" r=".6"/><circle cx="25.1" cy="32.5" r=".6"/><circle cx="27.1" cy="34" r=".6"/><circle cx="36.3" cy="30.5" r=".6"/><circle cx="35" cy="32.5" r=".6"/><circle cx="33" cy="34" r=".6"/></g><path d="M30.4 33.9h-.8c-.5 0-.8-.4-.8-.8 0-.5.4-.8.8-.8h.8c.5 0 .8.4.8.8.1.4-.3.8-.8.8z" fill="#f9aa51"/><path d="M30.3 28.6l.3-.4 2.3 2.2s.8-1.9 0-3c-.8-1-2.2-2.1-2.2-2.1l-.7.1.3 1.2-.6.7.6 1.3zM30.4 28.7l2.1 1.5s-.5.5-1.5.4l-1.5-1.3.9-.6zM28.6 29.3l-.3.3-.1.2.6.1.7.1z" fill="#4d2a15"/><path d="M30 30.3s.3.1.1.2c-.2.1-.8.1-.8.4h1.6l-.8-.7-.1.1zM28.4 29.6s-.4.1-.3-.1c.1-.2.5-.7.2-.9l-1.1 1.1h1.1l.1-.1z" fill="#f9c83a"/><path d="M28.3 26.4s.2 0 .1.3-1.5 2 1.8 3.8c.4-1 .9-1.5-.2-3-.2-.5-.1-1.9-1.3-1.9-.3 0-.7 0-1.2.8.4.2.8 0 .8 0z" fill="#8f4620"/><path d="M27.2 25.5s-.9.9-.5 1.3c.4.3 1.1-.1 1.1.3-.1.4-1.1 1.1-.9 1.4.2.3 1.6.2 1.2.8-.4.7-1.6 0-2.3-1.1" fill="none" stroke="#a8ac71" stroke-width=".346" stroke-linecap="round" stroke-linejoin="round" stroke-miterlimit="10"/><path d="M27.6 26.2l-.5.5s-.1.2.4.4c.3-.1.9-.3.8-.5 0-.2 0-.2-.2-.2-.1 0-.4.3-.5-.2z" fill="#f9c83a"/><path d="M29.8 27.6s1.3-.4.6-2c.6.1 1.2.5 1.7 1 .2.2.4.5.4.8 0 .1 0 .2.2.3.1.1.3.1.4 0 .1-.2-.2-.6-.3-.7-.5-.7-1.4-2-3.2-2-.4 0-.4.2-.4.2s-.4 0-.4.2.2.4.6.4c.4.1.1.6.1.6l.3 1.2z" fill="#8f4620"/></svg>