<svg xmlns="http://www.w3.org/2000/svg" viewBox="0 0 60 60"><path fill="#fff" d="M0 0h60v60H0z"/><path fill="red" d="M45 0h15v60H45zM0 0h15v60H0zM30.6 42.7l-.3-5.4c0-.3.2-.6.6-.6h.1l5.4.9-.7-2c-.1-.2 0-.3.1-.5l5.9-4.8-1.3-.6c-.2-.1-.3-.3-.2-.5l1.2-3.6-3.4.7c-.2 0-.4-.1-.5-.2l-.7-1.5-2.6 2.8c-.2.2-.4.2-.6 0-.1-.1-.1-.2-.1-.4l1.3-6.6-2 1.2c-.2.1-.4 0-.6-.1l-2.2-4-2.1 4.1c-.1.2-.3.3-.5.2l-2-1.2 1.3 6.6c0 .2-.1.4-.3.5-.1 0-.3 0-.4-.1l-2.6-2.8-.7 1.5c-.1.2-.3.3-.5.2l-3.4-.7 1.2 3.6c.1.2 0 .4-.2.5l-1.3.6 5.9 4.8c.1.1.2.3.1.5l-.7 2 5.4-.9c.3-.1.6.2.7.5v.1l-.3 5.4h1z"/></svg>