<svg xmlns="http://www.w3.org/2000/svg" height="512" width="512"><path d="M0 0h512v512H0z" fill="#00afca"/><circle cx="256" cy="216" r="67.28" fill="#fec50c"/><path d="M256 139.55c4-.05 5.5-2.55 5.5-5.55 0-4-5.5-23-5.5-23s-5.5 19-5.5 23c0 3 1.5 5.55 5.5 5.55zM332.45 216c.05 4 2.55 5.5 5.55 5.5 4 0 23.05-5.5 23.05-5.5S342 210.5 338 210.5c-3 0-5.55 1.5-5.55 5.5zM256 292.45c-4 .05-5.5 2.55-5.5 5.55 0 4 5.5 23.05 5.5 23.05s5.5-19.05 5.5-23.05c0-3-1.5-5.55-5.5-5.55zM179.55 216c-.05-4-2.55-5.5-5.55-5.5-4 0-23.05 5.5-23.05 5.5s19.05 5.5 23.05 5.5c3 0 5.55-1.5 5.55-5.5zM285.26 145.37c3.71 1.48 6.05-.25 7.2-3 1.53-3.7 3.74-23.4 3.74-23.4s-12.37 15.49-13.9 19.19c-1.15 2.75-.74 5.68 2.96 7.21zM326.63 245.26c-1.48 3.71.25 6.05 3 7.2 3.7 1.53 23.4 3.74 23.4 3.74s-15.49-12.37-19.19-13.9c-2.75-1.15-5.68-.74-7.21 2.96zM226.74 286.63c-3.71-1.48-6.05.25-7.2 3-1.53 3.7-3.74 23.4-3.74 23.4s12.37-15.49 13.9-19.19c1.15-2.75.74-5.68-2.96-7.21zM185.37 186.74c1.48-3.71-.25-6.05-3-7.2-3.7-1.53-23.4-3.74-23.4-3.74s15.49 12.37 19.19 13.9c2.75 1.15 5.68.74 7.21-2.96zM310.06 161.94c2.86 2.79 5.69 2.09 7.81 0 2.83-2.83 12.41-20.19 12.41-20.19s-17.36 9.58-20.19 12.41c-2.09 2.09-2.86 4.95-.03 7.78zM310.06 270.06c-2.79 2.86-2.09 5.69 0 7.81 2.83 2.83 20.19 12.41 20.19 12.41s-9.58-17.36-12.41-20.19c-2.09-2.09-4.95-2.86-7.78-.03zM201.94 270.06c-2.86-2.79-5.69-2.09-7.81 0-2.83 2.83-12.41 20.19-12.41 20.19s17.36-9.58 20.19-12.41c2.09-2.09 2.86-4.95.03-7.78zM201.94 161.94c2.79-2.86 2.09-5.69 0-7.81-2.83-2.83-20.19-12.41-20.19-12.41s9.58 17.36 12.41 20.19c2.09 2.09 4.95 2.86 7.78.03zM326.63 186.74c1.58 3.68 4.46 4.11 7.23 3 3.7-1.53 19.19-13.9 19.19-13.9s-19.7 2.21-23.4 3.74c-2.77 1.11-4.55 3.47-3.02 7.16zM285.26 286.63c-3.68 1.58-4.11 4.46-3 7.23 1.53 3.7 13.9 19.19 13.9 19.19s-2.21-19.7-3.74-23.4c-1.11-2.77-3.42-4.55-7.16-3.02zM185.37 245.26c-1.58-3.68-4.46-4.11-7.23-3-3.7 1.53-19.19 13.9-19.19 13.9s19.7-2.21 23.4-3.74c2.77-1.11 4.55-3.42 3.02-7.16zM226.74 145.37c3.68-1.58 4.11-4.46 3-7.23-1.53-3.7-13.9-19.19-13.9-19.19s2.21 19.7 3.74 23.4c1.11 2.77 3.47 4.55 7.16 3.02zM270.91 141c3.94.73 5.9-1.43 6.48-4.37.78-3.92-.9-23.68-.9-23.68s-9.11 17.61-9.89 21.53c-.6 2.96.4 5.76 4.31 6.52zM331 230.91c-.73 3.94 1.43 5.9 4.37 6.48 3.92.78 23.68-.9 23.68-.9s-17.61-9.11-21.53-9.89c-2.96-.6-5.76.4-6.52 4.31zM241.09 291c-3.94-.73-5.9 1.43-6.48 4.37-.78 3.92.9 23.68.9 23.68s9.11-17.61 9.89-21.53c.6-2.96-.4-5.76-4.31-6.52zM181 201.09c.73-3.94-1.43-5.9-4.37-6.48-3.92-.78-23.68.9-23.68.9s17.61 9.11 21.53 9.89c2.96.6 5.76-.4 6.52-4.31zM298.47 152.43c3.36 2.18 6 .94 7.66-1.55 2.22-3.33 8.23-22.23 8.23-22.23s-15.15 12.79-17.36 16.11c-1.68 2.5-1.85 5.45 1.47 7.67zM319.57 258.47c-2.18 3.36-.94 6 1.55 7.66 3.33 2.22 22.23 8.23 22.23 8.23s-12.79-15.15-16.11-17.36c-2.5-1.68-5.45-1.85-7.67 1.47zM213.53 279.57c-3.36-2.18-6-.94-7.66 1.55-2.22 3.33-8.23 22.23-8.23 22.23s15.15-12.79 17.38-16.11c1.66-2.5 1.83-5.45-1.49-7.67zM192.43 173.53c2.18-3.36.94-6-1.55-7.66-3.33-2.22-22.23-8.23-22.23-8.23s12.79 15.15 16.11 17.38c2.5 1.66 5.45 1.83 7.67-1.49zM319.57 173.53c2.26 3.29 5.17 3.15 7.67 1.49 3.32-2.23 16.11-17.38 16.11-17.38s-18.9 6-22.23 8.23c-2.49 1.67-3.78 4.33-1.55 7.66zM298.47 279.57c-3.29 2.26-3.15 5.17-1.49 7.67 2.23 3.32 17.38 16.11 17.38 16.11s-6-18.9-8.23-22.23c-1.67-2.49-4.33-3.78-7.66-1.55zM192.43 258.47c-2.26-3.29-5.17-3.15-7.67-1.49-3.32 2.23-16.11 17.38-16.11 17.38s18.9-6 22.23-8.23c2.49-1.67 3.78-4.33 1.55-7.66zM213.53 152.43c3.29-2.26 3.15-5.17 1.49-7.67-2.23-3.32-17.38-16.11-17.38-16.11s6 18.9 8.23 22.23c1.67 2.49 4.33 3.78 7.66 1.55zM331 201.09c.83 3.91 3.58 4.89 6.52 4.31 3.92-.78 21.53-9.89 21.53-9.89s-19.76-1.68-23.68-.9c-2.96.58-5.17 2.55-4.37 6.48zM270.91 291c-3.91.83-4.89 3.58-4.31 6.52.78 3.92 9.89 21.53 9.89 21.53s1.68-19.76.9-23.68c-.58-2.96-2.55-5.17-6.48-4.37zM181 230.91c-.83-3.91-3.58-4.89-6.52-4.31-3.92.78-21.53 9.89-21.53 9.89s19.76 1.68 23.68.9c2.96-.58 5.17-2.55 4.37-6.48zM241.09 141c3.91-.83 4.89-3.58 4.31-6.52-.78-3.92-9.89-21.53-9.89-21.53s-1.68 19.76-.9 23.68c.58 2.96 2.55 5.17 6.48 4.37zM244.16 361.73a20.92 20.92 0 00-5.27.89c-2.35.31-4.6 1.13-6.93 1.51l-.93.15-1.57.15a5.87 5.87 0 01.17 1.3 4.07 4.07 0 01-.17 1.25 3 3 0 01-.67 1 3.57 3.57 0 01-1.1.89 3.4 3.4 0 01-1.3.31 3.46 3.46 0 01-1.35-.16 3.92 3.92 0 01-1.25-.77 10.05 10.05 0 01-1.4.25 5.73 5.73 0 01-1.31 0 11.51 11.51 0 01-1.4-.47 7 7 0 01-1.3-.68c-1.7 1-3.6 2-4.64 3.7a5.58 5.58 0 00-.83 2.67 7.32 7.32 0 00.72 3.48c.18.32.33-1.15.9-1.35a8.94 8.94 0 013.33-1.67c1-.51.88 0 .47.84-.1.41-.67 2 .1 1.2 3.38-1.5 7.13-1.8 10.78-2.09 5.3-.55 10.62-.66 15.93-.73 5 .07 10 .13 15 .32 2.39.06 4.79.6 7.14.2.56-.15 1.45-.19 1.78-.52a9 9 0 00-3.5-.78H256c-2.65-.27-5.42-.3-7.92-1.3-.67-.27-1.28-.9-1.92-.22a11.17 11.17 0 01-3 .63 11.39 11.39 0 01-5.12-.88c1.17-1.62 2.57-3 3.85-4.53-1-.17-2-.39-3.07-.64 1.82-1.25 3.5-2.66 5.27-4z" fill="#fec50c"/><path d="M322 379c-3.63 2.17-6.39-1.69-9.42-2.84-2.16 1.17-2.36 5.1-4.39 7-2.41 2.75-5.38-.77-5.15-3.48-2.9 2.44-4.36 8-9 7.22-2.22-1.8-3.86-5.6-5.56-1.28-1.38 2.11-5.05 5.12-7 1.93-.59-2.82-2-6.13-3.54-1.66-1.05 3.17-4.42 5.49-7.69 4.11-1.78-1.46 1.44-6.87-.84-6.48-3.4 2.25-5.37 7.83-10.12 7.38-1.84-2.07 1.12-5.57-.9-7.87-2.39 3.07-5 7.55-9.16 7.87-2-1.61.08-6.25-1.19-6.94-4.24 2.54-8.7 7.07-14 5.65 2.08-7.93 10.75-10.72 18-11.34 12.54-1.54 25.74 1.29 37.81-3.23 1.95-1.19 6.68-2.87 5-5.62-1.49-2.18 3.88-1.33 4.4-3.87-.32-3.21 2.46-2.77 5.18-3 12.19-.53 24.22 2 36.38 2.48.91 5.92-5.65 10.07-10.94 8.25-2.53.41-6.32-5.81-5.57-1.29-.51 2.38-.16 5.51-2.32 7.1m-103.7-12.13c2.82 2.58 4.8-.48 7.43-1.61 8.85-3 16.57-8.36 24.18-13.67 4.61-3.81 8.6-8.76 14.79-10 12.08-3.65 24.92-3.21 37-6.58 9.24-12.64 24.92-17.15 38.05-24.41 2.95-.92 4.09-3.35 5-6a60.75 60.75 0 0119.93-19.71c3.82-2.09 8.38-3.3 12.71-2.34-.31 5.15-3.27 9.72-6.84 13.28 2.92-.06 5.43-1.91 8.38-1.8 1 5.29-4.7 8.06-7.74 11.35 1.7.39 8.18.88 4.65 2.58-4.51 3.12-9.65 5.27-13.8 8.9 3.83.69 4.27 1.5.37 2.89-2.11 1.43-6.17 1.93-6.56 4.72 2.89 1.78-1.34 3.55-3 4.12-3.12.73-6.4 2.09-2.25 4.46-1.57 2.37-4.94 2.87-7.68 2.64.83 2.68 2 5.69-1.45 6.87-7.81 5.91-17 10.2-26.8 11.19 12.27.94 24.9-1.34 35.39-8 1.38-1.64 8.64-3.39 4.58-4.77-1.91-.8-6-1.68-6.29-3.14 5.68-3.5 12.84-2.25 18.94-4.33.16-2-4.64-1.43-6.43-1.88-4.27-.35-4-1.44.1-1.85 5.21-1.38 11.11-1.65 15.49-5-3.57-1.66-8.06-.2-11.86-1.55 6.45-2.83 14.07-3.11 19.86-7.35 2.64-2.94-3.38-2-5.13-1.95-3.58.62-5.23-1.09-1.17-2.58 6.93-5.11 15.72-8.43 20.59-15.84 1.15-1.66 2.71-6.66-1-4.87-4.84 1.61-9.1 7.06-14.61 5.37 10.87-8.42 21.21-18 28.63-29.66.39-3.36-4.89-3.73-6.26-1.09-7 6.73-13.3 14.67-22.24 18.89 8.56-8.27 15.64-18.05 21.81-28.19 1.32-3 4.88-6.64 2.95-10-3.11-2.58-7-.22-8.62 2.86-5.43 7.09-9.55 15.36-16.53 21.13 6.11-11.66 12.44-24.07 12.59-37.52 0-2.77-.57-6.85-4.33-6.33-3 .53-2.28 5-3.51 7.25-2.7 9.19-4 19.14-9.52 27.18 1.25-7.46 3.43-15.25 1.75-22.79-.78-3.37-6.22-1.92-5.52 1.42C368 272 345.89 300.83 317 317.49A124.22 124.22 0 01274 332c-4.05.88-8.42.37-12.29 1.74-9.37 7.19-15 19.21-26.9 23-5.31 2.64-12.25 3.18-16 8.12a4.29 4.29 0 00-.39 2.06" fill="#fec50c"/><path d="M253.83 333.48c-1.75 3.17-2.78 6.82-5 9.67-6.77-6.16-16.59-6-25.18-6.37-7.09-.38-14.79-1-20.28-6.09-5.77-4.72-10.48-10.86-16.93-14.69-5.88-1.6-11.81-3.61-16.54-7.64-10.11-8.24-15.9-20.47-25.78-29a58.39 58.39 0 00-6.22-4.86c-2 .49-1.09 4.82-3.55 2.61-1.33-.95-4.67-1-5 .29 3 4 6 8.52 6.46 13.61-2.06.21-5.72-.43-6.74.33A42 42 0 00139.29 302c-1.91.31-5.67.14-6.41.91 4 3.23 8.2 6.52 13.38 7.35 1.06 1.4-1.55 4.09.64 5.29 1.27.52 5.47 1.39 2.58 2.83a2.36 2.36 0 001.29 4.39c1.61.82 5.21 1 5.49 2.44-1.42 1.45-5.85 3.16-2.08 4.52a26 26 0 0011.55 3.36c-2 1.7-4.5 2.66-6.57 4.25 9.27 5.44 19.55 9 29.71 12.46a93.09 93.09 0 0012.33 3.41c-12.18-.7-24-4.31-35.06-9.25-5.75-2.52-11.54-5-17.43-7.13 2.58-1.35 5.57-1.67 8.25-2.84-5.56-1.11-11.64-1.48-16.53-4.54.75-1.33 3.59-1.4 5.16-2.08 3-.71 4.79-1.57.62-1.82-4.2-1.14-9-.63-12.72-3.17.24-1.52 4.11-1 5.69-1.64 2-.34 4.2-.63 5.79-2-6.5-2.69-15-.78-20.09-6.52-1.17-2.19 3.65-.43 5-.79 3.49 0 7.23 1.11 10.55-.3-9.46-4.15-19.61-8.05-26.83-15.73-.8-1.24-3.2-4.62-1.26-5 5.62.74 9.69 6.87 15.7 5.92.8-1.08-3.49-2.84-4.57-4.38-8.76-7.52-17.27-15.68-23.41-25.53-.42-3.29 4.75-3.79 6.11-1.25 6.7 6.46 12.76 14 21.11 18.4 3 1.44-1.7-1.7-2.32-2.84-7.72-9-15.06-18.41-20.45-29-1-1.9-2.57-5.35.32-6.36 2.89-1.44 5.75.53 7.21 3 5.68 7.15 9.85 15.65 16.91 21.61-6-11.68-12.44-24-12.6-37.42.14-2.6.31-6.54 3.84-6.44 3-.45 2.5 3.35 3.47 5.16 2.93 9.88 4.2 20.56 10.07 29.28-1.3-7.32-3.21-14.87-1.94-22.31a2.88 2.88 0 014.84-1.71c1.45 3.56 1.76 7.95 3.08 11.75 7.53 25.76 24.44 48.41 46.47 63.62a122.47 122.47 0 0061.66 21.17c2 .17 4 .23 6 .35" fill="#fec50c"/><circle cx="225.93" cy="366.44" r="1.18" fill="#fec50c"/><circle cx="225.83" cy="366.25" r=".48" stroke="#00afca" stroke-miterlimit="2" stroke-width=".19" fill="#fec50c"/></svg>