<svg xmlns="http://www.w3.org/2000/svg" viewBox="0 0 30 30"><path fill="#fff" d="M0 0h30v30H0z"/><path d="M22.333 22.778l-.666-.445 2.666-4 .667.445-2.667 4zm-1-.667l-.666-.444 2.666-4 .667.444-2.667 4zm-1-.666L19.667 21l2.666-4 .667.445-2.667 4zM7.667 13L7 12.556l2.667-4 .666.444-2.666 4zm-1-.667L6 11.89l2.667-4 .666.444-2.666 4zm-1-.666L5 11.222l2.667-4 .666.445-2.666 4z"/><path fill="#fff" d="M20.408 20.475l3.698-1.54.154.37-3.698 1.54z"/><circle cx="15" cy="15" r="4.807" fill="#cd2e3a"/><path d="M11 12.333A2.404 2.404 0 1015 15a2.404 2.404 0 014 2.666 4.807 4.807 0 01-8-5.333z" fill="#0047a0"/><path d="M7.667 22.778l-2.667-4 .667-.445 2.666 4-.666.445zm1-.667l-2.667-4 .667-.444 2.666 4-.666.444zm1-.666l-2.667-4L7.667 17l2.666 4-.666.445zM22.333 13l-2.666-4 .666-.444 2.667 4-.667.444zm1-.667l-2.666-4 .666-.444 2.667 4-.667.444zm1-.666l-2.666-4 .666-.445 2.667 4-.667.445zM7.167 20.222l1-.666m12.5-8.334l1.166-.778m1-.666l1-.667"/><path d="M7.263 20.368l-.22-.334 1-.664.222.334-1.002.664zm13.523-8.966l-.221-.334 1.168-.775.222.334-1.169.775zm2.17-1.439l-.221-.334 1.002-.664.221.334-1.002.664z" fill="#fff"/></svg>