<svg xmlns="http://www.w3.org/2000/svg" viewBox="0 0 36 36"><g fill="#6ef770"><path d="M26.204 10.18c-.012-.012-.016-.028-.028-.04-.007-.008-.017-.01-.025-.017a11.308 11.308 0 00-16.246-.062c-.005.005-.013.007-.018.012-.009.009-.011.02-.02.03a11.303 11.303 0 00.001 15.795c.008.009.01.02.02.029.004.005.011.006.017.011A11.31 11.31 0 0018 29.348a11.31 11.31 0 007.98-3.29c.066-.035.134-.07.19-.125a.78.78 0 00.18-.274A11.291 11.291 0 0029.347 18c0-3.031-1.202-5.782-3.144-7.82zm-.642 14.005l-1.798-1.84c.348-.459.65-.958.884-1.5.288-.666.47-1.358.549-2.058h2.538a9.725 9.725 0 01-2.173 5.398zM8.265 18.787h2.673c.07.63.218 1.253.457 1.857.247.624.584 1.184.971 1.693l-1.892 1.892a9.727 9.727 0 01-2.209-5.442zm2.208-7.015l1.888 1.889a7.224 7.224 0 00-.88 1.494 7.214 7.214 0 00-.548 2.058H8.265a9.727 9.727 0 012.208-5.441zm12.96 7.015h.172a5.602 5.602 0 01-3.475 4.42 5.58 5.58 0 01-1.343.329v-.166a.787.787 0 00-1.574 0v.144a5.606 5.606 0 01-1.369-.375 5.568 5.568 0 01-2.986-3.075 5.588 5.588 0 01-.323-1.277h.418a.787.787 0 000-1.574h-.41c.071-.486.182-.97.383-1.433A5.565 5.565 0 0116 12.794a5.607 5.607 0 011.213-.316v.185a.786.786 0 101.574 0v-.212c.51.068 1.013.2 1.498.41a5.56 5.56 0 013.32 4.352h-.171a.787.787 0 000 1.574zm-.744-6.273a7.213 7.213 0 00-3.902-1.65V8.264a9.723 9.723 0 015.704 2.447l-1.802 1.802zm-5.476-1.632a7.188 7.188 0 00-1.793.449c-.73.29-1.391.694-1.976 1.186l-1.867-1.867a9.722 9.722 0 015.636-2.385v2.617zm-3.76 12.594a7.206 7.206 0 003.76 1.635v2.624a9.722 9.722 0 01-5.636-2.385l1.876-1.874zm5.334 1.661a7.126 7.126 0 003.892-1.648l1.784 1.824a9.722 9.722 0 01-5.676 2.422v-2.598zm6.405-7.924a7.179 7.179 0 00-.457-1.857 7.18 7.18 0 00-.964-1.7l1.813-1.811a9.723 9.723 0 012.15 5.368h-2.542zM15.568 5.16a.787.787 0 100-1.573.787.787 0 000 1.574z"/><path d="M18 0C8.074 0 0 8.074 0 18s8.074 18 18 18 18-8.074 18-18S27.926 0 18 0zm0 34.427c-9.058 0-16.427-7.37-16.427-16.427C1.573 8.942 8.943 1.573 18 1.573c9.057 0 16.427 7.37 16.427 16.427 0 9.057-7.37 16.427-16.427 16.427z"/><path d="M18.264 31.042c-7.59 0-13.312-5.694-13.312-13.244a.786.786 0 10-1.574 0c0 8.447 6.4 14.817 14.886 14.817a.787.787 0 000-1.573zM18 3.407a.786.786 0 100 1.573c7.588 0 13.311 5.693 13.311 13.243a.787.787 0 001.574 0c0-8.447-6.4-14.816-14.885-14.816zM19.967 17.213h-1.18v-1.081a.786.786 0 10-1.574 0v1.081h-1.18a.786.786 0 100 1.574h1.18v1.28a.787.787 0 001.574 0v-1.28h1.18a.787.787 0 000-1.574z"/></g></svg>