<svg xmlns="http://www.w3.org/2000/svg" viewBox="0 0 36 36"><g class="svg_tournament"><g class="svg_color_fill" fill="#e8ce3a"><path d="M2.007 13.369a.56.56 0 01.427.203c1.283 1.524 4.589 3.67 6.318 4.532a.457.457 0 01.256.413v4.002c0 .443.362.805.805.805h2.189a.809.809 0 00.722-.445l1.158-2.299c1.397.34 3.272.577 4.661.577 1.74 0 3.27-.17 4.655-.517l1.168 2.249a.808.808 0 00.717.435h2.184a.81.81 0 00.8-.672l.868-5.002a.912.912 0 01.236-.464c1.58-1.694 2.44-3.936 2.525-6.528l.93-.643a1.58 1.58 0 001.146 1.04 1.59 1.59 0 001.493-.422l.554-.552a.803.803 0 00-.001-1.138.812.812 0 00-1.145 0l-.512.563a1.575 1.575 0 00-.993-.999 1.586 1.586 0 00-1.402.18l-.202.14C30.625 3.874 24.854.05 17.873.05c-2.45 0-4.76.513-7.043 1.581C9.4.661 7.765.252 6.802.24c-.755-.007-1.216.17-1.494.537-.486.637-.18 1.58.823 3.402a.554.554 0 01-.111.673 7.707 7.707 0 00-1.513 1.975.385.385 0 01-.287.21c-.564.073-1.446.062-2.083.056l-.417-.004c-.22-.003-.727.076-1.102.624-.699 1.018-.752 3.483-.11 5.072.202.5 1.06.578 1.5.585zm-.101-4.674l.213.002c1.19.015 2.422.028 3.16-.283.186-.079.397-.299.482-.483a6.04 6.04 0 012.095-2.493.802.802 0 00.247-1.067c-.257-.443-.904-1.56-1.221-2.3a.157.157 0 01.158-.217c.904.095 2.53.594 3.69 1.77.31.313 1.775-.16 1.808-.357.033-.199-.242-.32-.372-.468a14.58 14.58 0 015.703-1.15c6.626 0 12.223 3.932 12.223 8.586 0 2.558-.812 4.63-2.415 6.159a.828.828 0 00-.249.455s-.36 3.74-.843 4.86c-.1.231-.861.207-1.005 0-.303-.432-1.244-2.394-1.244-2.394a.818.818 0 00-.972-.396c-1.396.42-2.973.624-4.82.624-1.462 0-3.59-.302-4.85-.687a.8.8 0 00-.957.394s-.694 2.039-1.238 2.46c-.173.133-.717.154-.87 0-.279-.278 0-4.03 0-4.03 0-.392-.256-.72-.643-.788-.852-.24-5.842-3.37-6.505-4.625-.3-.57-.935-.535-1.495-.503a9.149 9.149 0 00-.111.007c-.32-1.158-.2-2.617.03-3.076z"/><path d="M19.433 4.468c4.182 0 7.902 3.186 7.902 5.696 0 .445.363.805.81.805s.808-.36.808-.805c0-3.687-4.716-7.305-9.52-7.305a.807.807 0 00-.809.805c0 .444.362.804.81.804zM8.401 8.873h1.452c.447 0 .809-.36.809-.805a.807.807 0 00-.81-.805h-1.45a.807.807 0 00-.81.805c0 .444.362.805.81.805zM36.039 23.529c-.004-.044-.003-.088-.013-.131l-.001-.012c-.005-.019-.019-.032-.025-.05a.764.764 0 00-.05-.11c-.016-.032-.021-.069-.043-.1-.139-.202-1.117-1.962-4.38-2.494a.805.805 0 10-.264 1.588c1.13.186 1.895.577 2.417.961l-15.494 4.152-15.768-4.225c.522-.387 1.29-.784 2.429-.97a.805.805 0 10-.264-1.589c-3.266.537-4.264 2.365-4.366 2.499-.02.025-.025.057-.04.084a.767.767 0 00-.066.134c-.006.018-.02.032-.025.05v.005c-.012.042-.008.086-.012.129-.003.026-.016.048-.016.075-.003 1.498.37 2.35.987 3.484-.204.32-.327.697-.327 1.103a2.07 2.07 0 002.073 2.063c.265 0 .516-.054.749-.145 3.694 3.125 8.787 4.295 12.586 4.714a2.073 2.073 0 001.924 1.307A2.07 2.07 0 0019.9 34.9c3.902-.425 9.108-1.632 12.787-4.871a2.07 2.07 0 002.828-1.916c0-.437-.14-.841-.373-1.175.57-1.066.913-1.907.91-3.343 0-.024-.011-.043-.013-.066zm-2.597 2.52a2.07 2.07 0 00-2.073 2.063c0 .278.057.543.158.785-3.28 2.836-7.94 3.952-11.542 4.371a2.072 2.072 0 00-1.103-1.167v-3.097c0-.064-.023-.12-.037-.18l15.47-4.146c-.101.452-.283.887-.554 1.404a2.057 2.057 0 00-.32-.032zm-17.27 7.08c-3.513-.402-8.13-1.475-11.466-4.232.1-.242.158-.507.158-.785A2.07 2.07 0 002.39 26.09c-.294-.554-.488-1.008-.595-1.482l15.517 4.158a.78.78 0 00-.048.238v3.078a2.076 2.076 0 00-1.092 1.046zM2.336 28.111a.455.455 0 01.91 0 .455.455 0 01-.91 0zm15.714 6.33c-.25 0-.455-.204-.455-.454a.455.455 0 01.91 0c0 .25-.204.453-.455.453zm15.392-5.877c-.251 0-.455-.203-.455-.453a.455.455 0 01.91 0c0 .25-.204.453-.455.453z"/></g></g></svg>