<svg xmlns="http://www.w3.org/2000/svg" viewBox="0 0 62.4 34.56"><g style="isolation:isolate" fill="none" stroke-linecap="round" stroke-linejoin="round" stroke-width="1.88"><g style="mix-blend-mode:multiply" opacity=".75" stroke="#000"><path d="M51.07 32.62H11.33A10.4 10.4 0 01.94 22.23M11.33.94h39.74a10.4 10.4 0 0110.39 10.39"/><rect x="5.91" y="5.91" width="50.59" height="21.74" rx="7.12" ry="7.12"/><path d="M22.73 5.91v21.74M39.67 5.91v21.74"/><path data-name="&lt;Составной контур&gt;" d="M20.12 12.89a12 12 0 01-.59 1.2l-.33.57-.35.57-.25.39-.25.39-.56.87a14.57 14.57 0 00-.85 1.55l-1.9 4h-4.11a1.23 1.23 0 01-.43-.07.3.3 0 01-.2-.32V21.93a.29.29 0 000-.07 9.3 9.3 0 011.55-3.43c1.22-1.49 2.89-2.43 4.3-3.71.26-.23.51-.46.75-.71 0 0 .31-.34.21-.33-.31 0-7 .23-7 .23s.55-1.91.66-2.14a.61.61 0 01.21-.23.46.46 0 01.24-.07h.05a10.24 10.24 0 001.11 0h8v.45a3.56 3.56 0 01-.26.97zM36.14 12.89a12 12 0 01-.59 1.2l-.33.57-.35.57-.25.39-.25.39-.56.87a14.58 14.58 0 00-.81 1.56l-1.9 4h-4.15a1.23 1.23 0 01-.43-.07.3.3 0 01-.2-.32V21.93a.29.29 0 000-.07 9.3 9.3 0 011.55-3.43c1.22-1.49 2.89-2.43 4.3-3.71.26-.23.51-.46.75-.71 0 0 .31-.34.21-.33-.31 0-7 .23-7 .23s.55-1.91.66-2.14a.61.61 0 01.21-.23.46.46 0 01.24-.07h.05a10.24 10.24 0 001.11 0h8v.45a3.56 3.56 0 01-.26.97zM53.49 12.89a12 12 0 01-.59 1.2l-.33.57-.35.57-.25.39-.25.39-.56.87a14.59 14.59 0 00-.85 1.55l-1.9 4h-4.1a1.23 1.23 0 01-.43-.07.3.3 0 01-.2-.32V21.93a.29.29 0 000-.07 9.31 9.31 0 011.55-3.43c1.22-1.49 2.89-2.43 4.3-3.71.26-.23.51-.46.75-.71 0 0 .31-.34.21-.33-.31 0-7 .23-7 .23s.55-1.91.66-2.14a.61.61 0 01.21-.23.46.46 0 01.24-.07h.05a10.24 10.24 0 001.11 0h8v.45a3.56 3.56 0 01-.27.97z"/></g><path d="M51.07 33.62H11.33A10.4 10.4 0 01.94 23.23M11.33 1.94h39.74a10.4 10.4 0 0110.39 10.39" stroke="#17eada"/><rect x="5.91" y="6.91" width="50.59" height="21.74" rx="7.12" ry="7.12" stroke="#17eada"/><path stroke="#17eada" d="M22.73 6.91v21.74M39.67 6.91v21.74"/><path data-name="&lt;Составной контур&gt;" d="M20.12 13.89a12 12 0 01-.59 1.2l-.33.57-.35.57-.25.39-.25.39-.56.87a14.57 14.57 0 00-.85 1.55l-1.9 4h-4.11a1.23 1.23 0 01-.43-.07.3.3 0 01-.2-.32V22.93a.29.29 0 000-.07 9.3 9.3 0 011.55-3.43c1.22-1.49 2.89-2.43 4.3-3.71.26-.23.51-.46.75-.71 0 0 .31-.34.21-.33-.31 0-7 .23-7 .23s.55-1.91.66-2.14a.61.61 0 01.21-.23.46.46 0 01.24-.07h.05a10.24 10.24 0 001.11 0h8v.45a3.56 3.56 0 01-.26.97zM36.14 13.89a12 12 0 01-.59 1.2l-.33.57-.35.57-.25.39-.25.39-.56.87a14.58 14.58 0 00-.81 1.56l-1.9 4h-4.15a1.23 1.23 0 01-.43-.07.3.3 0 01-.2-.32V22.93a.29.29 0 000-.07 9.3 9.3 0 011.55-3.43c1.22-1.49 2.89-2.43 4.3-3.71.26-.23.51-.46.75-.71 0 0 .31-.34.21-.33-.31 0-7 .23-7 .23s.55-1.91.66-2.14a.61.61 0 01.21-.23.46.46 0 01.24-.07h.05a10.24 10.24 0 001.11 0h8v.45a3.56 3.56 0 01-.26.97zM53.49 13.89a12 12 0 01-.59 1.2l-.33.57-.35.57-.25.39-.25.39-.56.87a14.59 14.59 0 00-.85 1.55l-1.9 4h-4.1a1.23 1.23 0 01-.43-.07.3.3 0 01-.2-.32V22.93a.29.29 0 000-.07 9.31 9.31 0 011.55-3.43c1.22-1.49 2.89-2.43 4.3-3.71.26-.23.51-.46.75-.71 0 0 .31-.34.21-.33-.31 0-7 .23-7 .23s.55-1.91.66-2.14a.61.61 0 01.21-.23.46.46 0 01.24-.07h.05a10.24 10.24 0 001.11 0h8v.45a3.56 3.56 0 01-.27.97z" stroke="#17eada"/></g></svg>