<svg xmlns="http://www.w3.org/2000/svg" viewBox="0 0 54.34 43.72"><g stroke-width="1.75" fill="none" stroke="#de593e" stroke-linecap="round" stroke-linejoin="round"><path d="M33 41a63.48 63.48 0 01.41-7.76c.44-3-.42-6.87-5.11-7.15S20 25 19.58 21.14M1.38 41A63.48 63.48 0 001 33.22c-.44-3 .55-6.06 5.11-7.15M22.48 14.42a20.88 20.88 0 01-1.42 4.66c-.74 1.27-3.51 4.12-4.52 4s-5.66-2.93-6-5.14c-.24-1.57-.34-3.5-.34-3.5"/><path d="M22.48 20.14a7.8 7.8 0 002.29-2.22c1-1.49 1.79-4.9 1.78-7.89A8 8 0 0022.88 3 10.18 10.18 0 0018 1.52a11 11 0 012.77 4.66c.47 4.64-5.83 5.77-9.38 6a6 6 0 00-2.58 1M21.26 8.44a11 11 0 002.5 4M6.1 19.16c-2.9 5.27 4 9.23 5.33 14.92 1.67-2.46 4-5.88 1.75-10.08M28.27 26.53a9.9 9.9 0 01-.44 4.16c-.74 2.77 1.08 3.35 1.08 6.69 0 6.66-7.84 6.12-9.38 3.5M16 30.59a5 5 0 004.72-1.07 5.42 5.42 0 001.38-4.65"/><path d="M8.92 23.07c-.4-4.93-5.43-5.82-3.12-14.75S16.94 1 16.94 1M5.89 26.53a9.9 9.9 0 00.44 4.16c.74 2.77-1.08 3.35-1.08 6.69 0 6.66 7.84 6.12 9.38 3.5M7.07 42.18l-.69.66M27.45 42.18l.69.66"/></g><path data-name="&lt;Составной контур&gt;" d="M38.89 31.93v-1a2.86 2.86 0 01-1.5-.43l.24-.66a2.62 2.62 0 001.41.42c.7 0 1.17-.4 1.17-1s-.38-.87-1.11-1.17c-1-.39-1.62-.84-1.62-1.7A1.61 1.61 0 0139 24.86v-1h.61v1a2.62 2.62 0 011.28.34l-.25.65a2.37 2.37 0 00-1.24-.33c-.76 0-1 .45-1 .84s.36.77 1.22 1.12c1 .41 1.52.92 1.52 1.8a1.71 1.71 0 01-1.55 1.67v1z" fill="none" stroke="#de593e" stroke-linecap="round" stroke-linejoin="round"/><path d="M35 14.29l1 2.85c.23.69-3.72 2.81-4.17 2.24L30 17M48.54 17.13l-2 2.28c-.46.56-4.37-1.63-4.12-2.31l1-2.8M53.2 30.58l-1.94-.32-1-.17c-.72-.12-.74-4.6 0-4.73l2.92-.52M43.82 41.36l-1-2.82c-.25-.68 3.63-2.92 4.09-2.37l1.9 2.28" stroke-width="1.75" fill="none" stroke="#de593e" stroke-linecap="round" stroke-linejoin="round"/><circle cx="39.22" cy="16.23" r=".58" fill="#de593e"/><circle cx="29.09" cy="22.13" r=".58" transform="rotate(-60.38 29.087 22.133)" fill="#de593e"/><circle cx="39.22" cy="39.55" r=".58" fill="#de593e"/><circle cx="49.27" cy="33.8" r=".58" transform="rotate(-59.54 49.275 33.8)" fill="#de593e"/><path d="M37.39 42a14.24 14.24 0 10-11.2-19.85" stroke-width="1.75" fill="none" stroke="#de593e" stroke-linecap="round" stroke-linejoin="round"/><circle cx="49.38" cy="22.17" r=".58" transform="rotate(-29.42 49.372 22.163)" fill="#de593e"/><path stroke-width="1.75" fill="none" stroke="#de593e" stroke-linecap="round" stroke-linejoin="round" d="M40.66 36.18v-1.8M38.21 36.27v-1.89M40.66 21.3v-1.61M38.21 21.39v-1.7M37.39 36.11a8.42 8.42 0 10-4.72-13.49M47.46 26.54h-1.75M47.57 29.05h-1.86"/></svg>