<svg xmlns="http://www.w3.org/2000/svg" viewBox="0 0 23.36 13.33"><path d="M11.43 13.27h1.4a1.18 1.18 0 00.64-.28 1 1 0 00.19-.61s0-1.87.84-2.15 2 1.81 3.13 2.61a2.21 2.21 0 001.55.47h3.12s1.63-.1.86-1.38a10.43 10.43 0 00-2.32-2.68c-2-1.82-1.69-1.52.66-4.66 1.44-1.91 2-3.08 1.83-3.58S22.1.61 22.1.61h-3.51a.8.8 0 00-.45.08 1 1 0 00-.31.38 20.38 20.38 0 01-1.3 2.74C15 6.48 14.34 6.63 14.08 6.46c-.59-.38-.45-1.54-.45-2.37 0-2.57.39-3.65-.76-3.93A6 6 0 0011.24 0a7.58 7.58 0 00-2.92.3c-.4.2-.71.63-.52.66a1.58 1.58 0 011 .52 3.39 3.39 0 01.35 1.59s.21 3-.48 3.41c-.47.26-1.12-.27-2.52-2.68a22.42 22.42 0 01-1.22-2.6 1 1 0 00-.29-.39A1.45 1.45 0 004.1.59L.76.61S.26.62.08.84s0 .59 0 .59 2.61 6.11 5.57 9.2a8 8 0 005.8 2.64z" fill="#fff"/></svg>