<svg width="77" height="44" fill="none" xmlns="http://www.w3.org/2000/svg"><g clip-path="url(#clip0_3080_229875)"><mask id="a" style="mask-type:luminance" maskUnits="userSpaceOnUse" x="0" y="0" width="50" height="44"><path d="M50 0H0v44h50V0z" fill="#fff"/></mask><g mask="url(#a)"><path fill-rule="evenodd" clip-rule="evenodd" d="M38.661 18.876c0 1.317-4.614 2.42-10.799 2.7l.006.001c-.175.015-1.078.07-3.095.07-1.602 0-2.741-.05-3.14-.07-3.098-.14-5.803-.484-7.735-.96-1.931-.477-3.088-1.082-3.088-1.741 0-1.32 4.625-2.422 10.822-2.705v4.308c.406.029 1.566.1 3.17.1 1.924 0 2.888-.083 3.061-.099v-4.306c6.183.282 10.798 1.384 10.798 2.702zm10.7 1.152L24.996 43.893a.366.366 0 01-.516 0L.116 20.027a.38.38 0 01-.08-.438L9.06.216a.37.37 0 01.136-.158A.358.358 0 019.393 0h30.692c.142 0 .272.085.332.217l9.021 19.373a.385.385 0 01-.077.438zm-9.232-.852c0-1.7-5.259-3.118-12.261-3.449v-3.854h8.63V5.995H13.002v5.878h8.63v3.854c-7.014.33-12.288 1.749-12.288 3.451 0 1.703 5.275 3.121 12.287 3.452v12.353h6.236V22.625c6.997-.33 12.262-1.749 12.262-3.449z" fill="#4DDBAF"/></g><path d="M68.498 8v19.34l8.498-5.08L68.498 8z" fill="#B0B0B0"/><path d="M68.497 8L60 22.26l8.497 5.08V8zm0 27.999v-7.033L60 23.889 68.497 36z" fill="#fff"/><path d="M68.498 27.34l8.498-5.08-8.498-3.905v8.985z" fill="#6C6C6C"/><path d="M68.497 28.967V36L77 23.89l-8.503 5.077zM60 22.261l8.497 5.08v-8.986L60 22.26z" fill="#B7B7B5"/></g><defs><clipPath id="clip0_3080_229875"><path fill="#fff" d="M0 0h77v44H0z"/></clipPath></defs></svg>