<svg width="65" height="44" fill="none" xmlns="http://www.w3.org/2000/svg"><g clip-path="url(#clip0_9022_35283)"><path d="M60.93 0H4.057A4.068 4.068 0 00-.007 4.074v35.852A4.068 4.068 0 004.056 44H60.93a4.068 4.068 0 004.062-4.074V4.074A4.068 4.068 0 0060.931 0z" fill="url(#paint0_linear_9022_35283)"/><path d="M60.93.407H4.055A3.661 3.661 0 00.398 4.073v35.852a3.661 3.661 0 003.657 3.667H60.93a3.661 3.661 0 003.656-3.667V4.073A3.661 3.661 0 0060.93.407z" stroke="#fff" stroke-opacity=".2" stroke-width=".8"/><path d="M56.07 37.3c-1.103-.376-2.64-.563-4.614-.563-3.502 0-6.853.486-10.055 1.458a1.806 1.806 0 01-.566.1c-.174 0-.372-.047-.595-.144-.212-.086-.42-.27-.623-.548-.416-.559-.624-1.295-.624-2.21 0-.788.14-1.347.42-1.674.28-.327.726-.664 1.335-1.01.61-.357 1.335-.746 2.177-1.17.841-.423 1.76-.876 2.756-1.357 1.006-.49 2.012-1 3.018-1.53a56.075 56.075 0 002.916-1.675 21.855 21.855 0 002.51-1.79c1.606-1.338 2.409-2.594 2.409-3.768 0-.934-.585-1.506-1.756-1.718a6.535 6.535 0 00-1.146-.087c-.435 0-.948.058-1.538.174-.59.115-1.16.27-1.712.462a11.52 11.52 0 00-1.523.664c-.465.24-.87.49-1.219.75-.745.568-1.117 1.107-1.117 1.617 0 .5.324.92.972 1.256-.242.347-.464.578-.667.693-.204.106-.373.16-.508.16-.136 0-.363-.035-.682-.102a4.647 4.647 0 01-.929-.332c-.725-.375-1.088-.799-1.088-1.27 0-.482.164-.953.493-1.415.339-.462.789-.905 1.35-1.328.56-.424 1.209-.819 1.944-1.184a18.912 18.912 0 012.321-.953c1.722-.587 3.328-.88 4.817-.88 1.557 0 2.767.39 3.627 1.169.755.693 1.132 1.588 1.132 2.685 0 2.512-1.983 5.125-5.949 7.84-1.74 1.202-3.719 2.323-5.934 3.363.948-.096 1.76-.144 2.438-.144.687 0 1.252.01 1.697.028.445.02.895.053 1.35.102.938.096 1.721.25 2.35.462.629.202 1.06.442 1.291.721.252.318.378.65.378.996 0 .713-.286 1.43-.856 2.152z" fill="#fff"/><path d="M7.284 18.743c1.011 0 1.596-.609 1.596-1.684V14.82h2.055c2.799 0 4.724-1.773 4.724-4.487 0-2.734-1.83-4.506-4.532-4.506H7.284c-1.01 0-1.603.617-1.603 1.693v9.539c0 1.074.593 1.683 1.603 1.683zm1.596-6.356V8.305h1.403c1.342 0 2.144.715 2.144 2.037 0 1.331-.802 2.045-2.161 2.045H8.879h.001zm9.56 6.356h6.973c.81 0 1.282-.502 1.282-1.243 0-.759-.472-1.243-1.282-1.243h-4.349v-.062l2.5-2.31c1.997-1.825 2.816-2.76 2.816-4.389 0-2.249-1.882-3.79-4.749-3.79-2.292 0-3.966 1.119-4.515 2.582-.096.23-.13.458-.13.706 0 .793.496 1.278 1.324 1.278.645 0 1.02-.255 1.42-.882.462-.846 1.029-1.252 1.857-1.252 1.002 0 1.7.652 1.7 1.57 0 .828-.401 1.41-1.875 2.767l-3.59 3.297c-.628.547-.88.978-.88 1.586 0 .803.47 1.385 1.499 1.385zm11.365 0c1.012 0 1.596-.609 1.596-1.684V14.82h2.057c2.797 0 4.723-1.773 4.723-4.487 0-2.734-1.83-4.506-4.531-4.506h-3.844c-1.01 0-1.603.617-1.603 1.693v9.539c0 1.075.591 1.683 1.603 1.683h-.001zm1.596-6.356V8.305h1.402c1.344 0 2.146.715 2.146 2.037 0 1.331-.802 2.045-2.163 2.045h-1.385z" fill="#fff" fill-opacity=".8"/></g><defs><linearGradient id="paint0_linear_9022_35283" x1="-.007" y1="0" x2="65.109" y2="43.828" gradientUnits="userSpaceOnUse"><stop stop-color="#AC6BFF"/><stop offset="1" stop-color="#F22929"/></linearGradient><clipPath id="clip0_9022_35283"><path fill="#fff" d="M0 0h65v44H0z"/></clipPath></defs></svg>