<svg width="55" height="55" fill="none" xmlns="http://www.w3.org/2000/svg"><g clip-path="url(#clip0_8999_34791)"><path d="M13.383 50.294L51.211 40.09c.306-.061.611.244.428.55C46.994 49.194 37.95 55 27.5 55a27.551 27.551 0 01-14.239-3.972c-.305-.184-.183-.611.122-.734zM41.8 4.034C37.644 1.466 32.756 0 27.5 0 17.111 0 8.006 5.806 3.361 14.361c-.183.306.122.672.428.55l37.95-10.205c.305-.062.367-.55.061-.673zm8.556 8.188c-.123-.183-.306-.244-.49-.183L.429 25.36c-.184.061-.306.245-.367.428C0 26.339 0 26.95 0 27.56c0 5.683 1.711 11 4.706 15.339.122.183.305.244.488.183l49.378-13.322c.184-.061.306-.244.367-.428.061-.61.061-1.222.061-1.833 0-5.683-1.711-10.939-4.644-15.278z" fill="#FF6400"/></g><defs><clipPath id="clip0_8999_34791"><path fill="#fff" d="M0 0h55v55H0z"/></clipPath></defs></svg>