<svg width="82" height="28" fill="none" xmlns="http://www.w3.org/2000/svg"><g clip-path="url(#clip0_8999_35071)"><mask id="a" style="mask-type:luminance" maskUnits="userSpaceOnUse" x="0" y="0" width="82" height="28"><path d="M0 0h82v28H0V0z" fill="#fff"/></mask><g mask="url(#a)"><path d="M58.9 6.727A3.364 3.364 0 1058.905 0a3.364 3.364 0 00-.003 6.728zM33.124 8.543c-.151.381-1.244 3.468-3.888 6.667V1.53l-7.044 1.393v24.795h7.044v-7.665c2.04 3.06 3.048 7.665 3.048 7.665h8.437c-.835-3.468-4.486-9.864-4.486-9.864 3.277-4.153 4.716-8.578 4.945-9.311h-8.056zm18.519-.259c-6.31.202-9.512 3.032-9.512 8.658v10.776h6.883V18.93c0-3.369.441-4.813 4.44-4.95V8.383c-.674-.143-1.811-.099-1.811-.099zm-41.264 2.989c-.863-.057-2.86-.186-2.86-1.983 0-2.17 2.875-2.17 3.954-2.17 1.897 0 4.353.56 6.107 1.085 0 0 .979.345 1.81.698l.079.021v-5.94l-.107-.032c-2.07-.724-4.477-1.421-8.94-1.421C2.726 1.53 0 6.012 0 9.85c0 2.214.948 7.422 9.761 8.023.747.046 2.73.16 2.73 2.018 0 1.534-1.623 2.438-4.353 2.438-2.992 0-5.894-.763-7.657-1.486v6.119C3.12 27.654 6.095 28 9.58 28c7.524 0 10.894-4.24 10.894-8.443 0-4.765-3.771-7.86-10.097-8.284zm45.11 16.445h6.828V8.564H55.49v19.154zM75.173 2.752v24.966H82V1.53l-6.828 1.22zm-9.964 0L72.03 1.53v26.187h-6.822V2.752z" fill="#811963"/></g></g><defs><clipPath id="clip0_8999_35071"><path fill="#fff" d="M0 0h82v28H0z"/></clipPath></defs></svg>