<svg width="55" height="55" fill="none" xmlns="http://www.w3.org/2000/svg"><g clip-path="url(#clip0_3080_229957)"><mask id="a" style="mask-type:luminance" maskUnits="userSpaceOnUse" x="0" y="0" width="55" height="55"><path d="M55 0H0v55h55V0z" fill="#fff"/></mask><g mask="url(#a)"><path d="M54.254 16.568c-2.714-2.377-6.468-6.015-9.522-8.592l-.183-.12a3.504 3.504 0 00-1.002-.534C36.177 6.016 1.882-.074 1.212.001 1.025.025.845.09.685.19L.516.317c-.21.202-.37.449-.47.722L0 1.153v.704c3.86 10.217 19.106 43.69 22.108 51.546.18.53.524 1.546 1.166 1.597h.145c.344 0 1.81-1.84 1.81-1.84s26.185-30.18 28.835-33.394c.344-.397.645-.821.902-1.273a1.973 1.973 0 00-.09-1.051 2.074 2.074 0 00-.622-.87v-.003zm-22.307 3.517l11.175-8.81 6.555 5.74-17.732 3.07h.002zm-4.341-.575L8.364 4.52 39.495 9.98l-11.888 9.53h-.001zm1.734 3.926l19.696-3.017L26.519 46.2l2.821-22.764v.001zM5.75 6.018l20.248 16.325-2.93 23.875L5.75 6.016v.002z" fill="#FF060A"/></g></g><defs><clipPath id="clip0_3080_229957"><path fill="#fff" d="M0 0h55v55H0z"/></clipPath></defs></svg>