<svg width="53" height="55" fill="none" xmlns="http://www.w3.org/2000/svg"><g clip-path="url(#clip0_8999_34793)" fill="#F49600"><path d="M42.91 38.314c-.094-.403-.407-1.255-.94-1.456-.531-.202-.562.418-.437.82.142.675.479 1.294.97 1.782.281.17.61-.217.406-1.146zM38.733 39.29a1.826 1.826 0 00-.891-.712H37.623a1.294 1.294 0 00-.939.17 1.539 1.539 0 00-.203 2.107c.216.322.527.571.891.713h.172a1.231 1.231 0 00.939-.17 1.538 1.538 0 00.25-2.107z"/><path d="M42.237 45.038c1.089.33 2.138.777 3.129 1.332a17.501 17.501 0 017.086 6.988c.673 1.347.485 1.549.407 1.549a.253.253 0 01-.304-.046.248.248 0 01-.056-.094 6.313 6.313 0 00-.954-1.549 20.46 20.46 0 00-9.24-6.103 20.635 20.635 0 00-11.096-.42c-7.916 2.48-21.698-.263-27.58-9.295C-3.489 26.617.156 11.68 11.811 4.198 23.465-3.285 38.717-.45 45.882 10.395a23.542 23.542 0 013.593 14.089 23.592 23.592 0 01-5.376 13.52 8.602 8.602 0 00-1.565-3.64l-.297-.28A9.024 9.024 0 0041.19 33c.156-.388.297-.775.422-1.193.79-2.928.92-5.992.379-8.975a20.53 20.53 0 00-3.507-8.284C32.476 5.7 21.275 2.246 13.907 7.158c-7.368 4.91-9.214 15.988-3.723 25.145a21.212 21.212 0 007.353 6.74 21.45 21.45 0 009.651 2.664 7.324 7.324 0 01-.407-3.904c0 .247.532.96.642 1.13a9.04 9.04 0 002.3 2.386 13.598 13.598 0 005.506 2.386 49.85 49.85 0 017.008 1.333z"/><path d="M41.252 33a7.832 7.832 0 00-2.636-1.68 7.893 7.893 0 00-3.09-.52 6.695 6.695 0 013.23-.187 6.663 6.663 0 012.934 1.349"/></g><defs><clipPath id="clip0_8999_34793"><path fill="#fff" d="M0 0h53v55H0z"/></clipPath></defs></svg>