<svg width="85" height="23" fill="none" xmlns="http://www.w3.org/2000/svg"><g clip-path="url(#clip0_8999_35067)"><mask id="a" style="mask-type:luminance" maskUnits="userSpaceOnUse" x="0" y="0" width="85" height="23"><path d="M85 0H0v23h85V0z" fill="#fff"/></mask><g mask="url(#a)"><path d="M39.326.094h-1.52c-1.858 0-3.64.73-4.957 2.031a6.932 6.932 0 00-2.065 4.908V22.98s4.2.25 4.2-1.515v-6.803c.696 1.535 1.982 2.484 4.342 2.484a7.09 7.09 0 004.991-2.049 6.967 6.967 0 002.067-4.948V7.091c0-.919-.182-1.829-.537-2.678a6.995 6.995 0 00-1.53-2.27 7.064 7.064 0 00-2.29-1.517 7.112 7.112 0 00-2.7-.532zm2.858 9.914c0 .946-.379 1.854-1.054 2.523a3.616 3.616 0 01-2.546 1.045c-.954 0-1.87-.376-2.545-1.045a3.553 3.553 0 01-1.055-2.524V7.43c0-.947.38-1.854 1.055-2.524a3.616 3.616 0 012.545-1.045c.955 0 1.87.376 2.546 1.045a3.554 3.554 0 011.054 2.524v2.578zM70.804.505v4.346h-1.22c-1.988 0-3.6 1.004-3.6 2.974v2.578a3.623 3.623 0 000 .442v5.968h-4.186V7.452c0-.143-.01-.286 0-.429a6.923 6.923 0 012.2-4.636 7.042 7.042 0 014.808-1.88h1.52c.16 0 .32-.012.478 0zM8.526.094h-1.52a7.053 7.053 0 00-4.965 2.039A6.931 6.931 0 00-.016 7.055V23s4.2.25 4.2-1.515v-6.824c.696 1.535 1.982 2.484 4.342 2.484a7.089 7.089 0 004.991-2.049 6.966 6.966 0 002.067-4.948V7.091c0-.919-.182-1.829-.537-2.678a6.994 6.994 0 00-1.53-2.27 7.062 7.062 0 00-2.29-1.517 7.112 7.112 0 00-2.7-.532zm2.858 9.914a3.54 3.54 0 01-1.054 2.523 3.602 3.602 0 01-2.546 1.045 3.626 3.626 0 01-2.545-1.045 3.567 3.567 0 01-1.055-2.524V7.43A3.543 3.543 0 015.24 4.906a3.602 3.602 0 012.545-1.045 3.627 3.627 0 012.546 1.045 3.566 3.566 0 011.054 2.524v2.578zm13.8-9.914H21.73c-1.24 0-2.437.444-3.373 1.25a5.089 5.089 0 00-1.72 3.136h4.147s.6-1.214 2.6-1.214 2.6.793 2.6 1.785c0 2.482-9.088.55-9.76 6.07-.027.223-.04.447-.04.67 0 3.57 1.94 5.354 4.334 5.354h3.394c.798 0 1.587-.155 2.324-.458a6.078 6.078 0 001.97-1.305 5.977 5.977 0 001.778-4.257V4.24c0-2.29-2.49-4.146-4.8-4.146zm.894 10.508s-.094 3.173-3.694 3.173c0 0-2.308.198-2.308-1.983 0-.595.108-1.784 2.708-2.181s3.294-.991 3.294-.991v1.982zM55.784.094H52.33c-1.24 0-2.437.444-3.373 1.25a5.088 5.088 0 00-1.72 3.136h4.147s.6-1.214 2.6-1.214 2.6.793 2.6 1.785c0 2.482-9.088.55-9.76 6.07l-.04.671c0 3.569 1.94 5.353 4.334 5.353h3.394a6.12 6.12 0 002.324-.458 6.078 6.078 0 001.97-1.305 5.977 5.977 0 001.778-4.257V4.24c0-2.29-2.49-4.146-4.8-4.146zm.894 10.508s-.094 3.173-3.694 3.173c0 0-2.308.198-2.308-1.983 0-.595.108-1.784 2.708-2.181s3.294-.991 3.294-.991v1.982zM80.184.094H76.73c-1.24 0-2.437.444-3.373 1.25a5.088 5.088 0 00-1.72 3.136h4.147s.6-1.214 2.6-1.214 2.6.793 2.6 1.785c0 2.482-9.088.55-9.76 6.07l-.04.671c0 3.569 1.94 5.353 4.334 5.353h3.394a6.12 6.12 0 002.324-.458 6.078 6.078 0 001.97-1.305 5.977 5.977 0 001.778-4.257V4.24c0-2.29-2.49-4.146-4.8-4.146zm.894 10.508s-.094 3.173-3.694 3.173c0 0-2.308.198-2.308-1.983 0-.595.108-1.784 2.708-2.181s3.294-.991 3.294-.991v1.982z" fill="url(#paint0_linear_8999_35067)"/></g></g><defs><linearGradient id="paint0_linear_8999_35067" x1=".176" y1="11.553" x2="83.789" y2="11.553" gradientUnits="userSpaceOnUse"><stop stop-color="#DC3D4E"/><stop offset="1" stop-color="#931C80"/></linearGradient><clipPath id="clip0_8999_35067"><path fill="#fff" d="M0 0h85v23H0z"/></clipPath></defs></svg>