<svg width="63" height="55" fill="none" xmlns="http://www.w3.org/2000/svg"><g clip-path="url(#clip0_3080_229588)"><mask id="a" style="mask-type:luminance" maskUnits="userSpaceOnUse" x="0" y="0" width="42" height="55"><path d="M42 0H0v55h42V0z" fill="#fff"/></mask><g mask="url(#a)"><path d="M0 0h42v55H0V0z" fill="#111922"/><path d="M.699 27.896H41.35v26.44H.7v-26.44z" fill="#fff"/><path d="M1.373 50.018h39.304v3.602H1.373v-3.602z" fill="#F7B600"/><path d="M1.373 28.585h39.304v3.602H1.373v-3.602zm15.722 7.587l-4.068 9.912h-2.645l-1.997-7.919c-.125-.485-.225-.664-.599-.868a10.835 10.835 0 00-2.47-.843l.05-.282h4.267c.28-.002.552.1.763.288.212.188.349.45.385.734l1.048 5.748 2.595-6.744h2.67v-.026zm10.38 6.668c0-2.606-3.543-2.759-3.518-3.934 0-.358.35-.741 1.073-.843a4.76 4.76 0 012.47.434l.45-2.095a6.439 6.439 0 00-2.346-.434c-2.47 0-4.217 1.354-4.242 3.27-.025 1.43 1.248 2.222 2.196 2.708.948.485 1.298.792 1.298 1.226 0 .664-.774.97-1.498.97a4.962 4.962 0 01-2.57-.638l-.45 2.172c.575.28 1.673.51 2.796.536 2.595.025 4.317-1.303 4.342-3.372zm6.54 3.244h2.32l-2.021-9.912h-2.146a1.13 1.13 0 00-.643.191c-.191.127-.341.31-.43.525l-3.769 9.196h2.62l.525-1.481h3.219l.324 1.481zm-2.796-3.525l1.323-3.73.749 3.73h-2.072zm-10.556-6.386l-2.071 9.911h-2.496l2.072-9.912h2.495z" fill="#1A1F71"/><path d="M11.729 24.933V23.4a.91.91 0 00-.244-.703.87.87 0 00-.68-.268.964.964 0 00-.478.106.99.99 0 00-.37.328.883.883 0 00-.34-.33.857.857 0 00-.459-.104.831.831 0 00-.406.086.854.854 0 00-.317.272v-.307H7.96v2.453h.475v-1.405a.585.585 0 01.151-.465.558.558 0 01.448-.174c.349 0 .549.23.549.639v1.405h.474v-1.405a.583.583 0 01.152-.465.558.558 0 01.447-.174c.349 0 .549.23.549.639v1.405h.524zm7.786-2.453h-.874v-.74h-.474v.74h-.499v.434h.5v1.15c0 .562.199.894.798.894.227-.005.45-.066.649-.179l-.15-.434a.807.807 0 01-.45.128.343.343 0 01-.283-.112.36.36 0 01-.09-.297v-1.15h.873v-.434zm4.442-.05a.736.736 0 00-.649.357v-.307h-.474v2.453h.474v-1.38c0-.409.2-.664.524-.664.11.004.219.022.325.051l.15-.46a.834.834 0 00-.35-.05zm-6.713.255a1.681 1.681 0 00-.973-.256c-.6 0-.974.281-.974.767 0 .408.275.638.799.715l.25.025c.274.051.449.154.449.281 0 .18-.2.307-.574.307a1.297 1.297 0 01-.799-.256l-.25.384c.304.205.66.312 1.024.306.698 0 1.073-.332 1.073-.792s-.3-.638-.824-.715l-.25-.026c-.224-.025-.424-.102-.424-.255 0-.153.2-.307.475-.307.26.012.516.082.748.205l.25-.383zm7.237 1.021a1.232 1.232 0 00.343.927 1.154 1.154 0 00.905.35c.307.017.609-.083.848-.28l-.25-.383a.984.984 0 01-.623.23.794.794 0 01-.525-.262.83.83 0 010-1.113.794.794 0 01.525-.26.984.984 0 01.624.23l.25-.384a1.229 1.229 0 00-.85-.28 1.104 1.104 0 00-.903.314 1.181 1.181 0 00-.344.911zm-3.344-1.277c-.699 0-1.173.511-1.173 1.277a1.225 1.225 0 00.333.919 1.172 1.172 0 00.89.359c.352.007.696-.11.973-.332l-.25-.358c-.2.159-.445.248-.698.255a.691.691 0 01-.485-.173.724.724 0 01-.239-.465h1.772v-.205c0-.766-.45-1.277-1.123-1.277zm-.025.434a.583.583 0 01.44.17.612.612 0 01.184.444h-1.298a.718.718 0 01.227-.434.688.688 0 01.447-.18zm-6.463.843V22.48h-.475v.307a.9.9 0 00-.774-.358c-.33 0-.648.135-.882.374-.234.24-.365.565-.365.903 0 .34.131.664.365.904.234.24.552.374.883.374a.9.9 0 00.43-.082.921.921 0 00.343-.276v.307h.475v-1.227zm-1.922 0a.779.779 0 01.15-.41.733.733 0 011.143-.062.774.774 0 01.141.827.762.762 0 01-.275.336.737.737 0 01-.41.127.721.721 0 01-.554-.237.755.755 0 01-.195-.58zm18.442-1.277a.736.736 0 00-.649.358v-.307h-.474v2.453h.474v-1.38c0-.409.2-.664.524-.664.11.004.219.022.325.051l.15-.46a.834.834 0 00-.35-.05zm3.843 2.146a.147.147 0 01.1.026c.025 0 .05.025.075.05.025.026.05.052.05.077 0 .026.025.051.025.102a.156.156 0 01-.025.103c-.025.025-.025.05-.05.076-.025.026-.05.051-.075.051-.025 0-.05.026-.1.026a.147.147 0 01-.1-.026c-.025-.025-.05-.025-.075-.05-.025-.026-.05-.052-.05-.077 0-.026-.024-.052-.024-.103a.157.157 0 01.025-.102c.025-.025.025-.05.05-.076.024-.026.05-.052.074-.052.03-.02.065-.029.1-.025zm0 .434a.09.09 0 00.075-.025.056.056 0 00.05-.051l.05-.052c0-.025.025-.05.025-.076a.097.097 0 00-.025-.077.054.054 0 00-.015-.035.052.052 0 00-.035-.016l-.05-.051c-.025 0-.05-.026-.075-.026a.09.09 0 00-.075.026.055.055 0 00-.034.016.057.057 0 00-.016.035l-.05.051c0 .026-.025.051-.025.077a.097.097 0 00.026.076c0 .014.005.026.015.036.009.01.021.015.034.016l.05.05a.09.09 0 00.075.026zm.025-.306a.092.092 0 01.075.026c.025.025.025.025.025.05 0 .026 0 .026-.025.051a.087.087 0 01-.05.026l.075.077h-.05l-.075-.077h-.025v.077h-.05v-.23h.1zm-.075.05v.052h.075v-.051h-.075zm-5.64-1.047V22.48h-.474v.307a.9.9 0 00-.774-.358c-.33 0-.648.135-.882.374-.234.24-.365.565-.365.903 0 .34.131.664.365.904.234.24.552.374.883.374a.9.9 0 00.773-.358v.307h.474v-1.227zm-1.921 0a.779.779 0 01.15-.41.733.733 0 011.143-.062.774.774 0 01.141.827.762.762 0 01-.275.336.737.737 0 01-.41.127.721.721 0 01-.554-.237.755.755 0 01-.195-.58zm6.738 0V21.51h-.475v1.278a.9.9 0 00-.774-.358c-.33 0-.647.135-.881.374-.234.24-.366.565-.366.903 0 .34.132.664.366.904.234.24.551.374.882.374a.9.9 0 00.773-.358v.307h.475v-1.227zm-1.922 0a.779.779 0 01.15-.41.733.733 0 011.144-.062.774.774 0 01.14.827.762.762 0 01-.275.336.737.737 0 01-.41.127.721.721 0 01-.553-.237.755.755 0 01-.196-.58z" fill="#fff"/><path d="M16.695 3.883h8.66V18.34h-8.66V3.883z" fill="#FF5F00"/><path d="M17.568 11.112c0-1.391.308-2.764.9-4.016a9.186 9.186 0 012.519-3.214 8.89 8.89 0 00-3.855-1.8 8.784 8.784 0 00-4.233.207 8.938 8.938 0 00-3.668 2.17 9.224 9.224 0 00-2.289 3.652 9.402 9.402 0 00-.4 4.318 9.32 9.32 0 001.58 4.025 9.048 9.048 0 003.206 2.837 8.816 8.816 0 009.659-.95 9.186 9.186 0 01-2.519-3.213 9.403 9.403 0 01-.9-4.016z" fill="#EB001B"/><path d="M34.688 16.81v-.307h.125v-.051h-.3v.051h.125v.307h.05zm.574 0v-.358h-.1l-.1.255-.1-.255h-.1v.358h.075v-.281l.1.23h.075l.1-.23v.28h.05zm.274-5.697a9.357 9.357 0 01-1.37 4.872 9.06 9.06 0 01-3.685 3.388 8.803 8.803 0 01-4.879.874 8.871 8.871 0 01-4.59-1.905 9.18 9.18 0 002.52-3.213c.591-1.252.899-2.625.899-4.016a9.397 9.397 0 00-.9-4.016 9.181 9.181 0 00-2.519-3.214 8.871 8.871 0 014.59-1.905 8.803 8.803 0 014.879.875 9.06 9.06 0 013.685 3.388 9.357 9.357 0 011.37 4.872z" fill="#F79E1B"/></g><path d="M49.455 55h-2.067l.426-1.813H47v-1.554h1.176l.504-2.085h-1.034v-1.554h1.396l.426-1.813h2.068l-.426 1.813h1.292l.426-1.813h2.068l-.426 1.813h.8v1.554h-1.162l-.504 2.085h1.02v1.554h-1.382L52.816 55h-2.068l.426-1.813h-1.292L49.455 55zm1.293-5.452l-.504 2.085h1.292l.504-2.085h-1.292zM56.474 46.971c.913-.647 1.96-.971 3.14-.971.957 0 1.75.224 2.378.673.629.45.944 1.136.944 2.06 0 .353-.065.686-.194.997-.13.31-.32.59-.569.841-.25.25-.491.466-.724.648-.232.172-.512.358-.84.556-.913.553-1.434.894-1.563 1.024-.078.077-.117.142-.117.194H63V55h-6.81v-1.049c0-.388.06-.751.18-1.088a3.8 3.8 0 01.388-.816c.138-.215.358-.444.66-.686.3-.25.525-.423.671-.518.155-.095.414-.25.776-.466l.194-.117c.068-.043.215-.125.439-.246.233-.13.383-.215.452-.259.07-.051.164-.13.284-.233a.709.709 0 00.246-.31.904.904 0 00.065-.35.636.636 0 00-.323-.583c-.207-.138-.483-.207-.828-.207-1.016 0-1.99.367-2.92 1.1v-2.2z" fill="#fff"/></g><defs><clipPath id="clip0_3080_229588"><path fill="#fff" d="M0 0h63v55H0z"/></clipPath></defs></svg>