<svg width="48" height="55" fill="none" xmlns="http://www.w3.org/2000/svg"><g clip-path="url(#clip0_3080_230042)"><path d="M0 11.971l7.118 11.905v7.262L.008 43.02 0 11.971z" fill="#5B57A2"/><path d="M27.33 19.545l6.669-3.825 13.65-.012-20.32 11.648v-7.811z" fill="#D90751"/><path d="M27.291 11.902l.038 15.762-7.135-4.103V0l7.097 11.902z" fill="#FAB718"/><path d="M47.648 15.707l-13.65.012-6.707-3.817L20.194 0l27.454 15.707z" fill="#ED6F26"/><path d="M27.329 43.086V35.44l-7.135-4.024.004 23.584 7.13-11.913z" fill="#63B22F"/><path d="M33.982 39.296L7.117 23.876 0 11.971l47.62 27.31-13.638.015z" fill="#1487C9"/><path d="M20.2 55l7.129-11.913 6.653-3.79 13.637-.016L20.199 55z" fill="#017F36"/><path d="M.008 43.02l20.245-11.605-6.806-3.908-6.33 3.631L.009 43.02z" fill="#984995"/></g><defs><clipPath id="clip0_3080_230042"><path fill="#fff" d="M0 0h48v55H0z"/></clipPath></defs></svg>