<svg width="46" height="46" fill="none" xmlns="http://www.w3.org/2000/svg"><g clip-path="url(#clip0_8999_34788)"><path d="M44.377 0v45.892h1.082a.542.542 0 00.541-.54V.54a.542.542 0 00-.541-.54h-1.083zM.54 45.892h1.083V0H.54A.542.542 0 000 .54v44.812c0 .297.244.54.541.54zm23.974-24.026h1.083V0h-1.083v21.866zm5.656 0h3.247V0H30.17v21.866zm9.876 0h1.624V0h-1.624v21.866zm-20.483 0h1.082V0h-1.082v21.866zm-2.923 0h1.624V0H16.64v21.866zm-5.493 0h2.706V0h-2.706v21.866zm-6.819 0h1.624V0H4.329v21.866zm30.306 0h1.083V0h-1.083v21.866zM19.564 45.892h1.082v-5.13h-1.082v5.13zm-2.923 0h1.624v-5.13H16.64v5.13zm-5.493 0h2.706v-5.13h-2.706v5.13zm-6.819 0h1.624v-5.13H4.329v5.13zm5.9-16.899c.026.594-.217 1.188-.623 1.62a2.086 2.086 0 01-1.597.648H4.546c-.108.027-.217-.054-.217-.162v-6.641c0-.162.082-.243.217-.243h2.679a1.876 1.876 0 011.434.54c.379.324.568.81.568 1.296 0 .296-.081.593-.243.863.757.405 1.271 1.215 1.244 2.079zm-4.736-3.698v1.376h2.354a.87.87 0 00.217-.566c.027-.433-.325-.783-.731-.81h-1.84zm2.354 4.886c.677 0 1.218-.567 1.218-1.242s-.541-1.215-1.218-1.215H5.466v2.457h2.381zm6.954 1.214a3.6 3.6 0 01-3.653-3.563v-.08a3.605 3.605 0 013.6-3.645h.053c2.002 0 3.653 1.62 3.653 3.617v.027a3.605 3.605 0 01-3.599 3.644h-.054zm0-1.133c.677.027 1.299-.243 1.786-.702a2.42 2.42 0 00.73-1.809 2.42 2.42 0 00-.73-1.809c-.46-.485-1.11-.728-1.786-.728a2.332 2.332 0 00-1.786.729 2.395 2.395 0 00-.703 1.808 2.501 2.501 0 00.703 1.809c.46.459 1.11.702 1.786.702zm8.524-.108c.162 0 .243.08.243.216v.675c0 .162-.08.216-.243.216h-3.518c-.108.027-.216-.054-.216-.162V24.43c-.027-.108.054-.216.162-.216h.758c.162 0 .243.08.243.216v5.723h2.57zm5.087 0c.108-.027.216.054.216.162V31.045c.027.108-.054.216-.162.216h-3.734c-.108.027-.217-.054-.217-.162V24.43c-.027-.108.054-.216.163-.216H28.358c.162 0 .243.08.243.216v.675c0 .162-.081.216-.243.216h-2.68v1.835h2.436c.162 0 .217.081.217.243v.621c.027.108-.055.216-.163.216H25.68v1.917h2.733zm5.6-5.94c.163 0 .245.082.245.217v.675c0 .162-.082.216-.244.216H32.47v5.723c0 .162-.082.216-.244.216h-.703c-.163 0-.244-.081-.244-.216v-5.723h-1.542c-.163 0-.244-.081-.244-.216v-.675c0-.162.081-.216.244-.216h4.275zm4.222 7.181a3.6 3.6 0 01-3.653-3.563v-.08a3.656 3.656 0 013.653-3.672c2.03 0 3.68 1.62 3.68 3.644.027 2.025-1.623 3.645-3.68 3.671.027 0 .027 0 0 0zm0-1.133c.677.027 1.299-.243 1.786-.702a2.42 2.42 0 00.73-1.809 2.42 2.42 0 00-.73-1.809c-.46-.485-1.11-.728-1.786-.728a2.332 2.332 0 00-1.786.729 2.395 2.395 0 00-.703 1.808 2.501 2.501 0 00.703 1.809 2.614 2.614 0 001.786.702zM8.74 36.957c0 .431-.162.863-.487 1.187-.298.324-.73.486-1.164.486H4.52a.203.203 0 01-.19-.135V33.61c0-.08.055-.162.136-.189h2.029a1.53 1.53 0 011.11.405c.27.243.432.621.432.999 0 .216-.054.432-.189.62.541.298.893.865.893 1.513zm-3.382-2.592v.864h1.488c.216-.19.216-.513.027-.729a.535.535 0 00-.379-.162H5.358v.027zm1.596 3.293c.406 0 .758-.35.73-.755a.727.727 0 00-.73-.73H5.331v1.485h1.623zm6.792.756c.027.135-.027.19-.135.19h-.731c-.081 0-.19-.055-.19-.136l-.243-.783h-2.002l-.244.783c-.027.081-.108.162-.19.135h-.757c-.135 0-.19-.08-.135-.189l1.65-4.832c.027-.08.109-.162.217-.135h.92c.081 0 .19.054.19.135l1.65 4.832zm-3.03-1.7h1.38l-.704-2.16-.677 2.16zm6.52-3.105c0-.08.055-.162.136-.189H18.102c.081 0 .163.054.19.135v4.886a.203.203 0 01-.136.19h-.514a.246.246 0 01-.216-.109l-1.948-3.077v3.023a.203.203 0 01-.136.19H14.612a.203.203 0 01-.19-.136v-4.886c0-.08.054-.162.136-.189h.514c.08 0 .162.027.216.108l1.948 3.078v-3.024zm1.922 2.403a2.653 2.653 0 012.597-2.7h.108c.569 0 1.11.162 1.543.486.433.297.758.756.92 1.269.027.08 0 .162-.081.189H23.433a.204.204 0 01-.19-.135 1.513 1.513 0 00-1.406-.81 1.594 1.594 0 00-1.218.486 1.85 1.85 0 000 2.457c.325.324.758.485 1.218.485a1.513 1.513 0 001.407-.81.204.204 0 01.189-.134h.73c.082 0 .136.027.163.108v.08c-.163.514-.46.972-.92 1.27a2.699 2.699 0 01-1.57.485 2.654 2.654 0 01-2.705-2.591c.027-.054.027-.108.027-.135zm10.12 2.402c.027.135-.027.19-.136.19h-.73c-.081 0-.19-.055-.19-.136l-.243-.783h-2.002l-.244.783c-.027.081-.108.162-.19.135h-.757c-.135 0-.19-.08-.135-.189l1.65-4.832c.027-.08.108-.162.217-.135h.947c.08 0 .19.054.19.135l1.623 4.832zm-3.03-1.7h1.38l-.704-2.16-.677 2.16zm7.846 1.673c.081.108.054.216-.108.216H33.2a.246.246 0 01-.216-.108l-1.38-1.7h-.623v1.62a.203.203 0 01-.135.188H30.116a.203.203 0 01-.189-.135v-4.886c0-.08.054-.162.135-.189h1.84c.92-.027 1.705.73 1.732 1.647.027.675-.379 1.269-.974 1.566l1.434 1.781zm-3.112-4.022v1.539h.947c.433-.027.731-.405.704-.837a.756.756 0 00-.704-.702h-.947zm3.789-.756c0-.08.054-.162.135-.189H35.636c.082 0 .163.054.163.135v4.886a.203.203 0 01-.136.19H34.934a.204.204 0 01-.19-.136V33.61h.028zm4.437 5.102a2.71 2.71 0 01-2.706-2.7 2.71 2.71 0 012.706-2.699c.947 0 1.84.513 2.327 1.323.244.405.38.89.352 1.35a2.682 2.682 0 01-2.652 2.7c0 .026 0 .026-.027.026zm1.678-2.7c.027-.458-.163-.89-.487-1.214-.677-.648-1.732-.648-2.381 0a1.758 1.758 0 000 2.43 1.68 1.68 0 001.19.485c.92.027 1.65-.701 1.678-1.62v-.08zm-14.341-2.969c-.109 0-.163-.08-.109-.189l.352-.62c.027-.082.108-.109.19-.109h.757c.136 0 .163.081.082.19l-.488.62a.246.246 0 01-.189.081l-.595.027zM24.678 43.3a2.653 2.653 0 012.597-2.7h.109c.568 0 1.109.163 1.542.487.433.297.758.756.92 1.269.027.08 0 .162-.081.189H28.953a.204.204 0 01-.19-.135 1.513 1.513 0 00-1.407-.81 1.594 1.594 0 00-1.217.486 1.85 1.85 0 000 2.456c.325.324.758.486 1.218.486a1.513 1.513 0 001.407-.81.204.204 0 01.189-.135h.73c.082 0 .136.027.163.108v.081c-.163.513-.46.972-.92 1.27a2.7 2.7 0 01-1.57.485 2.654 2.654 0 01-2.705-2.592c.027-.053.027-.108.027-.135zm8.415 2.7a2.71 2.71 0 01-2.706-2.7 2.71 2.71 0 012.706-2.7c.947 0 1.84.514 2.327 1.324.243.405.379.89.352 1.35a2.682 2.682 0 01-2.652 2.699c0 .027 0 .027-.027.027zm1.678-2.7c.027-.458-.163-.89-.488-1.214-.676-.648-1.731-.648-2.38 0a1.758 1.758 0 000 2.43 1.68 1.68 0 001.19.485c.92.027 1.65-.702 1.678-1.62v-.08zm6.71-2.591c.081 0 .163.054.19.135v4.886a.203.203 0 01-.136.189H40.805a.203.203 0 01-.19-.135v-3.347l-1.082 2.51a.203.203 0 01-.19.135h-.46a.204.204 0 01-.189-.135l-1.11-2.51v3.293a.203.203 0 01-.135.189H36.72a.203.203 0 01-.19-.135v-4.886c0-.081.054-.162.136-.19h.893c.08 0 .19.055.216.136l1.326 3.023 1.326-3.023c.027-.081.108-.135.216-.135h.84zm-18.21 4.103h1.082v1.08H23.27v-1.08z" fill="#fff"/></g><defs><clipPath id="clip0_8999_34788"><path fill="#fff" d="M0 0h46v46H0z"/></clipPath></defs></svg>