<svg width="100" height="17" fill="none" xmlns="http://www.w3.org/2000/svg"><g clip-path="url(#clip0_3103_229001)"><mask id="a" style="mask-type:luminance" maskUnits="userSpaceOnUse" x="0" y="0" width="100" height="17"><path d="M100 0H0v17h100V0z" fill="#fff"/></mask><g mask="url(#a)"><path d="M98.173 1.292C96.897.432 94.97 0 92.44 0h-6.62l-2.46 13.147h-8.667l.55-2.981h5.224l.62-3.352h-5.22l.56-2.967h5.383L82.523 0h-10.93L69.26 12.461h-4L67.613 0h-5.726l-2.334 12.461h-3.91L58 0h-5.713l-2.464 13.147h-8.736l.553-2.981h5.247l.62-3.332h-5.24l.556-2.974h5.444L48.973 0H14.917l-1.94 10.418L9.117 0H3.19L0 17h5.667L7.59 6.296 11.333 17h20.29L34.09 3.85h3.173L34.797 17h53.38l1.546-8.3 2.504 8.3h5.666L95.3 10.218l.593-.124a5.097 5.097 0 003.037-1.755A5.372 5.372 0 00100 4.92c0-1.607-.597-2.79-1.83-3.607l.003-.02zM26.7 13.147h-8.667l.56-2.981h5.437l.617-3.358h-5.384l.52-2.952h8.667l-1.753 9.29h.003zM93.507 7.42c-.57.39-1.397.584-2.524.584h-1.12l.86-4.562h.824c.936 0 1.62.148 2.093.45.264.172.478.41.619.689.142.279.206.59.188.901.022.375-.053.75-.217 1.09-.165.339-.413.632-.723.851v-.003z" fill="#83BA3B"/></g></g><defs><clipPath id="clip0_3103_229001"><path fill="#fff" d="M0 0h100v17H0z"/></clipPath></defs></svg>