<svg width="115" height="25" fill="none" xmlns="http://www.w3.org/2000/svg"><path d="M101.034 12.572c0-3.067-2.372-5.547-5.722-5.547-3.284 0-5.623 2.385-5.623 5.662 0 3.294 2.405 5.696 5.855 5.696 2.19 0 4.03-.958 5.174-2.905l-2.321-1.055c-.547.974-1.742 1.607-2.853 1.607-1.41 0-3.035-1.039-3.135-2.482h8.542c.054-.323.082-.65.083-.976zm-8.575-.938c.2-1.46 1.227-2.417 2.87-2.417 1.625 0 2.62.938 2.752 2.417H92.46zM69.063 7.022c-3.367 0-5.755 2.37-5.755 5.712 0 3.31 2.388 5.646 5.788 5.646 3.417 0 5.805-2.336 5.805-5.597 0-3.359-2.454-5.76-5.838-5.76zm.033 8.876c-1.692 0-2.736-1.233-2.736-3.148 0-1.947 1.061-3.278 2.736-3.278 1.692 0 2.753 1.315 2.753 3.278 0 1.931-1.044 3.148-2.753 3.148zM57.074 7.026c-1.379 0-2.418.46-3.457 1.603h-.34c-.699-1.032-1.838-1.603-3.115-1.603a4.102 4.102 0 00-1.84.415 4.007 4.007 0 00-1.444 1.188h-.34l-.017-.015V7.248h-2.855v10.894h3.085v-5.606c0-1.81.78-2.874 2.126-2.874 1.25 0 2.062.905 2.062 2.286v6.194h3.1v-5.606c0-1.797.78-2.874 2.143-2.874 1.233 0 2.029.905 2.029 2.303v6.177h3.1v-6.543c0-2.842-1.558-4.573-4.237-4.573zM107.892 14.364h-.22c0-.194-1.345-3.644-2.226-5.781l-.552-1.337h-3.107l4.408 10.932-1.737 4.166h3.086l6.348-15.094h-3.109l-.507 1.143-1.719 4.162c-.485 1.162-.684 1.701-.665 1.81zM83.455 7.026c-1.38 0-2.565.587-3.36 1.636h-.326l-.032-.016V7.25h-2.856v10.893h3.085v-5.574c0-1.778.878-2.89 2.321-2.89 1.347 0 2.338.984 2.338 2.54v5.924h3.084v-6.574c0-2.668-1.786-4.542-4.254-4.542z" fill="#fff"/><path d="M22.72.781C16.056.781 10.7 6.055 10.7 12.5c0 6.498 5.408 11.719 12.017 11.719 6.61 0 12.021-5.274 12.021-11.719C34.74 6.055 29.33.781 22.72.781zm0 16.087c-2.459 0-4.48-1.971-4.48-4.368 0-2.397 2.021-4.368 4.48-4.368 2.458 0 4.479 1.971 4.479 4.368a4.481 4.481 0 01-4.48 4.368z" fill="#8B3FFD"/><path d="M10.701 4.186v17.045H6.443L.98 4.186h9.721z" fill="#8B3FFD"/></svg>