<svg width="78" height="43" fill="none" xmlns="http://www.w3.org/2000/svg"><g clip-path="url(#clip0_8818_39280)"><mask id="a" style="mask-type:luminance" maskUnits="userSpaceOnUse" x="0" y="0" width="78" height="43"><path d="M78 0H0v43h78V0z" fill="#fff"/></mask><g mask="url(#a)"><path fill-rule="evenodd" clip-rule="evenodd" d="M10.07 8.387c-4.33 0-7.737 3.396-7.737 7.456v25.963c0 .66-.522 1.194-1.166 1.194C.522 43 0 42.466 0 41.806V15.843C0 10.35 4.566 6 10.07 6h.002l7.89.012c5.49.01 10.038 4.351 10.038 9.83v5.526c0 5.494-4.566 9.844-10.07 9.844H6.78c-.645 0-1.167-.535-1.167-1.194 0-.659.522-1.193 1.167-1.193h11.15c4.33 0 7.737-3.396 7.737-7.457v-5.526c0-4.048-3.391-7.435-7.708-7.443l-7.89-.012zM28 7.174C28 6.526 28.56 6 29.25 6h3.628C35.762 6 38 8.286 38 10.988v20.838c0 .648-.56 1.174-1.25 1.174s-1.25-.526-1.25-1.174V10.988c0-1.512-1.23-2.64-2.622-2.64H29.25c-.69 0-1.25-.526-1.25-1.174z" fill="#fff"/><path d="M34.816 4.716l-1.528-1.53a.97.97 0 010-1.373L34.815.285a.973.973 0 011.376 0l1.528 1.528a.97.97 0 010 1.374L36.19 4.716a.972.972 0 01-1.374 0z" fill="#32BCAD"/><path fill-rule="evenodd" clip-rule="evenodd" d="M41 7.182C41 6.529 41.534 6 42.194 6h3.353c2.05 0 4.01.824 5.452 2.283l7.842 7.937a1.378 1.378 0 001.973 0l7.814-7.908A7.665 7.665 0 0174.08 6.03h2.727c.659 0 1.193.53 1.193 1.182 0 .653-.534 1.182-1.194 1.182H74.08c-1.4 0-2.747.562-3.745 1.572m0 0l-7.814 7.908a3.781 3.781 0 01-5.386 0l-7.843-7.937a5.265 5.265 0 00-3.745-1.572h-3.353c-.66 0-1.194-.53-1.194-1.182M60.814 22.78a1.377 1.377 0 00-1.972 0l-7.843 7.937A7.665 7.665 0 0145.547 33h-3.353c-.66 0-1.194-.53-1.194-1.182 0-.652.534-1.182 1.194-1.182h3.353c1.4 0 2.748-.562 3.745-1.572l7.843-7.937a3.781 3.781 0 015.385 0m0 0l7.815 7.908a5.265 5.265 0 003.745 1.572h2.727c.659 0 1.193.53 1.193 1.182 0 .653-.534 1.182-1.194 1.182H74.08c-2.05 0-4.01-.825-5.452-2.283l-7.814-7.909" fill="#fff"/></g></g><defs><clipPath id="clip0_8818_39280"><path fill="#fff" d="M0 0h78v43H0z"/></clipPath></defs></svg>