<svg width="55" height="55" fill="none" xmlns="http://www.w3.org/2000/svg"><g clip-path="url(#clip0_3080_229945)"><path d="M16.819 23.111L27.5 12.43l10.687 10.686 6.215-6.215L27.5 0 10.604 16.896l6.215 6.215zM0 27.5l6.215-6.216 6.215 6.215-6.215 6.215L0 27.5zm16.819 4.39L27.5 42.57l10.686-10.686 6.219 6.212-.004.003L27.5 55 10.604 38.104l-.009-.009 6.224-6.206zm25.751-4.387l6.215-6.216L55 27.502l-6.215 6.215-6.215-6.214zm-8.767-.006h.003L27.5 21.19l-4.661 4.66-.536.536L21.2 27.49l-.009.009.009.009L27.5 33.81l6.306-6.307.004-.003-.007-.003z" fill="#F3BA2F"/></g><defs><clipPath id="clip0_3080_229945"><path fill="#fff" d="M0 0h55v55H0z"/></clipPath></defs></svg>