<svg width="55" height="55" fill="none" xmlns="http://www.w3.org/2000/svg"><g clip-path="url(#clip0_3080_229501)"><path d="M54.177 34.153C50.504 48.885 35.58 57.85 20.845 54.177 6.115 50.504-2.851 35.582.824 20.85 4.495 6.117 19.418-2.85 34.15.823c14.734 3.673 23.7 18.597 20.027 33.33z" fill="url(#paint0_linear_3080_229501)"/><path d="M40.122 24.082c.548-3.66-2.239-5.626-6.049-6.939l1.236-4.956-3.017-.752-1.204 4.826c-.793-.198-1.608-.384-2.417-.569l1.212-4.858-3.016-.752-1.237 4.955c-.657-.15-1.301-.297-1.927-.453l.003-.015-4.161-1.04-.803 3.223s2.24.514 2.192.545c1.222.305 1.443 1.114 1.406 1.755l-3.386 13.579c-.15.371-.529.928-1.383.717.03.044-2.194-.548-2.194-.548l-1.498 3.454 3.927.979c.73.183 1.447.375 2.151.555l-1.248 5.014 3.014.752 1.237-4.96c.823.223 1.622.429 2.404.623l-1.232 4.937 3.018.752 1.248-5.004c5.146.974 9.015.581 10.644-4.072 1.312-3.747-.065-5.909-2.773-7.318 1.972-.455 3.457-1.751 3.853-4.43zm-6.894 9.667c-.933 3.747-7.242 1.721-9.288 1.213l1.657-6.642c2.046.51 8.605 1.521 7.63 5.429zm.933-9.721c-.85 3.408-6.102 1.676-7.806 1.252l1.503-6.024c1.703.424 7.19 1.217 6.303 4.772z" fill="#fff"/></g><defs><linearGradient id="paint0_linear_3080_229501" x1="27.5" y1=".001" x2="27.5" y2=".861" gradientUnits="userSpaceOnUse"><stop stop-color="#F9AA4B"/><stop offset="1" stop-color="#F7931A"/></linearGradient><clipPath id="clip0_3080_229501"><path fill="#fff" d="M0 0h55v55H0z"/></clipPath></defs></svg>