<svg width="52" height="52" fill="none" xmlns="http://www.w3.org/2000/svg"><g clip-path="url(#clip0_3079_229473)"><path d="M17.252 42.01c-1.078.1-2.173-.31-2.87-1.48L.454 17.136c-.926-1.557-.39-3.555 1.198-4.463 1.588-.908 3.626-.383 4.553 1.174L20.132 37.24c1.372 2.304-.717 4.567-2.88 4.77z" fill="#F69220"/><path d="M51.093 34.126c-.97 2.279-2.563 4.36-4.457 5.96-5.326 4.497-12.3 6.682-18.281 10.158-2.366 1.375-5.913 3.18-7.706-.07-.959-1.746-.293-3.922 1.489-4.864 6.157-3.249 12.199-6.712 18.275-10.103 2.888-1.611 3.782-5.279 2.145-8.067-1.534-2.612-5.013-4.271-7.879-2.674a1010.03 1010.03 0 00-5.579 3.007c-1.591.865-3.561 2.504-5.457 2.504a3.529 3.529 0 01-3.05-1.725c-.97-1.65-.395-3.76 1.288-4.711 2.68-1.519 5.328-3.091 8.001-4.62 2.852-1.632 3.14-5.418 1.6-8.022-1.623-2.749-5.311-3.87-8.193-2.234l-7.803 4.367-.08.046c-.56.314-1.194.48-1.84.48a3.724 3.724 0 01-3.223-1.832c-1.018-1.743-.4-3.965 1.378-4.96l.108-.062C15.719 4.32 19.65 1.577 24.17.484c1.845-.45 3.624-.587 5.334-.407C35.557.71 40.578 6.886 40.018 12.8c-.161 1.7-.58 3.38-1.384 4.91 2.294-.237 4.52.277 6.51 1.2 5.773 2.677 8.378 9.5 5.949 15.216z" fill="#fff"/></g><defs><clipPath id="clip0_3079_229473"><path fill="#fff" d="M0 0h52v52H0z"/></clipPath></defs></svg>