<svg width="55" height="55" fill="none" xmlns="http://www.w3.org/2000/svg"><g clip-path="url(#clip0_8999_34795)" fill-rule="evenodd" clip-rule="evenodd" fill="#006BB3"><path d="M27.395 0c4.162-.01 8.27.94 12.009 2.775.571.27 1.14.57 1.708.899l-2.52 2.28-3.794-3.928-6.396 5.743-3.799-4.178-11.887 10.776 7.614 8.447-3.002 2.647 7.524 8.468-2.985 2.642L32.62 48.579 39 42.686l5.529 6.32a29.235 29.235 0 01-3.616 2.404 27.298 27.298 0 01-24.135 1.419 27.394 27.394 0 01-10.048-7.31A27.526 27.526 0 01.926 34.506 27.592 27.592 0 01.56 22.056 27.54 27.54 0 015.707 10.72a27.411 27.411 0 019.602-7.892A27.305 27.305 0 0127.395 0z"/><path d="M22.403 25.76l6.519-5.887 5.866 6.542-6.513 5.888-5.872-6.542zM27.036 37.065l6.518-5.888 5.866 6.537-6.512 5.888-5.872-6.537zM17.742 14.595l6.519-5.888 5.86 6.543-6.513 5.888-5.866-6.543zM29.701 11.426l4.882-4.417 4.4 4.905-4.886 4.418-4.396-4.906zM38.38 31.654l4.888-4.418 4.401 4.906-4.887 4.417-4.401-4.905zM42.677 41.56l4.887-4.418 4.401 4.906-4.887 4.417-4.401-4.906zM44.645 18.857l3.256-2.947 2.936 3.269-3.256 2.947-2.936-3.27zM40.487 9.14l3.257-2.947 2.93 3.274-3.257 2.942-2.93-3.269zM48.814 28.568l3.256-2.941L55 28.895l-3.256 2.942-2.93-3.269zM34.201 21.287l4.888-4.417 4.4 4.906-4.887 4.417-4.4-4.906z"/></g><defs><clipPath id="clip0_8999_34795"><path fill="#fff" d="M0 0h55v55H0z"/></clipPath></defs></svg>