<svg width="85" height="44" fill="none" xmlns="http://www.w3.org/2000/svg"><g clip-path="url(#clip0_3080_229900)"><mask id="a" style="mask-type:luminance" maskUnits="userSpaceOnUse" x="0" y="0" width="50" height="44"><path d="M50 0H0v44h50V0z" fill="#fff"/></mask><g mask="url(#a)"><path fill-rule="evenodd" clip-rule="evenodd" d="M38.661 18.876c0 1.317-4.614 2.42-10.799 2.7l.006.001c-.175.015-1.078.07-3.095.07-1.602 0-2.741-.05-3.14-.07-3.098-.14-5.803-.484-7.735-.96-1.931-.477-3.088-1.082-3.088-1.741 0-1.32 4.625-2.422 10.822-2.705v4.308c.406.029 1.566.1 3.17.1 1.924 0 2.888-.083 3.061-.099v-4.306c6.183.282 10.798 1.384 10.798 2.702zm10.7 1.152L24.996 43.893a.366.366 0 01-.516 0L.116 20.027a.38.38 0 01-.08-.438L9.06.216a.37.37 0 01.136-.158A.358.358 0 019.393 0h30.692c.142 0 .272.085.332.217l9.021 19.373a.385.385 0 01-.077.438zm-9.232-.852c0-1.7-5.259-3.118-12.261-3.449v-3.854h8.63V5.995H13.002v5.878h8.63v3.854c-7.014.33-12.288 1.749-12.288 3.451 0 1.703 5.275 3.121 12.287 3.452v12.353h6.236V22.625c6.997-.33 12.262-1.749 12.262-3.449z" fill="#4DDBAF"/></g><path d="M84.66 17.531c-1.232-1.08-2.939-2.734-4.327-3.906l-.084-.054a1.59 1.59 0 00-.455-.243c-3.35-.593-18.939-3.362-19.243-3.328a.594.594 0 00-.24.087l-.077.058a.867.867 0 00-.213.328l-.021.051v.32c1.755 4.645 8.684 19.86 10.05 23.43.081.242.238.703.53.726h.065c.156 0 .823-.836.823-.836s11.902-13.719 13.106-15.18c.157-.18.294-.372.41-.578a.897.897 0 00-.04-.478.942.942 0 00-.283-.395v-.002zM74.522 19.13l5.08-4.004 2.98 2.61-8.06 1.394zm-1.973-.261l-8.746-6.812 14.15 2.48-5.404 4.332zm.789 1.784l8.952-1.37L72.054 31l1.283-10.348zm-10.723-7.916l9.203 7.42-1.332 10.852-7.871-18.273z" fill="#FF060A"/></g><defs><clipPath id="clip0_3080_229900"><path fill="#fff" d="M0 0h85v44H0z"/></clipPath></defs></svg>