<svg width="77" height="39" fill="none" xmlns="http://www.w3.org/2000/svg"><g clip-path="url(#clip0_8999_35069)"><path d="M.06 4.283C.06 1.92 1.964 0 4.31 0h68.44c2.346 0 4.24 1.92 4.24 4.283v.14H.053l.008-.14zM77 34.613v.104C77 37.08 75.096 39 72.758 39H4.302c-2.347 0-4.25-1.92-4.25-4.283v-.104H77z" fill="#FBB110"/><path d="M53.307 19.46c0 5.987 4.815 10.843 10.751 10.843 5.937 0 10.752-4.856 10.752-10.842 0-5.986-4.815-10.843-10.752-10.843-5.936-.008-10.751 4.848-10.751 10.843zm-51.247 0c0 5.987 4.816 10.843 10.752 10.843 5.937 0 10.752-4.856 10.752-10.842 0-5.986-4.816-10.843-10.752-10.843C6.876 8.61 2.06 13.466 2.06 19.461zM77 32.563H23.998c.956-.677 1.843-1.598 2.816-2.85l5.398-6.95 2.355 3.006 2.625-3.518-2.294-2.946 5.493-7.071C42.138 9.99 38.8 7.35 37.053 9.59l-4.858 6.256-4.937-6.334c-1.747-2.241-5.076.408-3.33 2.65l5.58 7.15-6.04 7.767c-2.147 2.763-4.285 5.291-8.535 5.49H.043V6.49H52.76c-.904.669-1.764 1.564-2.685 2.762l-5.398 6.95-2.364-3.005-2.625 3.518 2.294 2.946-5.493 7.072c-1.747 2.241 1.59 4.882 3.338 2.64l4.859-6.255 4.937 6.334c1.747 2.241 5.075-.409 3.328-2.641l-5.58-7.15 6.041-7.767c1.973-2.537 3.938-4.883 7.545-5.396H77v26.064zM57.618 19.461c0-3.588 2.886-6.49 6.432-6.49 3.546 0 6.432 2.902 6.432 6.49s-2.877 6.49-6.432 6.49c-3.555 0-6.432-2.91-6.432-6.49zm-51.246 0c0-3.588 2.885-6.49 6.431-6.49 3.555 0 6.432 2.902 6.432 6.49s-2.885 6.49-6.432 6.49c-3.546 0-6.431-2.91-6.431-6.49z" fill="#E70020"/></g><defs><clipPath id="clip0_8999_35069"><path fill="#fff" d="M0 0h77v39H0z"/></clipPath></defs></svg>