<svg width="55" height="43" fill="none" xmlns="http://www.w3.org/2000/svg"><g clip-path="url(#clip0_8999_34787)"><path d="M9.966 30.281l6.395 10.541c.394.672 1.39.672 1.785 0l6.395-10.541c.415-.672-.083-1.547-.893-1.547h-12.79c-.809.02-1.307.875-.892 1.547z" fill="#019384"/><path d="M18.23 12.678l7.224 11.925c.333.53 1.163.305 1.163-.305V.61c0-.61-.83-.854-1.163-.305L18.23 12.047a.579.579 0 000 .631z" fill="#DCCC94"/><path d="M10.859 27.005h12.81c.81 0 1.308-.855.893-1.547l-6.353-10.48a1.051 1.051 0 00-1.786 0l-6.457 10.5c-.394.672.104 1.527.893 1.527z" fill="#84B97C"/><path d="M1.038 43H14.43c.81 0 1.308-.855.893-1.546L8.68 30.484a1.051 1.051 0 00-1.786 0L.146 41.455C-.27 42.125.229 43 1.038 43z" fill="#02687A"/><path d="M19.371 43h6.603a.606.606 0 00.622-.61V31.482c0-.61-.83-.855-1.162-.305L18.83 42.084a.615.615 0 00.54.916z" fill="#C2D473"/><path d="M45.035 30.281L38.64 40.822c-.395.672-1.392.672-1.786 0l-6.395-10.541c-.415-.672.083-1.547.893-1.547h12.79c.81.02 1.308.875.892 1.547z" fill="#83494D"/><path d="M36.77 12.678l-7.225 11.925c-.332.53-1.162.305-1.162-.305V.61c0-.61.83-.854 1.163-.305l7.225 11.763a.545.545 0 010 .61z" fill="#F8DE6A"/><path d="M44.14 27.005H31.33c-.81 0-1.308-.855-.892-1.547l6.374-10.5a1.051 1.051 0 011.785 0l6.457 10.5c.374.692-.124 1.547-.913 1.547z" fill="#FFB200"/><path d="M53.962 43H40.57c-.81 0-1.308-.855-.893-1.546l6.644-10.97a1.051 1.051 0 011.785 0l6.748 10.97c.416.671-.083 1.546-.892 1.546z" fill="#AD082E"/><path d="M35.629 43h-6.603a.606.606 0 01-.623-.61V31.482c0-.61.83-.855 1.163-.305l6.603 10.907a.615.615 0 01-.54.916z" fill="#DC6F37"/></g><defs><clipPath id="clip0_8999_34787"><path fill="#fff" d="M0 0h55v43H0z"/></clipPath></defs></svg>