<svg width="55" height="55" fill="none" xmlns="http://www.w3.org/2000/svg"><g clip-path="url(#clip0_3080_229859)"><mask id="a" style="mask-type:luminance" maskUnits="userSpaceOnUse" x="0" y="0" width="55" height="55"><path d="M55 0H0v55h55V0z" fill="#fff"/></mask><g mask="url(#a)"><path d="M27.5 0C12.312 0 0 12.312 0 27.5S12.312 55 27.5 55 55 42.688 55 27.5C55.044 12.356 42.803.044 27.66 0h-.16zm.466 28.432l-2.863 9.655h15.315a.772.772 0 01.799.745v.254l-1.332 4.594a.992.992 0 01-.999.733H15.448l3.928-13.384-4.394 1.332.999-3.063 4.394-1.332L25.902 9.19a1.006 1.006 0 01.999-.733h5.926a.772.772 0 01.799.746v.253l-4.661 15.848 4.395-1.332-.933 3.196-4.46 1.265z" fill="#345D9D"/></g></g><defs><clipPath id="clip0_3080_229859"><path fill="#fff" d="M0 0h55v55H0z"/></clipPath></defs></svg>