<svg width="55" height="55" fill="none" xmlns="http://www.w3.org/2000/svg"><g clip-path="url(#clip0_3080_229808)"><mask id="a" style="mask-type:luminance" maskUnits="userSpaceOnUse" x="0" y="0" width="55" height="55"><path d="M22.71 22.298c-1.855-2.942-2.935-5.993-3.241-9.155-2.696-2.2-6.996-3.281-12.899-3.24-.178 0 .115 3.308.16 3.608.4 2.67 1.437 5.196 3.263 7.228 1.662 1.85 3.838 3.222 6.18 4.054.33.117.662.233.997.335.544.167 1.096.31 1.652.431a22.34 22.34 0 001.733.305l.053.007a7.052 7.052 0 012.101-3.573zM11.375 36.186h-.06c-1.68 2.555-2.755 6.209-3.225 10.964 2.585.391 4.971.275 7.155-.353 5.684-1.636 9.038-7.044 10.194-12.521a7.006 7.006 0 01-2.852-1.667c-3.585 2.35-7.323 3.54-11.212 3.577zm-1.172-12.553c-.389-.313-.76-.647-1.114-1-2.739.744-5.769 2.453-9.09 5.125a16.238 16.238 0 005.22 4.893 12.536 12.536 0 005.629 1.65h.527c3.498-.034 6.845-1.09 10.038-3.167a7.041 7.041 0 01-.993-3.374c-3.91-.522-7.316-1.9-10.217-4.127zm22.01 9.456c1.812 3.019 2.847 6.14 3.107 9.363 2.666 2.28 6.949 3.44 12.853 3.482a17.887 17.887 0 00-.952-7.21l.06.002c-.096-.003-1.022-2.072-1.163-2.297a13.731 13.731 0 00-1.41-1.9c-2.603-2.898-6.544-4.479-10.34-5.051a7.243 7.243 0 01-2.155 3.61zm11.533-13.98h.06c1.718-2.577 2.845-6.281 3.385-11.115-2.581-.436-4.967-.351-7.16.258-.857.238-1.691.585-2.479.996-.798.416-1.553.909-2.255 1.472a7.762 7.762 0 00-1.004.944c-.323.37-.65.736-.954 1.123a18.389 18.389 0 00-1.737 2.68 19.85 19.85 0 00-1.03 2.289c-.306.816-.565 1.65-.774 2.496-.014.055-.166.592-.143.604a6.958 6.958 0 012.828 1.737c3.62-2.342 7.374-3.504 11.263-3.485zm.991 12.793c.386.325.753.671 1.1 1.037 2.747-.722 5.802-2.418 9.162-5.092a16.33 16.33 0 00-5.148-5.054 12.403 12.403 0 00-5.605-1.758l-.527-.008c-3.498-.015-6.86 1.013-10.083 3.082a7.276 7.276 0 01.946 3.448c3.902.59 7.287 2.037 10.155 4.345zM21.215 12.625c.317 3.024 1.528 6.032 3.044 8.578a6.968 6.968 0 013.194-.775h.138a.702.702 0 00.014-.064l.016-.076.033-.146a25.127 25.127 0 01.528-1.987 22.422 22.422 0 01.787-2.132 20.1 20.1 0 011.545-2.923 19.487 19.487 0 011.985-2.593c.124-.135.251-.267.381-.397.005-.005.007-.01.011-.016.003-.003.005-.004.006-.008.003-.01-.003-.027-.004-.037-.008-.073-.035-.147-.053-.22a6.69 6.69 0 01-.038-.17c-.01-.046-.034-.104-.034-.15a12 12 0 00-.196-.72 14.967 14.967 0 00-.377-1.104 17.878 17.878 0 00-.658-1.515 24.107 24.107 0 00-1.195-2.163 24.607 24.607 0 00-.518-.809 34.22 34.22 0 00-1.33-1.866 40.3 40.3 0 00-.662-.85l-.173-.214L27.441 0a17.075 17.075 0 00-4.81 5.304c-1.321 2.277-1.679 4.804-1.416 7.322zm12.44 29.75c-.317-3.031-1.525-6.05-3.031-8.578a6.968 6.968 0 01-3.194.775h-.138a24.23 24.23 0 01-.715 2.66 22.41 22.41 0 01-.606 1.61 20.095 20.095 0 01-1.546 2.968 19.372 19.372 0 01-2.18 2.835c-.069.073-.131.154-.206.222-.014.013-.029.025-.038.04-.02.033 0 .063.006.097l.017.082a13.826 13.826 0 00.516 1.827c.112.317.234.632.364.942.208.492.434.976.68 1.45a27.192 27.192 0 001.155 2.002 34.698 34.698 0 001.843 2.613c.281.364.568.724.861 1.08a17.076 17.076 0 004.81-5.304c1.312-2.263 1.666-4.796 1.402-7.32z" fill="#fff"/></mask><g mask="url(#a)"><path d="M55.285 0H0v55h55.285V0z" fill="url(#paint0_radial_3080_229808)"/></g><path d="M25.644 22.448c-.092.032-.19.055-.279.096a5.327 5.327 0 00-3.221 5.902c.027.158.055.317.095.473.04.157.092.316.145.474a5.633 5.633 0 002 2.642c.08.053.154.104.237.155.174.106.353.203.536.292.127.063.257.125.393.18a5.433 5.433 0 001.988.385c.064 0 .124-.015.185-.02v-.019a6.035 6.035 0 002.09-.473 5.45 5.45 0 00-3.262-10.338c-.078.017-.155.03-.238.048-.227.053-.45.121-.67.203z" fill="#FFD833" stroke="#FFD833"/></g><defs><radialGradient id="paint0_radial_3080_229808" cx="0" cy="0" r="1" gradientUnits="userSpaceOnUse" gradientTransform="matrix(36.218 0 0 36.0313 24.102 27.768)"><stop stop-color="#FFA73F"/><stop offset=".688" stop-color="#FF4081"/></radialGradient><clipPath id="clip0_3080_229808"><path fill="#fff" d="M0 0h55v55H0z"/></clipPath></defs></svg>