<svg width="58" height="55" fill="none" xmlns="http://www.w3.org/2000/svg"><g clip-path="url(#clip0_8999_34792)"><path d="M8.35 9.76c1.1 0 2.201.193 3.172.58-.194-.646-.259-1.356-.259-2.067C11.263 3.749 14.953 0 19.55 0s8.35 3.749 8.35 8.337v18.097H8.35c-4.596 0-8.35-3.749-8.35-8.338C0 13.508 3.754 9.76 8.35 9.76zM58 36.903c0-4.59-3.755-8.338-8.35-8.338H30.036v18.097c0 4.589 3.754 8.337 8.35 8.337s8.35-3.748 8.35-8.337c0-.711-.064-1.422-.258-2.068.97.387 2.006.581 3.172.581 4.596.065 8.35-3.684 8.35-8.272z" fill="#00499A"/><path d="M58 18.096c0 4.59-3.755 8.338-8.35 8.338H30.036V8.337C30.036 3.75 33.79 0 38.386 0s8.35 3.749 8.35 8.337c0 .711-.064 1.422-.258 2.068.97-.387 2.006-.581 3.172-.581 4.596-.065 8.35 3.684 8.35 8.272zM8.35 45.241c1.1 0 2.201-.194 3.172-.582-.194.647-.259 1.358-.259 2.068 0 4.59 3.755 8.338 8.35 8.338 4.597 0 8.351-3.749 8.351-8.338V28.631H8.35C3.754 28.566 0 32.315 0 36.904c0 4.588 3.754 8.337 8.35 8.337z" fill="#EE7C00"/></g><defs><clipPath id="clip0_8999_34792"><path fill="#fff" d="M0 0h58v55H0z"/></clipPath></defs></svg>