<svg width="85" height="24" fill="none" xmlns="http://www.w3.org/2000/svg"><g clip-path="url(#clip0_8999_35070)"><path d="M69.15 23.972c.005-.212 5.49-13.995 5.709-14.57.015-.048.035-.09.094-.105.134.043.104.16.104.255.005.269-.005.533-.005.802v13.623c-1.96-.005-3.931-.005-5.902-.005z" fill="#65C18E"/><path d="M25.717 23.972h-3.524c0-.137 3.207-8.307 3.554-9.118.1-.231.05-.297-.213-.293a47.78 47.78 0 01-2.601-.004c-.263-.01-.373.06-.457.301-.09.255-3.544 8.887-3.55 9.109h-3.474c.1-.505 7.977-20.236 8.344-21.151.541-1.344 1.56-2.208 2.984-2.656.089-.028.367-.155.789-.155h4.07a5.175 5.175 0 011.216.15c.824.303 1.221.949 1.266 1.727.025.458-.134.877-.308 1.297-.233.585-8.026 20.401-8.096 20.793zm-1.96-12.175c.054.019.09.043.129.043.943.004 1.886.004 2.83.004a.26.26 0 00.262-.179c.268-.689 3.167-8.033 3.39-8.613.105-.269.035-.344-.263-.344-.834 0-1.672.004-2.506-.005-.224-.005-.348.075-.427.273-.382.996-2.954 7.463-3.286 8.326-.065.15-.15.302-.13.495zM9.585.01h6.885c.337 0 .764.118.849.147.943.316 1.37 1.221 1.22 2.099-.153.91-4.055 10.283-4.382 10.65-.447.51-.993.897-1.589 1.227-.119.066-.193.151-.213.293-.08.537-.174 1.07-.268 1.603-.233 1.26-1.38 7.689-1.41 7.934H7.103c.01-.094.01-.188.025-.283.12-.608 1.608-8.165 1.757-8.905.03-.151-.035-.227-.198-.227-.432.005-.86.014-1.29.019-.14 0-.204.066-.25.189-.084.236-3.484 8.66-3.672 9.212H0v-.283c.07-.014.124-.047.144-.118.114-.387.298-.745.442-1.123C.735 22.052 9.45.491 9.586.01zm.248 11.93c.387 0 .78-.01 1.167.004.223.005.367-.08.441-.268.229-.571 3.192-8.01 3.416-8.576.094-.231.01-.32-.244-.32-.804.004-1.603.004-2.407-.005-.159 0-.243.051-.318.174-.109.189-.163.396-.243.59-.233.57-2.899 7.26-3.246 8.056-.104.24-.045.34.233.34.407.005.804.005 1.201.005zM71.608.009c.655 0 .923.118 1.007.147.879.306 1.346 1.108 1.29 1.971-.024.41-.173.783-.312 1.156-.218.609-6.83 18.226-7.024 18.533-.625.99-1.499 1.68-2.67 2.01-.09.023-.556.146-1.41.146h-6.74c.02-.165.084-.316.143-.472.229-.57 8.846-23.146 8.895-23.49h6.82zm-9.764 21.265c.397 0 .794-.01 1.191.004.239.005.378-.094.452-.292.154-.415 6.403-17.01 6.766-17.953.084-.217.01-.325-.224-.325-.829-.005-1.653 0-2.482 0-.218 0-.347.094-.412.297-.139.42-6.542 17.311-6.765 17.948-.09.25-.03.316.248.32.397.005.809 0 1.226 0zM47.216.009c.471.005.774.128.858.156.685.212 1.246.948 1.241 1.708 0 .519-4.586 12.594-5.187 13.193a5.14 5.14 0 01-1.866 1.208c-.526.198-1.072.24-1.628.24-.909 0-1.822.005-2.73-.005-.214 0-.343.071-.413.255-.248.646-2.546 6.51-2.65 6.788-.065.127-.1.231-.179.41h-3.435c.075-.217.144-.434.229-.646C31.689 22.712 40.34.443 40.505 0c2.471.01 4.249.01 6.71.01zm-2.92 2.765v.009c-.337 0-.68.028-1.017-.01-.273-.028-.407.067-.491.284-.159.405-3.807 9.849-3.986 10.268-.11.26-.05.359.258.359h2.11c.322 0 .407-.07.516-.368.223-.609 3.817-9.868 3.961-10.26.075-.202-.015-.297-.233-.292-.378.01-.75.01-1.117.01zM58.976.009c-.154.42-8.87 23.27-9.05 23.727a.465.465 0 00-.034.231h-3.475c.015-.354 9.045-23.637 9.09-23.962 1.156.004 2.312.004 3.469.004zm18.99 16.718h3.227v1.416h.574v-1.416h2.64v1.416h.575v-1.416h.012v-.547h-7.028v.547zm6.441-14.289h.575v-.946h.012V.946h-.012V0h-.575v.946h-6.441v.546h6.441v.946zm-6.441 16.878h.012v1.528h.575v-1.528h2.64v1.416h.574v-1.416h2.64v1.528h.575v-1.528h.012v-.546h-7.028v.546zM81.332 5.06c.202.212.492.346.815.346h1.735c.606 0 1.099-.469 1.099-1.044v-.813h.012v-.546H77.965v.546h3.077v.813a.512.512 0 01-.524.497h-2.553v.547h2.553c.323 0 .613-.134.814-.346zm3.074-1.51v.812a.512.512 0 01-.524.497h-1.735a.512.512 0 01-.524-.497v-.813h2.783zm-3.358 18.033h-3.083v.547h3.077v.812a.512.512 0 01-.524.497h-2.553v.547h2.553c.323 0 .613-.134.814-.346.202.212.492.346.815.346h1.735c.606 0 1.099-.469 1.099-1.044v-.813h.012v-.546h-3.945zm3.358 1.359a.512.512 0 01-.524.497h-1.735a.512.512 0 01-.524-.497v-.813h2.783v.813zM85 9.847l-.007-.02v-.273h-7.028v.546h5.192l-5.187 1.582v.016h-.005v.546h7.028v-.546H79.8l5.2-1.586v-.265zm-5.924 3.618h1.306v-.563h-1.306c-.61 0-1.107.472-1.107 1.053v.47c0 .58.496 1.052 1.107 1.052h1.306c.373 0 .714-.178.912-.478l.871-1.319a.488.488 0 01.41-.215h1.307c.284 0 .516.22.516.49v.47c0 .27-.232.49-.516.49h-1.306v.563h1.306c.61 0 1.107-.472 1.107-1.053v-.47c0-.58-.496-1.053-1.107-1.053h-1.306c-.373 0-.714.18-.912.48l-.871 1.318a.488.488 0 01-.41.215h-1.307a.504.504 0 01-.516-.49v-.47c0-.27.231-.49.516-.49zm-.337-4.567l.689-.115 5.567-.929v-.52L78.02 6.171l-.064-.01v.62l1.46.243v1.14l-1.46.244v.62l.064-.01.719-.12zm1.253-1.778l2.841.474-2.841.474V7.12z" fill="#fff"/></g><defs><clipPath id="clip0_8999_35070"><path fill="#fff" d="M0 0h85v24H0z"/></clipPath></defs></svg>