<svg width="75" height="48" fill="none" xmlns="http://www.w3.org/2000/svg"><g clip-path="url(#clip0_9044_35278)"><path d="M14.678 20.17L24 10.848l9.326 9.326 5.424-5.424L24 0 9.254 14.746l5.424 5.424zM0 24l5.424-5.425L10.848 24l-5.424 5.424L0 24zm14.678 3.83L24 37.153l9.326-9.326 5.427 5.421-.003.003L24 48 9.254 33.254l-.007-.007 5.431-5.416zm22.474-3.828l5.424-5.424L48 24.002l-5.424 5.424-5.424-5.424zm-7.65-.005h.002L24 18.493l-4.068 4.067-.467.468-.964.963-.008.008.008.008 5.499 5.5 5.504-5.504.002-.003-.005-.003z" fill="#F3BA2F"/><path d="M66.498 10v19.34l8.498-5.08L66.498 10z" fill="#B0B0B0"/><path d="M66.497 10L58 24.26l8.497 5.08V10zm0 27.999v-7.033L58 25.889 66.497 38z" fill="#fff"/><path d="M66.498 29.34l8.498-5.08-8.498-3.905v8.985z" fill="#6C6C6C"/><path d="M66.497 30.967V38L75 25.89l-8.503 5.077zM58 24.26l8.497 5.08v-8.985L58 24.26z" fill="#B7B7B5"/></g><defs><clipPath id="clip0_9044_35278"><path fill="#fff" d="M0 0h75v48H0z"/></clipPath></defs></svg>