<svg width="55" height="47" fill="none" xmlns="http://www.w3.org/2000/svg"><g clip-path="url(#clip0_8999_34789)" fill="#6AB31B"><path d="M11.803 20.213h5.22a7.486 7.486 0 01-2.155 5.265 7.324 7.324 0 01-5.206 2.182H7.367a7.298 7.298 0 01-2.82-.566 7.36 7.36 0 01-2.39-1.615A7.452 7.452 0 01.56 23.063a7.517 7.517 0 01-.56-2.85v-7.93c0-.978.19-1.947.56-2.85a7.452 7.452 0 011.597-2.417 7.36 7.36 0 012.39-1.614 7.297 7.297 0 012.82-.567h2.295c1.953 0 3.826.786 5.206 2.183a7.487 7.487 0 012.155 5.265h-5.22A3.245 3.245 0 009.241 9.64a3.22 3.22 0 00-1.877.188 3.261 3.261 0 00-1.458 1.21 3.314 3.314 0 00-.55 1.824v6.77a3.304 3.304 0 00.85 2.22 3.224 3.224 0 004.373.393 3.29 3.29 0 001.224-2.033zM25.157 9.578v3.767h8.61v5.512h-8.61v4.066h9.662v4.737H19.607V0h5.55v4.835h9.662v4.743h-9.662zM48.877 4.835h-10.52V27.66h5.453v-8.314h5.067c.804 0 1.6-.16 2.343-.471a6.118 6.118 0 001.987-1.342 6.194 6.194 0 001.327-2.009A6.25 6.25 0 0055 13.155v-2.13a6.25 6.25 0 00-.466-2.369 6.195 6.195 0 00-1.327-2.008 6.118 6.118 0 00-1.987-1.342 6.064 6.064 0 00-2.343-.471zm-1.625 9.578h-3.158V9.578h3.158a2.369 2.369 0 011.691.708 2.421 2.421 0 01.7 1.71 2.442 2.442 0 01-.7 1.709 2.39 2.39 0 01-1.69.708zM55 47h-4.306l-3.987-6.552-.983 1.137V47h-3.731V31.335h3.731v5.415l4.59-5.415h4.305l-5.237 6.035L55 47zM39.692 31.335V47h-3.476l-4.982-7.832V47h-3.726V31.335h3.346l5.237 7.833v-7.833h3.601zM20.295 31.335h-2.829L11.85 47h3.788l.818-2.406h4.85L22.125 47h3.789l-5.618-15.665zm-3.243 10.25l1.794-4.392.035.08.034-.08 1.794 4.392h-3.657zM7.867 38.91v-.075a3.705 3.705 0 002.45-1.284 3.785 3.785 0 00-.247-5.176 3.697 3.697 0 00-2.561-1.04H0V47h7.197c1.01 0 1.985-.383 2.729-1.075a4.105 4.105 0 00.455-5.498 4.022 4.022 0 00-2.514-1.518zm-4.34-4.462h2.494c.41.002.801.167 1.09.46.29.292.453.688.455 1.102a1.574 1.574 0 01-.454 1.101 1.541 1.541 0 01-1.091.455H3.527v-3.118zm2.494 9.33H3.527v-3.123h2.494a1.527 1.527 0 011.09.46 1.536 1.536 0 01.455 1.102c0 .414-.163.811-.453 1.104-.29.293-.683.457-1.092.458z"/></g><defs><clipPath id="clip0_8999_34789"><path fill="#fff" d="M0 0h55v47H0z"/></clipPath></defs></svg>