<svg width="55" height="46" fill="none" xmlns="http://www.w3.org/2000/svg"><g clip-path="url(#clip0_8999_35064)" fill="#fff"><path d="M46.105 13.177L24.095 2.483a1.48 1.48 0 00-1.27 0L.815 13.177c-.503.239-.815.74-.815 1.289v.812a1.44 1.44 0 001.439 1.432h44.043a1.44 1.44 0 001.438-1.432v-.812c0-.55-.312-1.026-.815-1.29zm-22.657.406a2.588 2.588 0 01-2.59-2.578 2.573 2.573 0 012.59-2.578 2.588 2.588 0 012.59 2.578 2.573 2.573 0 01-2.59 2.578zm4.843 4.464v1.265a1.48 1.48 0 01-.839 1.313l-.503.238v14.419h-6.953V20.84l-.504-.24a1.453 1.453 0 01-.839-1.312v-1.265c-.024.024 9.638.024 9.638.024zm13.714 0v1.265a1.48 1.48 0 01-.839 1.313l-.503.238v14.419H33.71V20.84l-.504-.24a1.453 1.453 0 01-.839-1.312v-1.265c0 .024 9.638.024 9.638.024zm-27.476 0v1.265a1.48 1.48 0 01-.839 1.313l-.503.238v14.419H6.234V20.84l-.504-.24a1.453 1.453 0 01-.839-1.312v-1.265c-.024.024 9.638.024 9.638.024zM46.92 43.613v.93a1.44 1.44 0 01-1.438 1.433H1.439A1.44 1.44 0 010 44.544v-.931a1.44 1.44 0 011.439-1.432h44.043a1.44 1.44 0 011.438 1.432zm-3.02-5.347v.93a1.44 1.44 0 01-1.44 1.433h-38a1.44 1.44 0 01-1.44-1.432v-.931a1.44 1.44 0 011.44-1.433h37.977c.815 0 1.462.621 1.462 1.433z"/><path opacity=".5" d="M54.185 10.838L32.175.143a1.48 1.48 0 00-1.27 0l-4.172 2.03 20.02 9.739c.959.477 1.582 1.408 1.606 2.458h5.203A1.44 1.44 0 0055 12.938v-.811c0-.55-.312-1.05-.815-1.29zm-4.076 4.87v1.264c0 .55-.336 1.075-.839 1.29l-.504.238V32.92h-6.64V21.747a2.85 2.85 0 001.342-2.435v-1.17h2.014a2.885 2.885 0 002.853-2.435h1.774zM55 41.273v.93a1.44 1.44 0 01-1.438 1.433h-5.203v-.024a2.88 2.88 0 00-2.877-2.865h-.623c.191-.286.311-.573.383-.907h8.32A1.44 1.44 0 0155 41.273zm-3.02-5.372v.931a1.44 1.44 0 01-1.44 1.433h-5.202v-.024a2.88 2.88 0 00-2.877-2.865h-.336v-.907h8.416a1.44 1.44 0 011.438 1.432z"/></g><defs><clipPath id="clip0_8999_35064"><path fill="#fff" d="M0 0h55v46H0z"/></clipPath></defs></svg>