<svg width="85" height="31" fill="none" xmlns="http://www.w3.org/2000/svg"><g clip-path="url(#clip0_3080_229460)"><mask id="a" style="mask-type:luminance" maskUnits="userSpaceOnUse" x="0" y="0" width="85" height="31"><path d="M85 0H0v31h85V0z" fill="#fff"/></mask><g mask="url(#a)"><path d="M22.88 31H12.044L23.883 0l5.42 14.16L22.88 31z" fill="url(#paint0_linear_3080_229460)"/><path d="M49.274 31H38.435L50.378 0h10.838L49.274 31z" fill="url(#paint1_linear_3080_229460)"/><path d="M73.058 31H62.22L74.162 0H85L73.058 31z" fill="url(#paint2_linear_3080_229460)"/><path d="M11.942 31H22.78L10.838 0H0l11.942 31z" fill="url(#paint3_linear_3080_229460)"/><path d="M38.436 31h10.838L37.332 0H26.494l11.942 31z" fill="url(#paint4_linear_3080_229460)"/><path d="M62.22 31h10.838L61.216 0H50.378L62.22 31z" fill="url(#paint5_linear_3080_229460)"/></g></g><defs><linearGradient id="paint0_linear_3080_229460" x1="10.534" y1="13.561" x2="29.637" y2="17.8" gradientUnits="userSpaceOnUse"><stop stop-color="#9237A2"/><stop offset=".598" stop-color="#882772"/><stop offset="1" stop-color="#8C2D83"/></linearGradient><linearGradient id="paint1_linear_3080_229460" x1="37.202" y1="11.24" x2="61.466" y2="18.313" gradientUnits="userSpaceOnUse"><stop stop-color="#9237A2"/><stop offset=".598" stop-color="#882772"/><stop offset="1" stop-color="#8C2D83"/></linearGradient><linearGradient id="paint2_linear_3080_229460" x1="60.99" y1="11.24" x2="85.254" y2="18.313" gradientUnits="userSpaceOnUse"><stop stop-color="#9237A2"/><stop offset=".598" stop-color="#882772"/><stop offset="1" stop-color="#8C2D83"/></linearGradient><linearGradient id="paint3_linear_3080_229460" x1="22.728" y1="15.435" x2="-.029" y2="15.435" gradientUnits="userSpaceOnUse"><stop stop-color="#833AB4"/><stop offset=".5" stop-color="#FD1D1D"/><stop offset="1" stop-color="#FCB045"/></linearGradient><linearGradient id="paint4_linear_3080_229460" x1="49.215" y1="15.435" x2="26.458" y2="15.435" gradientUnits="userSpaceOnUse"><stop stop-color="#833AB4"/><stop offset=".5" stop-color="#FD1D1D"/><stop offset="1" stop-color="#FCB045"/></linearGradient><linearGradient id="paint5_linear_3080_229460" x1="73.072" y1="15.435" x2="50.315" y2="15.435" gradientUnits="userSpaceOnUse"><stop stop-color="#833AB4"/><stop offset=".5" stop-color="#FD1D1D"/><stop offset="1" stop-color="#FCB045"/></linearGradient><clipPath id="clip0_3080_229460"><path fill="#fff" d="M0 0h85v31H0z"/></clipPath></defs></svg>