<svg width="70" height="48" fill="none" xmlns="http://www.w3.org/2000/svg"><g clip-path="url(#clip0_9372_36300)"><path d="M65.417 13H19.583C17.052 13 15 14.958 15 17.375v26.25C15 46.043 17.052 48 19.583 48h45.834C67.948 48 70 46.043 70 43.625v-26.25C70 14.958 67.948 13 65.417 13z" fill="url(#paint0_linear_9372_36300)"/><path d="M19.583 13.5h45.834c2.278 0 4.083 1.756 4.083 3.875v26.25c0 2.12-1.805 3.875-4.083 3.875H19.583c-2.278 0-4.083-1.755-4.083-3.875v-26.25c0-2.119 1.805-3.875 4.083-3.875z" stroke="#fff" stroke-opacity=".2"/><path d="M50.417 0H4.584C2.05 0 0 1.957 0 4.375v26.25C0 33.043 2.051 35 4.584 35h45.833c2.532 0 4.584-1.957 4.584-4.375V4.375C55 1.957 52.949 0 50.416 0z" fill="url(#paint1_linear_9372_36300)"/><path d="M4.584.5h45.833c2.278 0 4.084 1.755 4.084 3.875v26.25c0 2.12-1.806 3.875-4.084 3.875H4.584C2.305 34.5.5 32.745.5 30.625V4.375C.5 2.255 2.305.5 4.584.5z" stroke="#fff" stroke-opacity=".2"/><path d="M46.703 32.635a3.745 3.745 0 01-2.587-1.036 3.473 3.473 0 01-1.076-2.492c0-1.942 1.648-3.528 3.663-3.528 2.016 0 3.663 1.586 3.663 3.528 0 1.941-1.635 3.528-3.663 3.528z" fill="#fff" fill-opacity=".5"/><path d="M39.38 29.107c0-2.285 2.248-3.96 4.579-3.428a4.2 4.2 0 00-1.387 1.488 4.022 4.022 0 00-.5 1.94c0 .677.171 1.344.5 1.941a4.2 4.2 0 001.387 1.489c-2.342.532-4.58-1.155-4.58-3.43z" fill="#fff" fill-opacity=".5"/><path d="M5.935 14.995c.854 0 1.349-.493 1.349-1.367v-1.817H9.02c2.366 0 3.993-1.44 3.993-3.642 0-2.22-1.547-3.658-3.83-3.658H5.934c-.854 0-1.355.5-1.355 1.374v7.744c0 .873.5 1.367 1.355 1.367zm1.349-5.16V6.523H8.47c1.134 0 1.812.58 1.812 1.654 0 1.08-.678 1.66-1.827 1.66H7.283zm8.082 5.16h5.894c.685 0 1.083-.407 1.083-1.008 0-.616-.398-1.01-1.083-1.01h-3.676v-.05l2.113-1.875c1.688-1.482 2.38-2.24 2.38-3.563 0-1.826-1.591-3.078-4.014-3.078-1.938 0-3.353.909-3.817 2.097-.08.186-.11.372-.11.573 0 .644.42 1.037 1.119 1.037.546 0 .862-.207 1.201-.716.39-.686.87-1.016 1.57-1.016.846 0 1.436.53 1.436 1.275 0 .672-.339 1.144-1.584 2.246l-3.035 2.677c-.531.444-.745.794-.745 1.288 0 .652.399 1.123 1.268 1.123zm9.606 0c.855 0 1.35-.493 1.35-1.367v-1.817h1.738c2.365 0 3.993-1.44 3.993-3.642 0-2.22-1.548-3.658-3.83-3.658h-3.25c-.854 0-1.355.5-1.355 1.374v7.744c0 .873.5 1.367 1.355 1.367zm1.35-5.16V6.523h1.185c1.136 0 1.813.58 1.813 1.654 0 1.08-.677 1.66-1.828 1.66h-1.17z" fill="#fff" fill-opacity=".8"/><path d="M3.43 42.715h8.551c.553 0 .997-.537 1.019-1.208 0-.657-.456-1.195-1.008-1.195H3.44l1.063-1.263c.39-.46.39-1.22 0-1.694a.961.961 0 00-.32-.262.87.87 0 00-.78 0 .96.96 0 00-.32.262l-2.785 3.31c-.163.198-.271.46-.293.737-.024.275.033.551.163.787.036.06.076.117.12.171l2.752 3.285c.089.112.198.201.32.262a.869.869 0 00.779 0 .959.959 0 00.32-.262c.39-.46.39-1.222 0-1.694l-1.03-1.236z" fill="url(#paint2_linear_9372_36300)"/><path d="M69.08 8.104c.217-.261.445-.523.65-.799.146-.184.238-.413.263-.657a1.318 1.318 0 00-.122-.705c-.12-.262-.325-.485-.509-.694-.217-.262-.445-.525-.662-.786-.271-.314-.531-.629-.791-.944-.228-.262-.446-.524-.673-.786-.108-.13-.216-.248-.325-.38a.962.962 0 00-.321-.26.872.872 0 00-.778 0 .962.962 0 00-.321.26c-.195.236-.293.55-.293.852-.003.314.102.618.293.851l1.073 1.271h-8.556c-.553 0-1.008.537-1.008 1.193 0 .655.455 1.191 1.009 1.191h8.555l-1.03 1.232a1.325 1.325 0 00-.293.852c-.003.314.102.618.293.851.089.111.198.2.32.261a.872.872 0 00.78 0 .964.964 0 00.32-.26c.066-.092.141-.171.217-.263.174-.223.358-.433.532-.642.227-.276.466-.55.694-.825.227-.263.456-.55.683-.813z" fill="url(#paint3_linear_9372_36300)"/></g><defs><linearGradient id="paint0_linear_9372_36300" x1="15" y1="13" x2="68.398" y2="50.294" gradientUnits="userSpaceOnUse"><stop stop-color="#84BC3C"/><stop offset="1" stop-color="#9BD74D"/></linearGradient><linearGradient id="paint1_linear_9372_36300" x1="0" y1="0" x2="53.398" y2="37.294" gradientUnits="userSpaceOnUse"><stop stop-color="#FF946B"/><stop offset="1" stop-color="#F28829"/></linearGradient><linearGradient id="paint2_linear_9372_36300" x1="0" y1="41.5" x2="15.5" y2="41.5" gradientUnits="userSpaceOnUse"><stop stop-color="#fff"/><stop offset="1" stop-color="#fff" stop-opacity="0"/><stop offset="1" stop-color="#fff" stop-opacity="0"/></linearGradient><linearGradient id="paint3_linear_9372_36300" x1="70" y1="6.5" x2="54.5" y2="6.5" gradientUnits="userSpaceOnUse"><stop stop-color="#fff"/><stop offset="1" stop-color="#fff" stop-opacity="0"/></linearGradient><clipPath id="clip0_9372_36300"><path fill="#fff" d="M0 0h70v48H0z"/></clipPath></defs></svg>