<svg width="77" height="33" fill="none" xmlns="http://www.w3.org/2000/svg"><g clip-path="url(#clip0_8999_35066)" fill="#fff"><path d="M14.593 4.255C15.49 3.095 16.13 1.548 15.94 0c-1.343.065-2.944.903-3.905 1.997-.832.968-1.602 2.578-1.408 4.06 1.537.196 3.006-.642 3.967-1.802zm1.346 2.19c-2.178-.13-4.032 1.225-5.057 1.225-1.026 0-2.624-1.16-4.352-1.16-2.243.065-4.29 1.29-5.443 3.353-2.304 4.06-.64 10.055 1.664 13.343 1.087 1.612 2.433 3.414 4.16 3.352 1.664-.065 2.304-1.095 4.288-1.095 1.983 0 2.56 1.095 4.352 1.03 1.793-.065 2.944-1.613 4.032-3.287 1.281-1.87 1.792-3.676 1.792-3.738-.064-.065-3.52-1.352-3.52-5.35-.065-3.353 2.689-4.962 2.815-5.027-1.47-2.324-3.9-2.58-4.73-2.646zM34.755 1.87c4.737 0 8.001 3.288 8.001 7.993 0 4.77-3.329 8.057-8.128 8.057h-5.186v8.315h-3.776V1.87h9.089zm-5.313 12.89h4.287c3.265 0 5.122-1.805 5.122-4.835 0-3.096-1.857-4.836-5.122-4.836H29.38v9.668h.062v.003zm14.275 6.51c0-3.095 2.369-5.027 6.592-5.285l4.863-.257v-1.353c0-1.997-1.343-3.157-3.52-3.157-2.113 0-3.392 1.033-3.712 2.577h-3.456c.191-3.222 2.945-5.607 7.297-5.607 4.287 0 7.04 2.255 7.04 5.865v12.245h-3.455v-2.9h-.065c-1.022 1.997-3.265 3.222-5.568 3.222-3.585 0-6.016-2.193-6.016-5.35zm11.458-1.613V18.24l-4.352.257c-2.178.13-3.391 1.095-3.391 2.643 0 1.547 1.281 2.577 3.2 2.577 2.556.003 4.543-1.74 4.543-4.06zm6.847 13.213v-2.965c.256.065.896.065 1.152.065 1.663 0 2.56-.71 3.135-2.512 0-.066.32-1.095.32-1.095l-6.4-17.79h3.906l4.481 14.502h.065l4.481-14.503H77l-6.591 18.755C68.872 31.645 67.144 33 63.497 33c-.259-.065-1.155-.065-1.475-.13z"/></g><defs><clipPath id="clip0_8999_35066"><path fill="#fff" d="M0 0h77v33H0z"/></clipPath></defs></svg>