<svg width="74" height="20" fill="none" xmlns="http://www.w3.org/2000/svg"><g clip-path="url(#clip0_8999_35068)" fill="#F0EFEF"><path d="M0 5.644C0 3.818.882 2.42 2.647 1.452 4.41.484 6.655 0 9.379 0c3.244 0 6.027.511 8.348 1.534v4.658C15.596 4.95 12.99 4.347 9.912 4.384c-2.109.018-3.162.429-3.162 1.233 0 .383.32.725.959 1.027.64.301 1.439.557 2.398.767.96.21 1.995.493 3.109.85 1.112.355 2.149.753 3.108 1.191a6.376 6.376 0 012.398 1.877c.64.813.96 1.749.96 2.808 0 3.909-3.317 5.863-9.948 5.863-3.624 0-6.81-.584-9.557-1.753v-4.795c2.724 1.443 5.743 2.164 9.06 2.164 1.326 0 2.273-.095 2.842-.287.568-.192.853-.525.853-1 0-.494-.444-.923-1.333-1.288-.888-.365-1.966-.708-3.233-1.027a46.076 46.076 0 01-3.801-1.137c-1.267-.439-2.345-1.105-3.233-2C.444 7.981 0 6.903 0 5.643zM50.518.41V19.59h-6.573V9.397l-5.329 6.301h-3.765L29.522 9.37v10.22H22.95V.41h6.217l7.567 8.986L44.3.411h6.217zM54.319 5.644c0-1.826.882-3.224 2.646-4.192C58.73.484 60.974 0 63.698 0c3.244 0 6.027.511 8.348 1.534v4.658C69.915 4.95 67.31 4.347 64.23 4.384c-2.108.018-3.161.429-3.161 1.233 0 .383.32.725.959 1.027.64.301 1.439.557 2.398.767.96.21 1.995.493 3.108.85 1.113.355 2.15.753 3.109 1.191a6.374 6.374 0 012.398 1.877c.64.813.96 1.749.96 2.808C74 18.046 70.683 20 64.052 20c-3.624 0-6.81-.584-9.557-1.753v-4.795c2.724 1.443 5.743 2.164 9.06 2.164 1.326 0 2.273-.095 2.842-.287.568-.192.852-.525.852-1 0-.494-.444-.923-1.332-1.288-.888-.365-1.966-.708-3.233-1.027a46.067 46.067 0 01-3.801-1.137c-1.267-.439-2.345-1.105-3.233-2-.888-.895-1.332-1.973-1.332-3.233z"/></g><defs><clipPath id="clip0_8999_35068"><path fill="#fff" d="M0 0h74v20H0z"/></clipPath></defs></svg>