<svg width="47" height="46" fill="none" xmlns="http://www.w3.org/2000/svg"><g clip-path="url(#clip0_8999_35065)"><path d="M26.24 29.747h-5.48V16.192h5.502v13.555h-.021zm13.986-13.555h-5.502v13.555h5.502V16.192zm5.815-8.014L24.281.144a2.208 2.208 0 00-1.542 0L.96 8.178A1.181 1.181 0 00.188 9.27v3.11a1.18 1.18 0 001.188 1.175h44.248a1.18 1.18 0 001.188-1.174V9.27c0-.475-.312-.907-.77-1.093zm-1.834 28.305v-1.215c0-1.545-1.271-2.802-2.834-2.802H30.347l2.772 5.418h9.65a1.402 1.402 0 001.438-1.401zM47 44.599v-1.215c0-1.545-1.271-2.802-2.835-2.802H34.37L37.267 46h8.295c.813 0 1.438-.618 1.438-1.4zM6.774 29.747h5.502V16.192H6.774v13.555zm20.384 2.719h-7.295L12.881 46h21.26l-6.983-13.534zM4.23 37.904h9.65l2.772-5.417H5.648c-1.563 0-2.834 1.256-2.834 2.801v1.216c-.021.762.625 1.4 1.417 1.4zM1.417 46h8.296l2.918-5.418H2.835C1.27 40.582 0 41.84 0 43.384v1.215C0 45.382.646 46 1.417 46z" fill="#fff"/></g><defs><clipPath id="clip0_8999_35065"><path fill="#fff" d="M0 0h47v46H0z"/></clipPath></defs></svg>