<svg width="85" height="22" fill="none" xmlns="http://www.w3.org/2000/svg"><g clip-path="url(#clip0_3080_229975)"><mask id="a" style="mask-type:luminance" maskUnits="userSpaceOnUse" x="0" y="0" width="85" height="22"><path d="M85 0H0v22h85V0z" fill="#fff"/></mask><g mask="url(#a)"><path d="M18.988 7.166h-5.791c0-.895-.111-1.495-.334-1.8-.345-.453-1.295-.68-2.852-.68-1.512 0-2.513.13-3.003.391-.489.262-.733.83-.734 1.707 0 .792.217 1.314.651 1.565.312.177.723.282 1.235.313l1.168.077c2.503.156 4.066.266 4.689.33 1.98.187 3.414.683 4.304 1.486.7.627 1.118 1.446 1.252 2.457.082.68.121 1.365.116 2.05 0 1.754-.177 3.037-.533 3.85-.644 1.494-2.093 2.438-4.346 2.833-.944.167-2.388.25-4.332.251-3.243 0-5.502-.182-6.778-.547C2.134 21.002 1.1 20.095.602 18.73c-.279-.76-.418-2.026-.416-3.798h5.79v.453c0 .946.288 1.554.865 1.825.453.198.947.299 1.447.296h2.13c1.085 0 1.778-.052 2.078-.157.532-.197.882-.515 1.048-.953a3.44 3.44 0 00.133-1.049c0-.958-.37-1.542-1.113-1.751-.279-.082-1.57-.197-3.873-.344-1.851-.124-3.137-.245-3.856-.36-1.896-.334-3.16-1.022-3.79-2.064C.49 9.943.213 8.603.214 6.808c0-1.364.15-2.458.45-3.282.299-.824.781-1.45 1.447-1.877C3.088.992 4.337.606 5.857.492a52.221 52.221 0 014.212-.157c2.43 0 4.162.13 5.195.392 2.52.638 3.78 2.423 3.78 5.357 0 .24-.018.601-.056 1.082zm25.462 14.83V.22h11.597c1.59 0 2.803.122 3.638.366 1.907.563 3.188 1.715 3.842 3.456.338.914.507 2.29.508 4.128 0 2.209-.187 3.796-.56 4.762-.744 1.911-2.272 3.01-4.586 3.298-.272.043-1.429.08-3.471.112l-1.033.032h-3.71v5.623H44.45zm6.225-10.673h3.88c1.23-.042 1.98-.132 2.248-.27.368-.19.615-.573.738-1.144.079-.38.118-.947.118-1.699 0-.92-.079-1.604-.235-2.05-.224-.624-.76-1.006-1.61-1.143-.168-.02-.57-.031-1.207-.032h-3.932v6.338zm26.646 6.91h-8.322l-1.118 3.764h-6.44L68.391.22h9.388l7.034 21.777h-6.305l-1.187-3.764zm-1.236-4.242l-2.917-9.44-2.83 9.44h5.747z" fill="#fff"/><path d="M35.86 3.291c1.22 0 2.424.256 3.525.75a8.126 8.126 0 012.838 2.108l1.342-2.709C41.375 1.493 38.473.412 35.461.42c-4.904 0-9.1 2.79-10.821 6.738h-2.616l-1.546 3.119h3.366c-.027.29-.04.582-.042.874 0 .354.02.707.057 1.06h-1.69l-1.546 3.119h4.097c1.77 3.849 5.913 6.55 10.74 6.55a12.32 12.32 0 006.561-1.86v-3.822a8.195 8.195 0 01-3.044 2.053 8.645 8.645 0 01-7.273-.485 7.998 7.998 0 01-2.707-2.436h8.577l1.545-3.12H27.735c-.1-.64-.116-1.29-.048-1.933h12.39l1.544-3.119H28.757a7.98 7.98 0 013-2.83 8.596 8.596 0 014.102-1.037z" fill="#FFBE00"/><path d="M35.86 3.381a8.494 8.494 0 013.483.741 8.019 8.019 0 012.803 2.083l.1.116.068-.135 1.342-2.71.03-.061-.052-.046c-1.972-1.74-4.511-2.8-7.205-3.007-2.693-.207-5.382.451-7.627 1.867-1.901 1.197-3.382 2.9-4.254 4.891l.092-.058h-2.68l-.027.054-1.544 3.119-.067.133h3.522l-.099-.102c-.027.294-.04.588-.042.882 0 .35.02.71.057 1.07l.1-.103h-1.754l-.027.053-1.545 3.12-.066.133h4.252l-.091-.057c1.846 4.013 6.098 6.607 10.832 6.607a12.415 12.415 0 006.615-1.875l.043-.027v-4.122l-.173.187a8.097 8.097 0 01-3.008 2.027 8.544 8.544 0 01-7.184-.479 7.902 7.902 0 01-2.674-2.406l-.083.145h8.64l.027-.054 1.545-3.12.066-.132h-11.54l.099.08a7.315 7.315 0 01-.048-1.911l-.1.084H40.14l.026-.054 1.545-3.119.066-.133h-13.02l.086.14a7.922 7.922 0 012.967-2.79 8.531 8.531 0 014.05-1.03zM28.756 7.25H41.62l-.09-.133-1.544 3.119.09-.054h-12.48l-.009.085a7.602 7.602 0 00.05 1.956l.013.08h11.469l-.09-.133-1.544 3.12.089-.054h-8.762l.102.144a8.098 8.098 0 002.74 2.465 8.754 8.754 0 007.36.491 8.298 8.298 0 003.082-2.077l-.174-.062v3.823l.044-.077a12.213 12.213 0 01-6.505 1.843c-4.654 0-8.834-2.55-10.649-6.495l-.026-.056h-4.162l.09.134 1.544-3.12-.09.054h1.802l-.012-.104a10.007 10.007 0 01-.057-1.05c0-.264.014-.548.042-.866l.009-.101h-3.473l.09.133 1.544-3.119-.09.054h2.683l.025-.058c.858-1.957 2.313-3.63 4.182-4.807a12.323 12.323 0 017.5-1.835c2.648.203 5.145 1.245 7.084 2.956l-.022-.108-1.341 2.71.167-.02a8.263 8.263 0 00-3.174-2.26 8.753 8.753 0 00-3.927-.608 8.645 8.645 0 00-3.775 1.185 8.039 8.039 0 00-2.754 2.705l-.086.14h.172z" fill="#FFBE00"/></g></g><defs><clipPath id="clip0_3080_229975"><path fill="#fff" d="M0 0h85v22H0z"/></clipPath></defs></svg>