<svg width="53" height="55" fill="none" xmlns="http://www.w3.org/2000/svg"><g clip-path="url(#clip0_8999_34790)"><path d="M42.963.009v19.17L7.172 55.018 23.64 35.445l8.434-10.01c1.294-1.564 1.205-3.798-.223-5.228L19.935 8.231 18.82.098l18.163 18.188V5.951L42.963.01z" fill="#71BD05"/><path d="M21.796 21.905L0 .09h18.806l1.12 8.146 1.87 13.67zM42.95-.009v11.127H53L42.95-.009z" fill="#A5E73F"/><path d="M36.992 5.975v12.329l-6.158-6.167 6.158-6.162zm-5.14 14.232L19.934 8.231l1.875 13.674L7.172 55.018 23.64 35.445l8.434-10.01c1.294-1.563 1.205-3.798-.223-5.228z" fill="#7D0"/></g><defs><clipPath id="clip0_8999_34790"><path fill="#fff" d="M0 0h53v55H0z"/></clipPath></defs></svg>