<svg width="46" height="46" fill="none" xmlns="http://www.w3.org/2000/svg"><g clip-path="url(#clip0_8999_34796)"><path d="M0 46h15.333V30.667H0V46zm2.19-13.143h10.953V43.81H2.19V32.857zm32.857 0h6.572s-.002 1.444 0 2.19h-6.572v2.174h2.018v4.376h-2.189v-4.36h-2.019v-4.38h-2.19v-2.19h-2.19v2.19h2.19v2.19h-2.19v4.382h-2.191v-4.382h-2.19v-2.19h2.19v-2.19h-2.179l-.013-2.19h6.572v-2.191h2.191v4.381h2.19v2.19zm-21.904-6.571h2.19v2.19H8.76v-2.19h-4.38v2.19H0v-6.572h2.19v2.19h8.761v-2.19h4.382v2.19h-2.19v2.192zm30.667-4.382v2.19h-2.19v2.192H35.05v-6.572h2.19v2.19h2.19c-.032-.678 0-2.19 0-2.19s-1.578.041-2.19 0v-2.19h6.571v2.19h-2.19v2.19h2.19zm0 2.19l2.19.002v6.571h-2.19v2.19h-2.192l.002-2.19H37.24v-2.19h6.571v-4.383zM21.904 2.19h-2.19V.008L28.476 0v2.19h-2.19v2.19h-4.382V2.19zm-2.19 24.096h-4.381v-2.192l2.19.002v-2.19c.752-.018 2.19 0 2.19 0v2.19l4.4.015-.017 2.175h-2.19v2.19l-2.172.016-.02-2.206zm21.904 13.143H46v2.19h-4.382v2.19h-4.381v-2.19h2.192v-4.382h2.19v2.192zM4.383 35.047h6.57v6.572h-6.57v-6.572zM15.332.008H0v15.333h15.333V.008zm-2.19 13.143H2.19V2.198h10.953v10.953zm-2.19-2.191h-6.57V4.388h6.57v6.572zM30.668.008v15.333H46V.008H30.667zM43.81 13.151H32.857V2.198H43.81v10.953zm-2.192-2.191h-6.57V4.388h6.57v6.572zm-30.665 8.754l-.002 2.19h-6.57v-2.19h6.572zm8.608 24.071H32.69v2.189H19.562v-2.189zm-.039-35.009h-2.149V2.215h2.187v6.561h6.565V6.59h2.188v10.94h-2.188v-2.18h-4.377v-2.197h4.377v-2.179h-6.603V8.776zm.04 10.942h-2.189v-6.555h2.188v6.555zm0 2.18v-2.18h4.376v2.18h-4.377zm6.563-2.18h2.188v6.563h-2.188v-6.563zm-2.167 19.676l-4.431.017v-4.377h2.211v2.188h2.22v2.172zm-4.387-8.737h4.379v2.154H19.57v-2.154z" fill="#fff"/></g><defs><clipPath id="clip0_8999_34796"><path fill="#fff" d="M0 0h46v46H0z"/></clipPath></defs></svg>