<svg width="101" height="57" fill="none" xmlns="http://www.w3.org/2000/svg"><g clip-path="url(#clip0_9558_23525)"><path d="M62 43.449c-1.31.358-2.693.551-4.122.551C52.42 44 47.64 41.196 45 37" stroke="url(#paint0_linear_9558_23525)" stroke-width="2" stroke-linecap="round" stroke-linejoin="round"/><path d="M47.125 37.246a.5.5 0 00.072-.882l-3.033-1.927a.5.5 0 00-.766.375l-.319 3.352a.5.5 0 00.694.507l3.352-1.425z" fill="#4DDBAF"/><path d="M52 13.539A11.93 11.93 0 0157.852 12c4.737 0 8.881 2.807 11.148 7" stroke="url(#paint1_linear_9558_23525)" stroke-width="2" stroke-linecap="round" stroke-linejoin="round"/><path d="M66.874 18.733a.5.5 0 00-.078.88l3.01 1.944a.5.5 0 00.769-.37l.34-3.35a.5.5 0 00-.691-.511l-3.35 1.407z" fill="#66A1FC"/><g clip-path="url(#clip1_9558_23525)"><path fill-rule="evenodd" clip-rule="evenodd" d="M93.131 38.728c0 .958-3.357 1.76-7.857 1.964h.004c-.127.011-.785.05-2.252.05a48.33 48.33 0 01-2.286-.05c-2.253-.101-4.222-.352-5.627-.697-1.406-.347-2.247-.788-2.247-1.267 0-.96 3.365-1.761 7.874-1.967v3.133c.296.02 1.14.072 2.306.072 1.401 0 2.102-.06 2.228-.071v-3.132c4.499.205 7.857 1.006 7.857 1.965zm7.786.838l-17.73 17.356a.266.266 0 01-.374 0L65.084 39.565a.276.276 0 01-.058-.319l6.566-14.089a.26.26 0 01.243-.157h22.332c.104 0 .198.062.242.158l6.564 14.089a.28.28 0 01.023.169.284.284 0 01-.08.15h.001zm-6.718-.62c0-1.236-3.826-2.267-8.921-2.508v-2.803h6.28V29.36H74.46v4.275h6.279v2.803c-5.104.24-8.94 1.272-8.94 2.51 0 1.238 3.837 2.27 8.94 2.51v8.984h4.537v-8.988c5.091-.239 8.922-1.27 8.922-2.507z" fill="#4DDBAF"/></g><path d="M43.083 0H3.917C1.752 0 0 1.622 0 3.625v21.75C0 27.378 1.752 29 3.917 29h39.166C45.247 29 47 27.378 47 25.375V3.625C47 1.622 45.247 0 43.083 0z" fill="url(#paint2_linear_9558_23525)"/><path d="M3.917.5h39.166C45.008.5 46.5 1.934 46.5 3.625v21.75c0 1.691-1.492 3.125-3.417 3.125H3.917C1.99 28.5.5 27.066.5 25.375V3.625C.5 1.934 1.991.5 3.917.5z" stroke="#fff" stroke-opacity=".2"/><path d="M10.714 19c-.928 0-1.746-.183-2.456-.549a4.043 4.043 0 01-1.661-1.553C6.199 16.228 6 15.437 6 14.525c0-.666.115-1.274.346-1.825a4.244 4.244 0 01.988-1.436c.428-.403.93-.713 1.507-.931A5.301 5.301 0 0110.746 10c.749 0 1.377.09 1.886.271.509.181.969.438 1.38.77l-1.066 1.684a2.305 2.305 0 00-.897-.549 3.48 3.48 0 00-1.162-.185c-.418 0-.793.06-1.122.179a2.33 2.33 0 00-.834.5c-.226.217-.4.48-.52.788a2.84 2.84 0 00-.179 1.036c0 .526.107.976.32 1.35.219.374.529.662.93.863.403.197.884.296 1.444.296.402 0 .8-.058 1.193-.173.398-.119.774-.31 1.129-.573l.975 1.72c-.415.308-.911.557-1.488.746-.577.184-1.251.277-2.02.277zM14.373 18.815l3.355-8.63h2.47l3.386 8.63h-2.399l-.635-1.75h-3.22l-.622 1.75h-2.334zm3.438-3.458h2.245l-1.129-2.984-1.116 2.984zM24.554 18.815v-8.63h3.643c.667 0 1.249.105 1.745.314.5.206.885.506 1.154.9.274.395.41.867.41 1.418 0 .423-.082.797-.25 1.122-.166.32-.395.588-.686.801-.29.214-.62.374-.987.481L32 18.815h-2.527l-2.002-3.175h-.789v3.175h-2.129zm2.13-4.814h1.257c.444 0 .79-.085 1.039-.253.252-.168.378-.436.378-.801 0-.37-.12-.641-.359-.814-.235-.177-.573-.265-1.014-.265h-1.302V14zM33.233 18.815v-8.63h3.078c.932 0 1.75.183 2.45.549a4.073 4.073 0 011.649 1.522c.393.645.59 1.393.59 2.244 0 .641-.113 1.227-.34 1.757a3.89 3.89 0 01-.956 1.362 4.377 4.377 0 01-1.481.888 5.632 5.632 0 01-1.912.308h-3.078zm2.129-1.905h.84c.385 0 .734-.051 1.046-.154a2.22 2.22 0 00.808-.462 1.98 1.98 0 00.526-.758c.124-.3.186-.646.186-1.036 0-.522-.107-.962-.32-1.32a2.008 2.008 0 00-.905-.813c-.385-.185-.832-.277-1.34-.277h-.841v4.82z" fill="#fff" fill-opacity=".7"/></g><defs><linearGradient id="paint0_linear_9558_23525" x1="45.229" y1="37.628" x2="60.064" y2="43.749" gradientUnits="userSpaceOnUse"><stop stop-color="#4DDBAF"/><stop offset="1" stop-color="#4DDBAF" stop-opacity="0"/></linearGradient><linearGradient id="paint1_linear_9558_23525" x1="52.882" y1="13.858" x2="68.943" y2="17.659" gradientUnits="userSpaceOnUse"><stop stop-color="#66A1FC" stop-opacity="0"/><stop offset="1" stop-color="#66A1FC"/></linearGradient><linearGradient id="paint2_linear_9558_23525" x1="0" y1="14.5" x2="47" y2="14.5" gradientUnits="userSpaceOnUse"><stop stop-color="#0052D4"/><stop offset="1" stop-color="#217AE0"/></linearGradient><clipPath id="clip0_9558_23525"><path fill="#fff" d="M0 0h101v57H0z"/></clipPath><clipPath id="clip1_9558_23525"><path fill="#fff" transform="translate(65 25)" d="M0 0h36v32H0z"/></clipPath></defs></svg>