<svg xmlns="http://www.w3.org/2000/svg" viewBox="0 0 26600 4100" shape-rendering="geometricPrecision" text-rendering="geometricPrecision" image-rendering="optimizeQuality" fill-rule="evenodd" clip-rule="evenodd"><path d="M21420 1400c-9-713-558-1295-1256-1358-27-4-55-6-82-6h-3081c-324 0-590 266-590 590v2820c0 324 266 590 590 590h2932c14 0 28-1 42-1 21 0 42 1 63 1 763 0 1383-619 1383-1383 0-20-1-40-2-60 1-13 2-26 2-39V1416c0-5-1-11-1-16zM13182 297l-1975 2821c-187 266-121 636 144 822 266 186 636 121 823-145l265-380h2460l266 380c186 266 556 331 822 145s331-556 145-822L14157 297c-117-167-306-254-496-251-184 2-366 89-479 251zm-7 2068l494-706 495 706h-989zM23488 287l-1975 2821c-186 266-121 636 145 822s636 121 822-145l266-380h2460l265 380c187 266 557 331 823 145s331-556 145-822L24464 287c-117-167-306-254-496-251-185 2-366 89-480 251zm-7 2068l495-706 495 706h-990zM5788 287L3813 3108c-186 266-121 636 145 822s636 121 822-145l266-380h2459l266 380c186 266 556 331 822 145s332-556 145-822L6763 287c-116-167-305-254-495-251-185 2-366 89-480 251zm-7 2068l495-706 494 706h-989zm4682 1440l1975-2821c186-266 121-636-145-822s-636-121-822 145L9975 2433 8480 297c-186-266-556-331-822-145s-331 556-145 822l1975 2821c117 167 305 254 495 251 185-2 367-89 480-251zm-7393-10L5045 964c186-266 121-636-145-822s-636-121-822 145L2582 2423 1087 287C900 21 530-44 264 142S-67 698 119 964l1975 2821c117 167 306 254 496 251 185-2 366-89 480-251zm16985-2749h-2644v2000h2508l43-3 57 3h19c211 0 383-171 383-383 0-6-1-11-1-17l-2-55 3-41V1422c-1-3-1-6-1-8-2-195-152-359-346-376l-19-2z" fill="#fe284a"/></svg>